G04 #@! TF.GenerationSoftware,KiCad,Pcbnew,5.0.2-bee76a0~70~ubuntu18.04.1*
G04 #@! TF.CreationDate,2019-12-05T19:09:47+01:00*
G04 #@! TF.ProjectId,magneto_bot_shield,6d61676e-6574-46f5-9f62-6f745f736869,rev?*
G04 #@! TF.SameCoordinates,Original*
G04 #@! TF.FileFunction,Legend,Bot*
G04 #@! TF.FilePolarity,Positive*
%FSLAX46Y46*%
G04 Gerber Fmt 4.6, Leading zero omitted, Abs format (unit mm)*
G04 Created by KiCad (PCBNEW 5.0.2-bee76a0~70~ubuntu18.04.1) date Thu 05 Dec 2019 07:09:47 PM CET*
%MOMM*%
%LPD*%
G01*
G04 APERTURE LIST*
%ADD10C,0.250000*%
%ADD11C,0.200000*%
%ADD12C,0.300000*%
G04 APERTURE END LIST*
D10*
X169750000Y-102023809D02*
X169702380Y-101928571D01*
X169702380Y-101785714D01*
X169750000Y-101642857D01*
X169845238Y-101547619D01*
X169940476Y-101500000D01*
X170130952Y-101452380D01*
X170273809Y-101452380D01*
X170464285Y-101500000D01*
X170559523Y-101547619D01*
X170654761Y-101642857D01*
X170702380Y-101785714D01*
X170702380Y-101880952D01*
X170654761Y-102023809D01*
X170607142Y-102071428D01*
X170273809Y-102071428D01*
X170273809Y-101880952D01*
X170416666Y-102452380D02*
X170416666Y-102928571D01*
X170702380Y-102357142D02*
X169702380Y-102690476D01*
X170702380Y-103023809D01*
X169702380Y-103214285D02*
X169702380Y-103785714D01*
X170702380Y-103500000D02*
X169702380Y-103500000D01*
X170178571Y-104119047D02*
X170178571Y-104452380D01*
X170702380Y-104595238D02*
X170702380Y-104119047D01*
X169702380Y-104119047D01*
X169702380Y-104595238D01*
X169702380Y-105500000D02*
X169702380Y-105023809D01*
X170178571Y-104976190D01*
X170130952Y-105023809D01*
X170083333Y-105119047D01*
X170083333Y-105357142D01*
X170130952Y-105452380D01*
X170178571Y-105500000D01*
X170273809Y-105547619D01*
X170511904Y-105547619D01*
X170607142Y-105500000D01*
X170654761Y-105452380D01*
X170702380Y-105357142D01*
X170702380Y-105119047D01*
X170654761Y-105023809D01*
X170607142Y-104976190D01*
X168500000Y-103273809D02*
X168452380Y-103178571D01*
X168452380Y-103035714D01*
X168500000Y-102892857D01*
X168595238Y-102797619D01*
X168690476Y-102750000D01*
X168880952Y-102702380D01*
X169023809Y-102702380D01*
X169214285Y-102750000D01*
X169309523Y-102797619D01*
X169404761Y-102892857D01*
X169452380Y-103035714D01*
X169452380Y-103130952D01*
X169404761Y-103273809D01*
X169357142Y-103321428D01*
X169023809Y-103321428D01*
X169023809Y-103130952D01*
X169166666Y-103702380D02*
X169166666Y-104178571D01*
X169452380Y-103607142D02*
X168452380Y-103940476D01*
X169452380Y-104273809D01*
X168452380Y-104464285D02*
X168452380Y-105035714D01*
X169452380Y-104750000D02*
X168452380Y-104750000D01*
X168928571Y-105369047D02*
X168928571Y-105702380D01*
X169452380Y-105845238D02*
X169452380Y-105369047D01*
X168452380Y-105369047D01*
X168452380Y-105845238D01*
X168785714Y-106702380D02*
X169452380Y-106702380D01*
X168404761Y-106464285D02*
X169119047Y-106226190D01*
X169119047Y-106845238D01*
X167250000Y-102023809D02*
X167202380Y-101928571D01*
X167202380Y-101785714D01*
X167250000Y-101642857D01*
X167345238Y-101547619D01*
X167440476Y-101500000D01*
X167630952Y-101452380D01*
X167773809Y-101452380D01*
X167964285Y-101500000D01*
X168059523Y-101547619D01*
X168154761Y-101642857D01*
X168202380Y-101785714D01*
X168202380Y-101880952D01*
X168154761Y-102023809D01*
X168107142Y-102071428D01*
X167773809Y-102071428D01*
X167773809Y-101880952D01*
X167916666Y-102452380D02*
X167916666Y-102928571D01*
X168202380Y-102357142D02*
X167202380Y-102690476D01*
X168202380Y-103023809D01*
X167202380Y-103214285D02*
X167202380Y-103785714D01*
X168202380Y-103500000D02*
X167202380Y-103500000D01*
X167678571Y-104119047D02*
X167678571Y-104452380D01*
X168202380Y-104595238D02*
X168202380Y-104119047D01*
X167202380Y-104119047D01*
X167202380Y-104595238D01*
X167202380Y-104928571D02*
X167202380Y-105547619D01*
X167583333Y-105214285D01*
X167583333Y-105357142D01*
X167630952Y-105452380D01*
X167678571Y-105500000D01*
X167773809Y-105547619D01*
X168011904Y-105547619D01*
X168107142Y-105500000D01*
X168154761Y-105452380D01*
X168202380Y-105357142D01*
X168202380Y-105071428D01*
X168154761Y-104976190D01*
X168107142Y-104928571D01*
X166000000Y-103273809D02*
X165952380Y-103178571D01*
X165952380Y-103035714D01*
X166000000Y-102892857D01*
X166095238Y-102797619D01*
X166190476Y-102750000D01*
X166380952Y-102702380D01*
X166523809Y-102702380D01*
X166714285Y-102750000D01*
X166809523Y-102797619D01*
X166904761Y-102892857D01*
X166952380Y-103035714D01*
X166952380Y-103130952D01*
X166904761Y-103273809D01*
X166857142Y-103321428D01*
X166523809Y-103321428D01*
X166523809Y-103130952D01*
X166666666Y-103702380D02*
X166666666Y-104178571D01*
X166952380Y-103607142D02*
X165952380Y-103940476D01*
X166952380Y-104273809D01*
X165952380Y-104464285D02*
X165952380Y-105035714D01*
X166952380Y-104750000D02*
X165952380Y-104750000D01*
X166428571Y-105369047D02*
X166428571Y-105702380D01*
X166952380Y-105845238D02*
X166952380Y-105369047D01*
X165952380Y-105369047D01*
X165952380Y-105845238D01*
X166047619Y-106226190D02*
X166000000Y-106273809D01*
X165952380Y-106369047D01*
X165952380Y-106607142D01*
X166000000Y-106702380D01*
X166047619Y-106750000D01*
X166142857Y-106797619D01*
X166238095Y-106797619D01*
X166380952Y-106750000D01*
X166952380Y-106178571D01*
X166952380Y-106797619D01*
X164750000Y-102023809D02*
X164702380Y-101928571D01*
X164702380Y-101785714D01*
X164750000Y-101642857D01*
X164845238Y-101547619D01*
X164940476Y-101500000D01*
X165130952Y-101452380D01*
X165273809Y-101452380D01*
X165464285Y-101500000D01*
X165559523Y-101547619D01*
X165654761Y-101642857D01*
X165702380Y-101785714D01*
X165702380Y-101880952D01*
X165654761Y-102023809D01*
X165607142Y-102071428D01*
X165273809Y-102071428D01*
X165273809Y-101880952D01*
X165416666Y-102452380D02*
X165416666Y-102928571D01*
X165702380Y-102357142D02*
X164702380Y-102690476D01*
X165702380Y-103023809D01*
X164702380Y-103214285D02*
X164702380Y-103785714D01*
X165702380Y-103500000D02*
X164702380Y-103500000D01*
X165178571Y-104119047D02*
X165178571Y-104452380D01*
X165702380Y-104595238D02*
X165702380Y-104119047D01*
X164702380Y-104119047D01*
X164702380Y-104595238D01*
X165702380Y-105547619D02*
X165702380Y-104976190D01*
X165702380Y-105261904D02*
X164702380Y-105261904D01*
X164845238Y-105166666D01*
X164940476Y-105071428D01*
X164988095Y-104976190D01*
D11*
X170250000Y-96500000D02*
X170250000Y-101000000D01*
X169000000Y-99000000D02*
X169000000Y-102000000D01*
X167750000Y-96500000D02*
X167750000Y-101000000D01*
X166500000Y-99000000D02*
X166500000Y-102000000D01*
X165250000Y-96500000D02*
X165250000Y-101000000D01*
X164000000Y-99000000D02*
X164000000Y-102000000D01*
D10*
X163500000Y-103273809D02*
X163452380Y-103178571D01*
X163452380Y-103035714D01*
X163500000Y-102892857D01*
X163595238Y-102797619D01*
X163690476Y-102750000D01*
X163880952Y-102702380D01*
X164023809Y-102702380D01*
X164214285Y-102750000D01*
X164309523Y-102797619D01*
X164404761Y-102892857D01*
X164452380Y-103035714D01*
X164452380Y-103130952D01*
X164404761Y-103273809D01*
X164357142Y-103321428D01*
X164023809Y-103321428D01*
X164023809Y-103130952D01*
X164166666Y-103702380D02*
X164166666Y-104178571D01*
X164452380Y-103607142D02*
X163452380Y-103940476D01*
X164452380Y-104273809D01*
X163452380Y-104464285D02*
X163452380Y-105035714D01*
X164452380Y-104750000D02*
X163452380Y-104750000D01*
X163928571Y-105369047D02*
X163928571Y-105702380D01*
X164452380Y-105845238D02*
X164452380Y-105369047D01*
X163452380Y-105369047D01*
X163452380Y-105845238D01*
X163452380Y-106464285D02*
X163452380Y-106559523D01*
X163500000Y-106654761D01*
X163547619Y-106702380D01*
X163642857Y-106750000D01*
X163833333Y-106797619D01*
X164071428Y-106797619D01*
X164261904Y-106750000D01*
X164357142Y-106702380D01*
X164404761Y-106654761D01*
X164452380Y-106559523D01*
X164452380Y-106464285D01*
X164404761Y-106369047D01*
X164357142Y-106321428D01*
X164261904Y-106273809D01*
X164071428Y-106226190D01*
X163833333Y-106226190D01*
X163642857Y-106273809D01*
X163547619Y-106321428D01*
X163500000Y-106369047D01*
X163452380Y-106464285D01*
D12*
X177035714Y-95678571D02*
X177750000Y-95678571D01*
X177821428Y-96392857D01*
X177750000Y-96321428D01*
X177607142Y-96250000D01*
X177250000Y-96250000D01*
X177107142Y-96321428D01*
X177035714Y-96392857D01*
X176964285Y-96535714D01*
X176964285Y-96892857D01*
X177035714Y-97035714D01*
X177107142Y-97107142D01*
X177250000Y-97178571D01*
X177607142Y-97178571D01*
X177750000Y-97107142D01*
X177821428Y-97035714D01*
X176535714Y-95678571D02*
X176035714Y-97178571D01*
X175535714Y-95678571D01*
X176892857Y-100000000D02*
X177035714Y-99928571D01*
X177250000Y-99928571D01*
X177464285Y-100000000D01*
X177607142Y-100142857D01*
X177678571Y-100285714D01*
X177750000Y-100571428D01*
X177750000Y-100785714D01*
X177678571Y-101071428D01*
X177607142Y-101214285D01*
X177464285Y-101357142D01*
X177250000Y-101428571D01*
X177107142Y-101428571D01*
X176892857Y-101357142D01*
X176821428Y-101285714D01*
X176821428Y-100785714D01*
X177107142Y-100785714D01*
X176178571Y-101428571D02*
X176178571Y-99928571D01*
X175321428Y-101428571D01*
X175321428Y-99928571D01*
X174607142Y-101428571D02*
X174607142Y-99928571D01*
X174250000Y-99928571D01*
X174035714Y-100000000D01*
X173892857Y-100142857D01*
X173821428Y-100285714D01*
X173750000Y-100571428D01*
X173750000Y-100785714D01*
X173821428Y-101071428D01*
X173892857Y-101214285D01*
X174035714Y-101357142D01*
X174250000Y-101428571D01*
X174607142Y-101428571D01*
X152714285Y-99678571D02*
X153428571Y-99678571D01*
X153500000Y-100392857D01*
X153428571Y-100321428D01*
X153285714Y-100250000D01*
X152928571Y-100250000D01*
X152785714Y-100321428D01*
X152714285Y-100392857D01*
X152642857Y-100535714D01*
X152642857Y-100892857D01*
X152714285Y-101035714D01*
X152785714Y-101107142D01*
X152928571Y-101178571D01*
X153285714Y-101178571D01*
X153428571Y-101107142D01*
X153500000Y-101035714D01*
X152000000Y-101035714D02*
X151928571Y-101107142D01*
X152000000Y-101178571D01*
X152071428Y-101107142D01*
X152000000Y-101035714D01*
X152000000Y-101178571D01*
X150571428Y-99678571D02*
X151285714Y-99678571D01*
X151357142Y-100392857D01*
X151285714Y-100321428D01*
X151142857Y-100250000D01*
X150785714Y-100250000D01*
X150642857Y-100321428D01*
X150571428Y-100392857D01*
X150500000Y-100535714D01*
X150500000Y-100892857D01*
X150571428Y-101035714D01*
X150642857Y-101107142D01*
X150785714Y-101178571D01*
X151142857Y-101178571D01*
X151285714Y-101107142D01*
X151357142Y-101035714D01*
X149857142Y-100607142D02*
X148714285Y-100607142D01*
X148142857Y-99678571D02*
X147214285Y-99678571D01*
X147714285Y-100250000D01*
X147500000Y-100250000D01*
X147357142Y-100321428D01*
X147285714Y-100392857D01*
X147214285Y-100535714D01*
X147214285Y-100892857D01*
X147285714Y-101035714D01*
X147357142Y-101107142D01*
X147500000Y-101178571D01*
X147928571Y-101178571D01*
X148071428Y-101107142D01*
X148142857Y-101035714D01*
X146285714Y-99678571D02*
X146142857Y-99678571D01*
X146000000Y-99750000D01*
X145928571Y-99821428D01*
X145857142Y-99964285D01*
X145785714Y-100250000D01*
X145785714Y-100607142D01*
X145857142Y-100892857D01*
X145928571Y-101035714D01*
X146000000Y-101107142D01*
X146142857Y-101178571D01*
X146285714Y-101178571D01*
X146428571Y-101107142D01*
X146500000Y-101035714D01*
X146571428Y-100892857D01*
X146642857Y-100607142D01*
X146642857Y-100250000D01*
X146571428Y-99964285D01*
X146500000Y-99821428D01*
X146428571Y-99750000D01*
X146285714Y-99678571D01*
X145357142Y-99678571D02*
X144857142Y-101178571D01*
X144357142Y-99678571D01*
X152892857Y-95750000D02*
X153035714Y-95678571D01*
X153250000Y-95678571D01*
X153464285Y-95750000D01*
X153607142Y-95892857D01*
X153678571Y-96035714D01*
X153750000Y-96321428D01*
X153750000Y-96535714D01*
X153678571Y-96821428D01*
X153607142Y-96964285D01*
X153464285Y-97107142D01*
X153250000Y-97178571D01*
X153107142Y-97178571D01*
X152892857Y-97107142D01*
X152821428Y-97035714D01*
X152821428Y-96535714D01*
X153107142Y-96535714D01*
X152178571Y-97178571D02*
X152178571Y-95678571D01*
X151321428Y-97178571D01*
X151321428Y-95678571D01*
X150607142Y-97178571D02*
X150607142Y-95678571D01*
X150250000Y-95678571D01*
X150035714Y-95750000D01*
X149892857Y-95892857D01*
X149821428Y-96035714D01*
X149750000Y-96321428D01*
X149750000Y-96535714D01*
X149821428Y-96821428D01*
X149892857Y-96964285D01*
X150035714Y-97107142D01*
X150250000Y-97178571D01*
X150607142Y-97178571D01*
X177642857Y-126678571D02*
X177642857Y-125678571D01*
X177642857Y-125821428D02*
X177571428Y-125750000D01*
X177428571Y-125678571D01*
X177214285Y-125678571D01*
X177071428Y-125750000D01*
X177000000Y-125892857D01*
X177000000Y-126678571D01*
X177000000Y-125892857D02*
X176928571Y-125750000D01*
X176785714Y-125678571D01*
X176571428Y-125678571D01*
X176428571Y-125750000D01*
X176357142Y-125892857D01*
X176357142Y-126678571D01*
X175000000Y-126678571D02*
X175000000Y-125892857D01*
X175071428Y-125750000D01*
X175214285Y-125678571D01*
X175500000Y-125678571D01*
X175642857Y-125750000D01*
X175000000Y-126607142D02*
X175142857Y-126678571D01*
X175500000Y-126678571D01*
X175642857Y-126607142D01*
X175714285Y-126464285D01*
X175714285Y-126321428D01*
X175642857Y-126178571D01*
X175500000Y-126107142D01*
X175142857Y-126107142D01*
X175000000Y-126035714D01*
X173642857Y-125678571D02*
X173642857Y-126892857D01*
X173714285Y-127035714D01*
X173785714Y-127107142D01*
X173928571Y-127178571D01*
X174142857Y-127178571D01*
X174285714Y-127107142D01*
X173642857Y-126607142D02*
X173785714Y-126678571D01*
X174071428Y-126678571D01*
X174214285Y-126607142D01*
X174285714Y-126535714D01*
X174357142Y-126392857D01*
X174357142Y-125964285D01*
X174285714Y-125821428D01*
X174214285Y-125750000D01*
X174071428Y-125678571D01*
X173785714Y-125678571D01*
X173642857Y-125750000D01*
X172928571Y-125678571D02*
X172928571Y-126678571D01*
X172928571Y-125821428D02*
X172857142Y-125750000D01*
X172714285Y-125678571D01*
X172500000Y-125678571D01*
X172357142Y-125750000D01*
X172285714Y-125892857D01*
X172285714Y-126678571D01*
X171000000Y-126607142D02*
X171142857Y-126678571D01*
X171428571Y-126678571D01*
X171571428Y-126607142D01*
X171642857Y-126464285D01*
X171642857Y-125892857D01*
X171571428Y-125750000D01*
X171428571Y-125678571D01*
X171142857Y-125678571D01*
X171000000Y-125750000D01*
X170928571Y-125892857D01*
X170928571Y-126035714D01*
X171642857Y-126178571D01*
X170500000Y-125678571D02*
X169928571Y-125678571D01*
X170285714Y-125178571D02*
X170285714Y-126464285D01*
X170214285Y-126607142D01*
X170071428Y-126678571D01*
X169928571Y-126678571D01*
X169214285Y-126678571D02*
X169357142Y-126607142D01*
X169428571Y-126535714D01*
X169500000Y-126392857D01*
X169500000Y-125964285D01*
X169428571Y-125821428D01*
X169357142Y-125750000D01*
X169214285Y-125678571D01*
X169000000Y-125678571D01*
X168857142Y-125750000D01*
X168785714Y-125821428D01*
X168714285Y-125964285D01*
X168714285Y-126392857D01*
X168785714Y-126535714D01*
X168857142Y-126607142D01*
X169000000Y-126678571D01*
X169214285Y-126678571D01*
X168428571Y-126821428D02*
X167285714Y-126821428D01*
X166928571Y-126678571D02*
X166928571Y-125178571D01*
X166928571Y-125750000D02*
X166785714Y-125678571D01*
X166500000Y-125678571D01*
X166357142Y-125750000D01*
X166285714Y-125821428D01*
X166214285Y-125964285D01*
X166214285Y-126392857D01*
X166285714Y-126535714D01*
X166357142Y-126607142D01*
X166500000Y-126678571D01*
X166785714Y-126678571D01*
X166928571Y-126607142D01*
X165357142Y-126678571D02*
X165500000Y-126607142D01*
X165571428Y-126535714D01*
X165642857Y-126392857D01*
X165642857Y-125964285D01*
X165571428Y-125821428D01*
X165500000Y-125750000D01*
X165357142Y-125678571D01*
X165142857Y-125678571D01*
X165000000Y-125750000D01*
X164928571Y-125821428D01*
X164857142Y-125964285D01*
X164857142Y-126392857D01*
X164928571Y-126535714D01*
X165000000Y-126607142D01*
X165142857Y-126678571D01*
X165357142Y-126678571D01*
X164428571Y-125678571D02*
X163857142Y-125678571D01*
X164214285Y-125178571D02*
X164214285Y-126464285D01*
X164142857Y-126607142D01*
X164000000Y-126678571D01*
X163857142Y-126678571D01*
X163714285Y-126821428D02*
X162571428Y-126821428D01*
X162285714Y-126607142D02*
X162142857Y-126678571D01*
X161857142Y-126678571D01*
X161714285Y-126607142D01*
X161642857Y-126464285D01*
X161642857Y-126392857D01*
X161714285Y-126250000D01*
X161857142Y-126178571D01*
X162071428Y-126178571D01*
X162214285Y-126107142D01*
X162285714Y-125964285D01*
X162285714Y-125892857D01*
X162214285Y-125750000D01*
X162071428Y-125678571D01*
X161857142Y-125678571D01*
X161714285Y-125750000D01*
X161000000Y-126678571D02*
X161000000Y-125178571D01*
X160357142Y-126678571D02*
X160357142Y-125892857D01*
X160428571Y-125750000D01*
X160571428Y-125678571D01*
X160785714Y-125678571D01*
X160928571Y-125750000D01*
X161000000Y-125821428D01*
X159642857Y-126678571D02*
X159642857Y-125678571D01*
X159642857Y-125178571D02*
X159714285Y-125250000D01*
X159642857Y-125321428D01*
X159571428Y-125250000D01*
X159642857Y-125178571D01*
X159642857Y-125321428D01*
X158357142Y-126607142D02*
X158500000Y-126678571D01*
X158785714Y-126678571D01*
X158928571Y-126607142D01*
X159000000Y-126464285D01*
X159000000Y-125892857D01*
X158928571Y-125750000D01*
X158785714Y-125678571D01*
X158500000Y-125678571D01*
X158357142Y-125750000D01*
X158285714Y-125892857D01*
X158285714Y-126035714D01*
X159000000Y-126178571D01*
X157428571Y-126678571D02*
X157571428Y-126607142D01*
X157642857Y-126464285D01*
X157642857Y-125178571D01*
X156214285Y-126678571D02*
X156214285Y-125178571D01*
X156214285Y-126607142D02*
X156357142Y-126678571D01*
X156642857Y-126678571D01*
X156785714Y-126607142D01*
X156857142Y-126535714D01*
X156928571Y-126392857D01*
X156928571Y-125964285D01*
X156857142Y-125821428D01*
X156785714Y-125750000D01*
X156642857Y-125678571D01*
X156357142Y-125678571D01*
X156214285Y-125750000D01*
X155857142Y-126821428D02*
X154714285Y-126821428D01*
X154500000Y-125678571D02*
X154142857Y-126678571D01*
X153785714Y-125678571D01*
X152928571Y-125178571D02*
X152785714Y-125178571D01*
X152642857Y-125250000D01*
X152571428Y-125321428D01*
X152500000Y-125464285D01*
X152428571Y-125750000D01*
X152428571Y-126107142D01*
X152500000Y-126392857D01*
X152571428Y-126535714D01*
X152642857Y-126607142D01*
X152785714Y-126678571D01*
X152928571Y-126678571D01*
X153071428Y-126607142D01*
X153142857Y-126535714D01*
X153214285Y-126392857D01*
X153285714Y-126107142D01*
X153285714Y-125750000D01*
X153214285Y-125464285D01*
X153142857Y-125321428D01*
X153071428Y-125250000D01*
X152928571Y-125178571D01*
X151785714Y-126535714D02*
X151714285Y-126607142D01*
X151785714Y-126678571D01*
X151857142Y-126607142D01*
X151785714Y-126535714D01*
X151785714Y-126678571D01*
X150285714Y-126678571D02*
X151142857Y-126678571D01*
X150714285Y-126678571D02*
X150714285Y-125178571D01*
X150857142Y-125392857D01*
X151000000Y-125535714D01*
X151142857Y-125607142D01*
M02*
