G04 #@! TF.GenerationSoftware,KiCad,Pcbnew,5.0.2-bee76a0~70~ubuntu18.04.1*
G04 #@! TF.CreationDate,2019-12-05T19:09:47+01:00*
G04 #@! TF.ProjectId,magneto_bot_shield,6d61676e-6574-46f5-9f62-6f745f736869,rev?*
G04 #@! TF.SameCoordinates,Original*
G04 #@! TF.FileFunction,Copper,L2,Bot*
G04 #@! TF.FilePolarity,Positive*
%FSLAX46Y46*%
G04 Gerber Fmt 4.6, Leading zero omitted, Abs format (unit mm)*
G04 Created by KiCad (PCBNEW 5.0.2-bee76a0~70~ubuntu18.04.1) date Thu 05 Dec 2019 07:09:47 PM CET*
%MOMM*%
%LPD*%
G01*
G04 APERTURE LIST*
G04 #@! TA.AperFunction,ComponentPad*
%ADD10C,1.800000*%
G04 #@! TD*
G04 #@! TA.AperFunction,ComponentPad*
%ADD11R,1.800000X1.800000*%
G04 #@! TD*
G04 #@! TA.AperFunction,ComponentPad*
%ADD12C,4.400000*%
G04 #@! TD*
G04 #@! TA.AperFunction,ViaPad*
%ADD13C,0.800000*%
G04 #@! TD*
G04 #@! TA.AperFunction,Conductor*
%ADD14C,0.203200*%
G04 #@! TD*
G04 #@! TA.AperFunction,Conductor*
%ADD15C,0.406400*%
G04 #@! TD*
G04 #@! TA.AperFunction,Conductor*
%ADD16C,0.254000*%
G04 #@! TD*
G04 APERTURE END LIST*
D10*
G04 #@! TO.P,J9,6*
G04 #@! TO.N,GATE5*
X170350000Y-96460000D03*
G04 #@! TO.P,J9,5*
G04 #@! TO.N,GATE4*
X169080000Y-99000000D03*
D11*
G04 #@! TO.P,J9,1*
G04 #@! TO.N,GATE0*
X164000000Y-99000000D03*
D10*
G04 #@! TO.P,J9,2*
G04 #@! TO.N,GATE1*
X165270000Y-96460000D03*
G04 #@! TO.P,J9,3*
G04 #@! TO.N,GATE2*
X166540000Y-99000000D03*
G04 #@! TO.P,J9,4*
G04 #@! TO.N,GATE3*
X167810000Y-96460000D03*
G04 #@! TD*
D12*
G04 #@! TO.P,H1,1*
G04 #@! TO.N,GND*
X141750000Y-107750000D03*
G04 #@! TD*
G04 #@! TO.P,H2,1*
G04 #@! TO.N,GND*
X185750000Y-105250000D03*
G04 #@! TD*
D13*
G04 #@! TO.N,Net-(C1-Pad1)*
X152500000Y-105750000D03*
X152500000Y-103750000D03*
G04 #@! TO.N,GND*
X149250000Y-110750000D03*
X164750000Y-118000000D03*
X165750000Y-118000000D03*
X166750000Y-118000000D03*
X166750000Y-119000000D03*
X165750000Y-119000000D03*
X164750000Y-119000000D03*
X164750000Y-120000000D03*
X165750000Y-120000000D03*
X166750000Y-120000000D03*
X173000000Y-118000000D03*
X174000000Y-118000000D03*
X175000000Y-118000000D03*
X173000000Y-119000000D03*
X174000000Y-119000000D03*
X175000000Y-119000000D03*
X173000000Y-120000000D03*
X174000000Y-120000000D03*
X175000000Y-120000000D03*
X181500000Y-118000000D03*
X182500000Y-118000000D03*
X183500000Y-118000000D03*
X183500000Y-119000000D03*
X182500000Y-119000000D03*
X181500000Y-119000000D03*
X181500000Y-120000000D03*
X182500000Y-120000000D03*
X183500000Y-120000000D03*
X156250000Y-118000000D03*
X157250000Y-118000000D03*
X158250000Y-118000000D03*
X158250000Y-119000000D03*
X157250000Y-119000000D03*
X156250000Y-119000000D03*
X156250000Y-120000000D03*
X157250000Y-120000000D03*
X158250000Y-120000000D03*
X147750000Y-118000000D03*
X148750000Y-118000000D03*
X149750000Y-118000000D03*
X149750000Y-119000000D03*
X148750000Y-119000000D03*
X147750000Y-119000000D03*
X147750000Y-120000000D03*
X148750000Y-120000000D03*
X149750000Y-120000000D03*
X140500000Y-118000000D03*
X139500000Y-118000000D03*
X141500000Y-118000000D03*
X141500000Y-119000000D03*
X140500000Y-119000000D03*
X139500000Y-119000000D03*
X139500000Y-120000000D03*
X140500000Y-120000000D03*
X141500000Y-120000000D03*
X146500000Y-101750000D03*
X146500000Y-101750000D03*
X146500000Y-101750000D03*
X147500000Y-101750000D03*
X148500000Y-101750000D03*
X148500000Y-102750000D03*
X147500000Y-102750000D03*
X146500000Y-102750000D03*
X146500000Y-103750000D03*
X147500000Y-103750000D03*
X148500000Y-103750000D03*
X146500000Y-95250000D03*
X147500000Y-95250000D03*
X148500000Y-95250000D03*
X148500000Y-96250000D03*
X147500000Y-96250000D03*
X146500000Y-96250000D03*
X146500000Y-97250000D03*
X147500000Y-97250000D03*
X148500000Y-97250000D03*
X178750000Y-101000000D03*
X179750000Y-101000000D03*
X180750000Y-101000000D03*
X180750000Y-100000000D03*
X179750000Y-100000000D03*
X178750000Y-100000000D03*
X178750000Y-99000000D03*
X179750000Y-99000000D03*
X180750000Y-99000000D03*
X153250000Y-102500000D03*
X154250000Y-102500000D03*
X154250000Y-101500000D03*
G04 #@! TO.N,Net-(C4-Pad1)*
X156500000Y-104500000D03*
X155750000Y-99693600D03*
G04 #@! TO.N,+5V*
X160250000Y-102500000D03*
X158905000Y-97000000D03*
G04 #@! TO.N,GATE5*
X183000000Y-111750000D03*
X181750000Y-105500000D03*
G04 #@! TO.N,GATE4*
X179000000Y-109500000D03*
X174500000Y-112000000D03*
G04 #@! TO.N,GATE3*
X166250000Y-112000000D03*
X165500000Y-106250000D03*
G04 #@! TO.N,GATE2*
X162000000Y-109500000D03*
X157750000Y-112000000D03*
G04 #@! TO.N,GATE1*
X148500000Y-105500000D03*
X149250000Y-112000000D03*
G04 #@! TO.N,GATE0*
X145500000Y-109750000D03*
X141500000Y-112000000D03*
G04 #@! TD*
D14*
G04 #@! TO.N,Net-(C1-Pad1)*
X152500000Y-105750000D02*
X152500000Y-103750000D01*
G04 #@! TO.N,Net-(C4-Pad1)*
X156500000Y-104500000D02*
X155750000Y-103750000D01*
X155750000Y-103750000D02*
X155750000Y-99693600D01*
D15*
G04 #@! TO.N,+5V*
X160250000Y-102500000D02*
X160250000Y-98345000D01*
X160250000Y-98345000D02*
X158905000Y-97000000D01*
D14*
G04 #@! TO.N,GATE5*
X183000000Y-111750000D02*
X181750000Y-110500000D01*
X181750000Y-110500000D02*
X181750000Y-105500000D01*
X172710000Y-96460000D02*
X170350000Y-96460000D01*
X181750000Y-105500000D02*
X172710000Y-96460000D01*
G04 #@! TO.N,GATE4*
X169080000Y-99000000D02*
X179000000Y-108920000D01*
X179000000Y-108920000D02*
X179000000Y-109500000D01*
X179000000Y-109500000D02*
X177000000Y-109500000D01*
X177000000Y-109500000D02*
X174500000Y-112000000D01*
G04 #@! TO.N,GATE3*
X166250000Y-112000000D02*
X166250000Y-107000000D01*
X166250000Y-107000000D02*
X165500000Y-106250000D01*
X167810000Y-103940000D02*
X165500000Y-106250000D01*
X167810000Y-96460000D02*
X167810000Y-103940000D01*
G04 #@! TO.N,GATE2*
X166540000Y-99000000D02*
X162000000Y-103540000D01*
X162000000Y-103540000D02*
X162000000Y-109500000D01*
X162000000Y-109500000D02*
X160250000Y-109500000D01*
X160250000Y-109500000D02*
X157750000Y-112000000D01*
G04 #@! TO.N,GATE1*
X158439999Y-95560001D02*
X148500000Y-105500000D01*
X165270000Y-96460000D02*
X164370001Y-95560001D01*
X164370001Y-95560001D02*
X158439999Y-95560001D01*
X148500000Y-105500000D02*
X148500000Y-111250000D01*
X148500000Y-111250000D02*
X149250000Y-112000000D01*
G04 #@! TO.N,GATE0*
X148454801Y-112704801D02*
X145500000Y-109750000D01*
X151398399Y-112704801D02*
X148454801Y-112704801D01*
X164000000Y-99000000D02*
X164000000Y-100103200D01*
X164000000Y-100103200D02*
X151398399Y-112704801D01*
X145500000Y-109750000D02*
X143750000Y-109750000D01*
X143750000Y-109750000D02*
X141500000Y-112000000D01*
G04 #@! TD*
D16*
G04 #@! TO.N,GND*
G36*
X157908941Y-95028943D02*
X157867848Y-95090443D01*
X148493291Y-104465000D01*
X148294126Y-104465000D01*
X147913720Y-104622569D01*
X147622569Y-104913720D01*
X147465000Y-105294126D01*
X147465000Y-105705874D01*
X147622569Y-106086280D01*
X147763400Y-106227111D01*
X147763401Y-110971691D01*
X146535000Y-109743291D01*
X146535000Y-109544126D01*
X146377431Y-109163720D01*
X146086280Y-108872569D01*
X145705874Y-108715000D01*
X145294126Y-108715000D01*
X144913720Y-108872569D01*
X144772889Y-109013400D01*
X144296276Y-109013400D01*
X144587609Y-108300640D01*
X144582330Y-107172819D01*
X144160888Y-106155368D01*
X143769382Y-105910223D01*
X141929605Y-107750000D01*
X141943748Y-107764143D01*
X141764143Y-107943748D01*
X141750000Y-107929605D01*
X139910223Y-109769382D01*
X140155368Y-110160888D01*
X141199360Y-110587609D01*
X141873839Y-110584452D01*
X141493291Y-110965000D01*
X141294126Y-110965000D01*
X140913720Y-111122569D01*
X140622569Y-111413720D01*
X140465000Y-111794126D01*
X140465000Y-112205874D01*
X140622569Y-112586280D01*
X140913720Y-112877431D01*
X141294126Y-113035000D01*
X141705874Y-113035000D01*
X142086280Y-112877431D01*
X142377431Y-112586280D01*
X142535000Y-112205874D01*
X142535000Y-112006709D01*
X144055110Y-110486600D01*
X144772889Y-110486600D01*
X144913720Y-110627431D01*
X145294126Y-110785000D01*
X145493291Y-110785000D01*
X147882652Y-113174361D01*
X147923743Y-113235859D01*
X147985240Y-113276950D01*
X147985242Y-113276952D01*
X148167394Y-113398662D01*
X148382257Y-113441401D01*
X148382260Y-113441401D01*
X148454801Y-113455830D01*
X148527341Y-113441401D01*
X151325859Y-113441401D01*
X151398399Y-113455830D01*
X151470939Y-113441401D01*
X151470943Y-113441401D01*
X151685806Y-113398662D01*
X151929457Y-113235859D01*
X151970550Y-113174359D01*
X161263400Y-103881510D01*
X161263401Y-108763400D01*
X160322540Y-108763400D01*
X160250000Y-108748971D01*
X160177459Y-108763400D01*
X160177456Y-108763400D01*
X159962593Y-108806139D01*
X159780441Y-108927849D01*
X159780439Y-108927851D01*
X159718942Y-108968942D01*
X159677851Y-109030440D01*
X157743291Y-110965000D01*
X157544126Y-110965000D01*
X157163720Y-111122569D01*
X156872569Y-111413720D01*
X156715000Y-111794126D01*
X156715000Y-112205874D01*
X156872569Y-112586280D01*
X157163720Y-112877431D01*
X157544126Y-113035000D01*
X157955874Y-113035000D01*
X158336280Y-112877431D01*
X158627431Y-112586280D01*
X158785000Y-112205874D01*
X158785000Y-112006709D01*
X160555110Y-110236600D01*
X161272889Y-110236600D01*
X161413720Y-110377431D01*
X161794126Y-110535000D01*
X162205874Y-110535000D01*
X162586280Y-110377431D01*
X162877431Y-110086280D01*
X163035000Y-109705874D01*
X163035000Y-109294126D01*
X162877431Y-108913720D01*
X162736600Y-108772889D01*
X162736600Y-103845109D01*
X166101762Y-100479948D01*
X166234670Y-100535000D01*
X166845330Y-100535000D01*
X167073401Y-100440530D01*
X167073401Y-103634890D01*
X165493291Y-105215000D01*
X165294126Y-105215000D01*
X164913720Y-105372569D01*
X164622569Y-105663720D01*
X164465000Y-106044126D01*
X164465000Y-106455874D01*
X164622569Y-106836280D01*
X164913720Y-107127431D01*
X165294126Y-107285000D01*
X165493290Y-107285000D01*
X165513401Y-107305111D01*
X165513400Y-111272889D01*
X165372569Y-111413720D01*
X165215000Y-111794126D01*
X165215000Y-112205874D01*
X165372569Y-112586280D01*
X165663720Y-112877431D01*
X166044126Y-113035000D01*
X166455874Y-113035000D01*
X166836280Y-112877431D01*
X167127431Y-112586280D01*
X167285000Y-112205874D01*
X167285000Y-111794126D01*
X167127431Y-111413720D01*
X166986600Y-111272889D01*
X166986600Y-107072540D01*
X167001029Y-106999999D01*
X166986600Y-106927459D01*
X166986600Y-106927456D01*
X166943861Y-106712593D01*
X166822151Y-106530441D01*
X166822149Y-106530439D01*
X166781058Y-106468942D01*
X166719560Y-106427850D01*
X166541709Y-106250000D01*
X168279558Y-104512151D01*
X168341058Y-104471058D01*
X168503861Y-104227407D01*
X168546600Y-104012544D01*
X168546600Y-104012541D01*
X168561029Y-103940001D01*
X168546600Y-103867460D01*
X168546600Y-100440530D01*
X168774670Y-100535000D01*
X169385330Y-100535000D01*
X169518238Y-100479947D01*
X177801690Y-108763400D01*
X177072540Y-108763400D01*
X177000000Y-108748971D01*
X176927459Y-108763400D01*
X176927456Y-108763400D01*
X176712593Y-108806139D01*
X176530441Y-108927849D01*
X176530439Y-108927851D01*
X176468942Y-108968942D01*
X176427851Y-109030440D01*
X174493291Y-110965000D01*
X174294126Y-110965000D01*
X173913720Y-111122569D01*
X173622569Y-111413720D01*
X173465000Y-111794126D01*
X173465000Y-112205874D01*
X173622569Y-112586280D01*
X173913720Y-112877431D01*
X174294126Y-113035000D01*
X174705874Y-113035000D01*
X175086280Y-112877431D01*
X175377431Y-112586280D01*
X175535000Y-112205874D01*
X175535000Y-112006709D01*
X177305110Y-110236600D01*
X178272889Y-110236600D01*
X178413720Y-110377431D01*
X178794126Y-110535000D01*
X179205874Y-110535000D01*
X179586280Y-110377431D01*
X179877431Y-110086280D01*
X180035000Y-109705874D01*
X180035000Y-109294126D01*
X179877431Y-108913720D01*
X179718085Y-108754374D01*
X179693861Y-108632593D01*
X179581879Y-108465000D01*
X179572151Y-108450441D01*
X179572149Y-108450439D01*
X179531058Y-108388942D01*
X179469561Y-108347851D01*
X170559947Y-99438238D01*
X170615000Y-99305330D01*
X170615000Y-98694670D01*
X170381310Y-98130493D01*
X170245817Y-97995000D01*
X170655330Y-97995000D01*
X171219507Y-97761310D01*
X171651310Y-97329507D01*
X171706362Y-97196600D01*
X172404891Y-97196600D01*
X180715000Y-105506710D01*
X180715000Y-105705874D01*
X180872569Y-106086280D01*
X181013401Y-106227112D01*
X181013400Y-110427460D01*
X180998971Y-110500000D01*
X181013400Y-110572540D01*
X181013400Y-110572543D01*
X181056139Y-110787406D01*
X181218942Y-111031058D01*
X181280442Y-111072151D01*
X181965000Y-111756710D01*
X181965000Y-111955874D01*
X182122569Y-112336280D01*
X182413720Y-112627431D01*
X182794126Y-112785000D01*
X183205874Y-112785000D01*
X183586280Y-112627431D01*
X183877431Y-112336280D01*
X184035000Y-111955874D01*
X184035000Y-111544126D01*
X183877431Y-111163720D01*
X183586280Y-110872569D01*
X183205874Y-110715000D01*
X183006710Y-110715000D01*
X182486600Y-110194891D01*
X182486600Y-106227111D01*
X182627431Y-106086280D01*
X182785000Y-105705874D01*
X182785000Y-105294126D01*
X182627431Y-104913720D01*
X182413071Y-104699360D01*
X182912391Y-104699360D01*
X182917670Y-105827181D01*
X183339112Y-106844632D01*
X183730618Y-107089777D01*
X185570395Y-105250000D01*
X183730618Y-103410223D01*
X183339112Y-103655368D01*
X182912391Y-104699360D01*
X182413071Y-104699360D01*
X182336280Y-104622569D01*
X181955874Y-104465000D01*
X181756710Y-104465000D01*
X173282150Y-95990441D01*
X173241058Y-95928942D01*
X172997407Y-95766139D01*
X172782544Y-95723400D01*
X172782540Y-95723400D01*
X172710000Y-95708971D01*
X172637460Y-95723400D01*
X171706362Y-95723400D01*
X171651310Y-95590493D01*
X171219507Y-95158690D01*
X170739827Y-94960000D01*
X187790001Y-94960000D01*
X187790001Y-103205677D01*
X187702358Y-103118034D01*
X187589776Y-103230616D01*
X187344632Y-102839112D01*
X186300640Y-102412391D01*
X185172819Y-102417670D01*
X184155368Y-102839112D01*
X183910223Y-103230618D01*
X185750000Y-105070395D01*
X185764143Y-105056253D01*
X185943748Y-105235858D01*
X185929605Y-105250000D01*
X185943748Y-105264143D01*
X185764143Y-105443748D01*
X185750000Y-105429605D01*
X183910223Y-107269382D01*
X184155368Y-107660888D01*
X185199360Y-108087609D01*
X186327181Y-108082330D01*
X187344632Y-107660888D01*
X187589776Y-107269384D01*
X187702358Y-107381966D01*
X187790001Y-107294323D01*
X187790000Y-127290000D01*
X139210000Y-127290000D01*
X139210000Y-109032928D01*
X139339112Y-109344632D01*
X139730618Y-109589777D01*
X141570395Y-107750000D01*
X139730618Y-105910223D01*
X139339112Y-106155368D01*
X139210000Y-106471246D01*
X139210000Y-105730618D01*
X139910223Y-105730618D01*
X141750000Y-107570395D01*
X143589777Y-105730618D01*
X143344632Y-105339112D01*
X142300640Y-104912391D01*
X141172819Y-104917670D01*
X140155368Y-105339112D01*
X139910223Y-105730618D01*
X139210000Y-105730618D01*
X139210000Y-94960000D01*
X158012121Y-94960000D01*
X157908941Y-95028943D01*
X157908941Y-95028943D01*
G37*
X157908941Y-95028943D02*
X157867848Y-95090443D01*
X148493291Y-104465000D01*
X148294126Y-104465000D01*
X147913720Y-104622569D01*
X147622569Y-104913720D01*
X147465000Y-105294126D01*
X147465000Y-105705874D01*
X147622569Y-106086280D01*
X147763400Y-106227111D01*
X147763401Y-110971691D01*
X146535000Y-109743291D01*
X146535000Y-109544126D01*
X146377431Y-109163720D01*
X146086280Y-108872569D01*
X145705874Y-108715000D01*
X145294126Y-108715000D01*
X144913720Y-108872569D01*
X144772889Y-109013400D01*
X144296276Y-109013400D01*
X144587609Y-108300640D01*
X144582330Y-107172819D01*
X144160888Y-106155368D01*
X143769382Y-105910223D01*
X141929605Y-107750000D01*
X141943748Y-107764143D01*
X141764143Y-107943748D01*
X141750000Y-107929605D01*
X139910223Y-109769382D01*
X140155368Y-110160888D01*
X141199360Y-110587609D01*
X141873839Y-110584452D01*
X141493291Y-110965000D01*
X141294126Y-110965000D01*
X140913720Y-111122569D01*
X140622569Y-111413720D01*
X140465000Y-111794126D01*
X140465000Y-112205874D01*
X140622569Y-112586280D01*
X140913720Y-112877431D01*
X141294126Y-113035000D01*
X141705874Y-113035000D01*
X142086280Y-112877431D01*
X142377431Y-112586280D01*
X142535000Y-112205874D01*
X142535000Y-112006709D01*
X144055110Y-110486600D01*
X144772889Y-110486600D01*
X144913720Y-110627431D01*
X145294126Y-110785000D01*
X145493291Y-110785000D01*
X147882652Y-113174361D01*
X147923743Y-113235859D01*
X147985240Y-113276950D01*
X147985242Y-113276952D01*
X148167394Y-113398662D01*
X148382257Y-113441401D01*
X148382260Y-113441401D01*
X148454801Y-113455830D01*
X148527341Y-113441401D01*
X151325859Y-113441401D01*
X151398399Y-113455830D01*
X151470939Y-113441401D01*
X151470943Y-113441401D01*
X151685806Y-113398662D01*
X151929457Y-113235859D01*
X151970550Y-113174359D01*
X161263400Y-103881510D01*
X161263401Y-108763400D01*
X160322540Y-108763400D01*
X160250000Y-108748971D01*
X160177459Y-108763400D01*
X160177456Y-108763400D01*
X159962593Y-108806139D01*
X159780441Y-108927849D01*
X159780439Y-108927851D01*
X159718942Y-108968942D01*
X159677851Y-109030440D01*
X157743291Y-110965000D01*
X157544126Y-110965000D01*
X157163720Y-111122569D01*
X156872569Y-111413720D01*
X156715000Y-111794126D01*
X156715000Y-112205874D01*
X156872569Y-112586280D01*
X157163720Y-112877431D01*
X157544126Y-113035000D01*
X157955874Y-113035000D01*
X158336280Y-112877431D01*
X158627431Y-112586280D01*
X158785000Y-112205874D01*
X158785000Y-112006709D01*
X160555110Y-110236600D01*
X161272889Y-110236600D01*
X161413720Y-110377431D01*
X161794126Y-110535000D01*
X162205874Y-110535000D01*
X162586280Y-110377431D01*
X162877431Y-110086280D01*
X163035000Y-109705874D01*
X163035000Y-109294126D01*
X162877431Y-108913720D01*
X162736600Y-108772889D01*
X162736600Y-103845109D01*
X166101762Y-100479948D01*
X166234670Y-100535000D01*
X166845330Y-100535000D01*
X167073401Y-100440530D01*
X167073401Y-103634890D01*
X165493291Y-105215000D01*
X165294126Y-105215000D01*
X164913720Y-105372569D01*
X164622569Y-105663720D01*
X164465000Y-106044126D01*
X164465000Y-106455874D01*
X164622569Y-106836280D01*
X164913720Y-107127431D01*
X165294126Y-107285000D01*
X165493290Y-107285000D01*
X165513401Y-107305111D01*
X165513400Y-111272889D01*
X165372569Y-111413720D01*
X165215000Y-111794126D01*
X165215000Y-112205874D01*
X165372569Y-112586280D01*
X165663720Y-112877431D01*
X166044126Y-113035000D01*
X166455874Y-113035000D01*
X166836280Y-112877431D01*
X167127431Y-112586280D01*
X167285000Y-112205874D01*
X167285000Y-111794126D01*
X167127431Y-111413720D01*
X166986600Y-111272889D01*
X166986600Y-107072540D01*
X167001029Y-106999999D01*
X166986600Y-106927459D01*
X166986600Y-106927456D01*
X166943861Y-106712593D01*
X166822151Y-106530441D01*
X166822149Y-106530439D01*
X166781058Y-106468942D01*
X166719560Y-106427850D01*
X166541709Y-106250000D01*
X168279558Y-104512151D01*
X168341058Y-104471058D01*
X168503861Y-104227407D01*
X168546600Y-104012544D01*
X168546600Y-104012541D01*
X168561029Y-103940001D01*
X168546600Y-103867460D01*
X168546600Y-100440530D01*
X168774670Y-100535000D01*
X169385330Y-100535000D01*
X169518238Y-100479947D01*
X177801690Y-108763400D01*
X177072540Y-108763400D01*
X177000000Y-108748971D01*
X176927459Y-108763400D01*
X176927456Y-108763400D01*
X176712593Y-108806139D01*
X176530441Y-108927849D01*
X176530439Y-108927851D01*
X176468942Y-108968942D01*
X176427851Y-109030440D01*
X174493291Y-110965000D01*
X174294126Y-110965000D01*
X173913720Y-111122569D01*
X173622569Y-111413720D01*
X173465000Y-111794126D01*
X173465000Y-112205874D01*
X173622569Y-112586280D01*
X173913720Y-112877431D01*
X174294126Y-113035000D01*
X174705874Y-113035000D01*
X175086280Y-112877431D01*
X175377431Y-112586280D01*
X175535000Y-112205874D01*
X175535000Y-112006709D01*
X177305110Y-110236600D01*
X178272889Y-110236600D01*
X178413720Y-110377431D01*
X178794126Y-110535000D01*
X179205874Y-110535000D01*
X179586280Y-110377431D01*
X179877431Y-110086280D01*
X180035000Y-109705874D01*
X180035000Y-109294126D01*
X179877431Y-108913720D01*
X179718085Y-108754374D01*
X179693861Y-108632593D01*
X179581879Y-108465000D01*
X179572151Y-108450441D01*
X179572149Y-108450439D01*
X179531058Y-108388942D01*
X179469561Y-108347851D01*
X170559947Y-99438238D01*
X170615000Y-99305330D01*
X170615000Y-98694670D01*
X170381310Y-98130493D01*
X170245817Y-97995000D01*
X170655330Y-97995000D01*
X171219507Y-97761310D01*
X171651310Y-97329507D01*
X171706362Y-97196600D01*
X172404891Y-97196600D01*
X180715000Y-105506710D01*
X180715000Y-105705874D01*
X180872569Y-106086280D01*
X181013401Y-106227112D01*
X181013400Y-110427460D01*
X180998971Y-110500000D01*
X181013400Y-110572540D01*
X181013400Y-110572543D01*
X181056139Y-110787406D01*
X181218942Y-111031058D01*
X181280442Y-111072151D01*
X181965000Y-111756710D01*
X181965000Y-111955874D01*
X182122569Y-112336280D01*
X182413720Y-112627431D01*
X182794126Y-112785000D01*
X183205874Y-112785000D01*
X183586280Y-112627431D01*
X183877431Y-112336280D01*
X184035000Y-111955874D01*
X184035000Y-111544126D01*
X183877431Y-111163720D01*
X183586280Y-110872569D01*
X183205874Y-110715000D01*
X183006710Y-110715000D01*
X182486600Y-110194891D01*
X182486600Y-106227111D01*
X182627431Y-106086280D01*
X182785000Y-105705874D01*
X182785000Y-105294126D01*
X182627431Y-104913720D01*
X182413071Y-104699360D01*
X182912391Y-104699360D01*
X182917670Y-105827181D01*
X183339112Y-106844632D01*
X183730618Y-107089777D01*
X185570395Y-105250000D01*
X183730618Y-103410223D01*
X183339112Y-103655368D01*
X182912391Y-104699360D01*
X182413071Y-104699360D01*
X182336280Y-104622569D01*
X181955874Y-104465000D01*
X181756710Y-104465000D01*
X173282150Y-95990441D01*
X173241058Y-95928942D01*
X172997407Y-95766139D01*
X172782544Y-95723400D01*
X172782540Y-95723400D01*
X172710000Y-95708971D01*
X172637460Y-95723400D01*
X171706362Y-95723400D01*
X171651310Y-95590493D01*
X171219507Y-95158690D01*
X170739827Y-94960000D01*
X187790001Y-94960000D01*
X187790001Y-103205677D01*
X187702358Y-103118034D01*
X187589776Y-103230616D01*
X187344632Y-102839112D01*
X186300640Y-102412391D01*
X185172819Y-102417670D01*
X184155368Y-102839112D01*
X183910223Y-103230618D01*
X185750000Y-105070395D01*
X185764143Y-105056253D01*
X185943748Y-105235858D01*
X185929605Y-105250000D01*
X185943748Y-105264143D01*
X185764143Y-105443748D01*
X185750000Y-105429605D01*
X183910223Y-107269382D01*
X184155368Y-107660888D01*
X185199360Y-108087609D01*
X186327181Y-108082330D01*
X187344632Y-107660888D01*
X187589776Y-107269384D01*
X187702358Y-107381966D01*
X187790001Y-107294323D01*
X187790000Y-127290000D01*
X139210000Y-127290000D01*
X139210000Y-109032928D01*
X139339112Y-109344632D01*
X139730618Y-109589777D01*
X141570395Y-107750000D01*
X139730618Y-105910223D01*
X139339112Y-106155368D01*
X139210000Y-106471246D01*
X139210000Y-105730618D01*
X139910223Y-105730618D01*
X141750000Y-107570395D01*
X143589777Y-105730618D01*
X143344632Y-105339112D01*
X142300640Y-104912391D01*
X141172819Y-104917670D01*
X140155368Y-105339112D01*
X139910223Y-105730618D01*
X139210000Y-105730618D01*
X139210000Y-94960000D01*
X158012121Y-94960000D01*
X157908941Y-95028943D01*
G36*
X157870000Y-97205874D02*
X158027569Y-97586280D01*
X158318720Y-97877431D01*
X158699126Y-98035000D01*
X158754607Y-98035000D01*
X159411801Y-98692195D01*
X159411800Y-101874489D01*
X159372569Y-101913720D01*
X159215000Y-102294126D01*
X159215000Y-102705874D01*
X159372569Y-103086280D01*
X159663720Y-103377431D01*
X159678102Y-103383388D01*
X151093290Y-111968201D01*
X150285000Y-111968201D01*
X150285000Y-111794126D01*
X150127431Y-111413720D01*
X149836280Y-111122569D01*
X149455874Y-110965000D01*
X149256709Y-110965000D01*
X149236600Y-110944891D01*
X149236600Y-106227111D01*
X149377431Y-106086280D01*
X149535000Y-105705874D01*
X149535000Y-105506709D01*
X151465000Y-103576709D01*
X151465000Y-103955874D01*
X151622569Y-104336280D01*
X151763401Y-104477112D01*
X151763400Y-105022889D01*
X151622569Y-105163720D01*
X151465000Y-105544126D01*
X151465000Y-105955874D01*
X151622569Y-106336280D01*
X151913720Y-106627431D01*
X152294126Y-106785000D01*
X152705874Y-106785000D01*
X153086280Y-106627431D01*
X153377431Y-106336280D01*
X153535000Y-105955874D01*
X153535000Y-105544126D01*
X153377431Y-105163720D01*
X153236600Y-105022889D01*
X153236600Y-104477111D01*
X153377431Y-104336280D01*
X153535000Y-103955874D01*
X153535000Y-103544126D01*
X153377431Y-103163720D01*
X153086280Y-102872569D01*
X152705874Y-102715000D01*
X152326709Y-102715000D01*
X154840134Y-100201575D01*
X154872569Y-100279880D01*
X155013401Y-100420712D01*
X155013400Y-103677460D01*
X154998971Y-103750000D01*
X155013400Y-103822540D01*
X155013400Y-103822543D01*
X155056139Y-104037406D01*
X155218942Y-104281058D01*
X155280442Y-104322151D01*
X155465000Y-104506709D01*
X155465000Y-104705874D01*
X155622569Y-105086280D01*
X155913720Y-105377431D01*
X156294126Y-105535000D01*
X156705874Y-105535000D01*
X157086280Y-105377431D01*
X157377431Y-105086280D01*
X157535000Y-104705874D01*
X157535000Y-104294126D01*
X157377431Y-103913720D01*
X157086280Y-103622569D01*
X156705874Y-103465000D01*
X156506709Y-103465000D01*
X156486600Y-103444891D01*
X156486600Y-100420711D01*
X156627431Y-100279880D01*
X156785000Y-99899474D01*
X156785000Y-99487726D01*
X156627431Y-99107320D01*
X156336280Y-98816169D01*
X156257975Y-98783734D01*
X157870000Y-97171709D01*
X157870000Y-97205874D01*
X157870000Y-97205874D01*
G37*
X157870000Y-97205874D02*
X158027569Y-97586280D01*
X158318720Y-97877431D01*
X158699126Y-98035000D01*
X158754607Y-98035000D01*
X159411801Y-98692195D01*
X159411800Y-101874489D01*
X159372569Y-101913720D01*
X159215000Y-102294126D01*
X159215000Y-102705874D01*
X159372569Y-103086280D01*
X159663720Y-103377431D01*
X159678102Y-103383388D01*
X151093290Y-111968201D01*
X150285000Y-111968201D01*
X150285000Y-111794126D01*
X150127431Y-111413720D01*
X149836280Y-111122569D01*
X149455874Y-110965000D01*
X149256709Y-110965000D01*
X149236600Y-110944891D01*
X149236600Y-106227111D01*
X149377431Y-106086280D01*
X149535000Y-105705874D01*
X149535000Y-105506709D01*
X151465000Y-103576709D01*
X151465000Y-103955874D01*
X151622569Y-104336280D01*
X151763401Y-104477112D01*
X151763400Y-105022889D01*
X151622569Y-105163720D01*
X151465000Y-105544126D01*
X151465000Y-105955874D01*
X151622569Y-106336280D01*
X151913720Y-106627431D01*
X152294126Y-106785000D01*
X152705874Y-106785000D01*
X153086280Y-106627431D01*
X153377431Y-106336280D01*
X153535000Y-105955874D01*
X153535000Y-105544126D01*
X153377431Y-105163720D01*
X153236600Y-105022889D01*
X153236600Y-104477111D01*
X153377431Y-104336280D01*
X153535000Y-103955874D01*
X153535000Y-103544126D01*
X153377431Y-103163720D01*
X153086280Y-102872569D01*
X152705874Y-102715000D01*
X152326709Y-102715000D01*
X154840134Y-100201575D01*
X154872569Y-100279880D01*
X155013401Y-100420712D01*
X155013400Y-103677460D01*
X154998971Y-103750000D01*
X155013400Y-103822540D01*
X155013400Y-103822543D01*
X155056139Y-104037406D01*
X155218942Y-104281058D01*
X155280442Y-104322151D01*
X155465000Y-104506709D01*
X155465000Y-104705874D01*
X155622569Y-105086280D01*
X155913720Y-105377431D01*
X156294126Y-105535000D01*
X156705874Y-105535000D01*
X157086280Y-105377431D01*
X157377431Y-105086280D01*
X157535000Y-104705874D01*
X157535000Y-104294126D01*
X157377431Y-103913720D01*
X157086280Y-103622569D01*
X156705874Y-103465000D01*
X156506709Y-103465000D01*
X156486600Y-103444891D01*
X156486600Y-100420711D01*
X156627431Y-100279880D01*
X156785000Y-99899474D01*
X156785000Y-99487726D01*
X156627431Y-99107320D01*
X156336280Y-98816169D01*
X156257975Y-98783734D01*
X157870000Y-97171709D01*
X157870000Y-97205874D01*
G04 #@! TD*
M02*
