G04 #@! TF.GenerationSoftware,KiCad,Pcbnew,5.0.2-bee76a0~70~ubuntu18.04.1*
G04 #@! TF.CreationDate,2019-12-05T19:09:47+01:00*
G04 #@! TF.ProjectId,magneto_bot_shield,6d61676e-6574-46f5-9f62-6f745f736869,rev?*
G04 #@! TF.SameCoordinates,Original*
G04 #@! TF.FileFunction,Copper,L1,Top*
G04 #@! TF.FilePolarity,Positive*
%FSLAX46Y46*%
G04 Gerber Fmt 4.6, Leading zero omitted, Abs format (unit mm)*
G04 Created by KiCad (PCBNEW 5.0.2-bee76a0~70~ubuntu18.04.1) date Thu 05 Dec 2019 07:09:47 PM CET*
%MOMM*%
%LPD*%
G01*
G04 APERTURE LIST*
G04 #@! TA.AperFunction,Conductor*
%ADD10C,0.100000*%
G04 #@! TD*
G04 #@! TA.AperFunction,SMDPad,CuDef*
%ADD11C,0.590000*%
G04 #@! TD*
G04 #@! TA.AperFunction,SMDPad,CuDef*
%ADD12C,0.975000*%
G04 #@! TD*
G04 #@! TA.AperFunction,SMDPad,CuDef*
%ADD13R,2.000000X3.500000*%
G04 #@! TD*
G04 #@! TA.AperFunction,SMDPad,CuDef*
%ADD14R,2.000000X6.000000*%
G04 #@! TD*
G04 #@! TA.AperFunction,SMDPad,CuDef*
%ADD15R,3.500000X2.000000*%
G04 #@! TD*
G04 #@! TA.AperFunction,SMDPad,CuDef*
%ADD16R,6.000000X2.000000*%
G04 #@! TD*
G04 #@! TA.AperFunction,ComponentPad*
%ADD17C,1.800000*%
G04 #@! TD*
G04 #@! TA.AperFunction,ComponentPad*
%ADD18R,1.800000X1.800000*%
G04 #@! TD*
G04 #@! TA.AperFunction,SMDPad,CuDef*
%ADD19R,1.180000X4.700000*%
G04 #@! TD*
G04 #@! TA.AperFunction,SMDPad,CuDef*
%ADD20O,0.750000X0.300000*%
G04 #@! TD*
G04 #@! TA.AperFunction,SMDPad,CuDef*
%ADD21O,0.300000X0.750000*%
G04 #@! TD*
G04 #@! TA.AperFunction,SMDPad,CuDef*
%ADD22R,0.900000X0.900000*%
G04 #@! TD*
G04 #@! TA.AperFunction,SMDPad,CuDef*
%ADD23R,0.430000X0.370000*%
G04 #@! TD*
G04 #@! TA.AperFunction,SMDPad,CuDef*
%ADD24R,0.580000X0.400000*%
G04 #@! TD*
G04 #@! TA.AperFunction,SMDPad,CuDef*
%ADD25R,2.225000X1.205000*%
G04 #@! TD*
G04 #@! TA.AperFunction,ComponentPad*
%ADD26C,4.400000*%
G04 #@! TD*
G04 #@! TA.AperFunction,ViaPad*
%ADD27C,0.800000*%
G04 #@! TD*
G04 #@! TA.AperFunction,Conductor*
%ADD28C,0.203200*%
G04 #@! TD*
G04 #@! TA.AperFunction,Conductor*
%ADD29C,0.406400*%
G04 #@! TD*
G04 #@! TA.AperFunction,Conductor*
%ADD30C,0.254000*%
G04 #@! TD*
G04 APERTURE END LIST*
D10*
G04 #@! TO.N,Net-(C1-Pad1)*
G04 #@! TO.C,C1*
G36*
X153426958Y-103430710D02*
X153441276Y-103432834D01*
X153455317Y-103436351D01*
X153468946Y-103441228D01*
X153482031Y-103447417D01*
X153494447Y-103454858D01*
X153506073Y-103463481D01*
X153516798Y-103473202D01*
X153526519Y-103483927D01*
X153535142Y-103495553D01*
X153542583Y-103507969D01*
X153548772Y-103521054D01*
X153553649Y-103534683D01*
X153557166Y-103548724D01*
X153559290Y-103563042D01*
X153560000Y-103577500D01*
X153560000Y-103922500D01*
X153559290Y-103936958D01*
X153557166Y-103951276D01*
X153553649Y-103965317D01*
X153548772Y-103978946D01*
X153542583Y-103992031D01*
X153535142Y-104004447D01*
X153526519Y-104016073D01*
X153516798Y-104026798D01*
X153506073Y-104036519D01*
X153494447Y-104045142D01*
X153482031Y-104052583D01*
X153468946Y-104058772D01*
X153455317Y-104063649D01*
X153441276Y-104067166D01*
X153426958Y-104069290D01*
X153412500Y-104070000D01*
X153117500Y-104070000D01*
X153103042Y-104069290D01*
X153088724Y-104067166D01*
X153074683Y-104063649D01*
X153061054Y-104058772D01*
X153047969Y-104052583D01*
X153035553Y-104045142D01*
X153023927Y-104036519D01*
X153013202Y-104026798D01*
X153003481Y-104016073D01*
X152994858Y-104004447D01*
X152987417Y-103992031D01*
X152981228Y-103978946D01*
X152976351Y-103965317D01*
X152972834Y-103951276D01*
X152970710Y-103936958D01*
X152970000Y-103922500D01*
X152970000Y-103577500D01*
X152970710Y-103563042D01*
X152972834Y-103548724D01*
X152976351Y-103534683D01*
X152981228Y-103521054D01*
X152987417Y-103507969D01*
X152994858Y-103495553D01*
X153003481Y-103483927D01*
X153013202Y-103473202D01*
X153023927Y-103463481D01*
X153035553Y-103454858D01*
X153047969Y-103447417D01*
X153061054Y-103441228D01*
X153074683Y-103436351D01*
X153088724Y-103432834D01*
X153103042Y-103430710D01*
X153117500Y-103430000D01*
X153412500Y-103430000D01*
X153426958Y-103430710D01*
X153426958Y-103430710D01*
G37*
D11*
G04 #@! TD*
G04 #@! TO.P,C1,1*
G04 #@! TO.N,Net-(C1-Pad1)*
X153265000Y-103750000D03*
D10*
G04 #@! TO.N,GND*
G04 #@! TO.C,C1*
G36*
X154396958Y-103430710D02*
X154411276Y-103432834D01*
X154425317Y-103436351D01*
X154438946Y-103441228D01*
X154452031Y-103447417D01*
X154464447Y-103454858D01*
X154476073Y-103463481D01*
X154486798Y-103473202D01*
X154496519Y-103483927D01*
X154505142Y-103495553D01*
X154512583Y-103507969D01*
X154518772Y-103521054D01*
X154523649Y-103534683D01*
X154527166Y-103548724D01*
X154529290Y-103563042D01*
X154530000Y-103577500D01*
X154530000Y-103922500D01*
X154529290Y-103936958D01*
X154527166Y-103951276D01*
X154523649Y-103965317D01*
X154518772Y-103978946D01*
X154512583Y-103992031D01*
X154505142Y-104004447D01*
X154496519Y-104016073D01*
X154486798Y-104026798D01*
X154476073Y-104036519D01*
X154464447Y-104045142D01*
X154452031Y-104052583D01*
X154438946Y-104058772D01*
X154425317Y-104063649D01*
X154411276Y-104067166D01*
X154396958Y-104069290D01*
X154382500Y-104070000D01*
X154087500Y-104070000D01*
X154073042Y-104069290D01*
X154058724Y-104067166D01*
X154044683Y-104063649D01*
X154031054Y-104058772D01*
X154017969Y-104052583D01*
X154005553Y-104045142D01*
X153993927Y-104036519D01*
X153983202Y-104026798D01*
X153973481Y-104016073D01*
X153964858Y-104004447D01*
X153957417Y-103992031D01*
X153951228Y-103978946D01*
X153946351Y-103965317D01*
X153942834Y-103951276D01*
X153940710Y-103936958D01*
X153940000Y-103922500D01*
X153940000Y-103577500D01*
X153940710Y-103563042D01*
X153942834Y-103548724D01*
X153946351Y-103534683D01*
X153951228Y-103521054D01*
X153957417Y-103507969D01*
X153964858Y-103495553D01*
X153973481Y-103483927D01*
X153983202Y-103473202D01*
X153993927Y-103463481D01*
X154005553Y-103454858D01*
X154017969Y-103447417D01*
X154031054Y-103441228D01*
X154044683Y-103436351D01*
X154058724Y-103432834D01*
X154073042Y-103430710D01*
X154087500Y-103430000D01*
X154382500Y-103430000D01*
X154396958Y-103430710D01*
X154396958Y-103430710D01*
G37*
D11*
G04 #@! TD*
G04 #@! TO.P,C1,2*
G04 #@! TO.N,GND*
X154235000Y-103750000D03*
D10*
G04 #@! TO.N,GND*
G04 #@! TO.C,C2*
G36*
X151686958Y-105690710D02*
X151701276Y-105692834D01*
X151715317Y-105696351D01*
X151728946Y-105701228D01*
X151742031Y-105707417D01*
X151754447Y-105714858D01*
X151766073Y-105723481D01*
X151776798Y-105733202D01*
X151786519Y-105743927D01*
X151795142Y-105755553D01*
X151802583Y-105767969D01*
X151808772Y-105781054D01*
X151813649Y-105794683D01*
X151817166Y-105808724D01*
X151819290Y-105823042D01*
X151820000Y-105837500D01*
X151820000Y-106132500D01*
X151819290Y-106146958D01*
X151817166Y-106161276D01*
X151813649Y-106175317D01*
X151808772Y-106188946D01*
X151802583Y-106202031D01*
X151795142Y-106214447D01*
X151786519Y-106226073D01*
X151776798Y-106236798D01*
X151766073Y-106246519D01*
X151754447Y-106255142D01*
X151742031Y-106262583D01*
X151728946Y-106268772D01*
X151715317Y-106273649D01*
X151701276Y-106277166D01*
X151686958Y-106279290D01*
X151672500Y-106280000D01*
X151327500Y-106280000D01*
X151313042Y-106279290D01*
X151298724Y-106277166D01*
X151284683Y-106273649D01*
X151271054Y-106268772D01*
X151257969Y-106262583D01*
X151245553Y-106255142D01*
X151233927Y-106246519D01*
X151223202Y-106236798D01*
X151213481Y-106226073D01*
X151204858Y-106214447D01*
X151197417Y-106202031D01*
X151191228Y-106188946D01*
X151186351Y-106175317D01*
X151182834Y-106161276D01*
X151180710Y-106146958D01*
X151180000Y-106132500D01*
X151180000Y-105837500D01*
X151180710Y-105823042D01*
X151182834Y-105808724D01*
X151186351Y-105794683D01*
X151191228Y-105781054D01*
X151197417Y-105767969D01*
X151204858Y-105755553D01*
X151213481Y-105743927D01*
X151223202Y-105733202D01*
X151233927Y-105723481D01*
X151245553Y-105714858D01*
X151257969Y-105707417D01*
X151271054Y-105701228D01*
X151284683Y-105696351D01*
X151298724Y-105692834D01*
X151313042Y-105690710D01*
X151327500Y-105690000D01*
X151672500Y-105690000D01*
X151686958Y-105690710D01*
X151686958Y-105690710D01*
G37*
D11*
G04 #@! TD*
G04 #@! TO.P,C2,2*
G04 #@! TO.N,GND*
X151500000Y-105985000D03*
D10*
G04 #@! TO.N,+36V*
G04 #@! TO.C,C2*
G36*
X151686958Y-104720710D02*
X151701276Y-104722834D01*
X151715317Y-104726351D01*
X151728946Y-104731228D01*
X151742031Y-104737417D01*
X151754447Y-104744858D01*
X151766073Y-104753481D01*
X151776798Y-104763202D01*
X151786519Y-104773927D01*
X151795142Y-104785553D01*
X151802583Y-104797969D01*
X151808772Y-104811054D01*
X151813649Y-104824683D01*
X151817166Y-104838724D01*
X151819290Y-104853042D01*
X151820000Y-104867500D01*
X151820000Y-105162500D01*
X151819290Y-105176958D01*
X151817166Y-105191276D01*
X151813649Y-105205317D01*
X151808772Y-105218946D01*
X151802583Y-105232031D01*
X151795142Y-105244447D01*
X151786519Y-105256073D01*
X151776798Y-105266798D01*
X151766073Y-105276519D01*
X151754447Y-105285142D01*
X151742031Y-105292583D01*
X151728946Y-105298772D01*
X151715317Y-105303649D01*
X151701276Y-105307166D01*
X151686958Y-105309290D01*
X151672500Y-105310000D01*
X151327500Y-105310000D01*
X151313042Y-105309290D01*
X151298724Y-105307166D01*
X151284683Y-105303649D01*
X151271054Y-105298772D01*
X151257969Y-105292583D01*
X151245553Y-105285142D01*
X151233927Y-105276519D01*
X151223202Y-105266798D01*
X151213481Y-105256073D01*
X151204858Y-105244447D01*
X151197417Y-105232031D01*
X151191228Y-105218946D01*
X151186351Y-105205317D01*
X151182834Y-105191276D01*
X151180710Y-105176958D01*
X151180000Y-105162500D01*
X151180000Y-104867500D01*
X151180710Y-104853042D01*
X151182834Y-104838724D01*
X151186351Y-104824683D01*
X151191228Y-104811054D01*
X151197417Y-104797969D01*
X151204858Y-104785553D01*
X151213481Y-104773927D01*
X151223202Y-104763202D01*
X151233927Y-104753481D01*
X151245553Y-104744858D01*
X151257969Y-104737417D01*
X151271054Y-104731228D01*
X151284683Y-104726351D01*
X151298724Y-104722834D01*
X151313042Y-104720710D01*
X151327500Y-104720000D01*
X151672500Y-104720000D01*
X151686958Y-104720710D01*
X151686958Y-104720710D01*
G37*
D11*
G04 #@! TD*
G04 #@! TO.P,C2,1*
G04 #@! TO.N,+36V*
X151500000Y-105015000D03*
D10*
G04 #@! TO.N,GND*
G04 #@! TO.C,C3*
G36*
X151686958Y-106970710D02*
X151701276Y-106972834D01*
X151715317Y-106976351D01*
X151728946Y-106981228D01*
X151742031Y-106987417D01*
X151754447Y-106994858D01*
X151766073Y-107003481D01*
X151776798Y-107013202D01*
X151786519Y-107023927D01*
X151795142Y-107035553D01*
X151802583Y-107047969D01*
X151808772Y-107061054D01*
X151813649Y-107074683D01*
X151817166Y-107088724D01*
X151819290Y-107103042D01*
X151820000Y-107117500D01*
X151820000Y-107412500D01*
X151819290Y-107426958D01*
X151817166Y-107441276D01*
X151813649Y-107455317D01*
X151808772Y-107468946D01*
X151802583Y-107482031D01*
X151795142Y-107494447D01*
X151786519Y-107506073D01*
X151776798Y-107516798D01*
X151766073Y-107526519D01*
X151754447Y-107535142D01*
X151742031Y-107542583D01*
X151728946Y-107548772D01*
X151715317Y-107553649D01*
X151701276Y-107557166D01*
X151686958Y-107559290D01*
X151672500Y-107560000D01*
X151327500Y-107560000D01*
X151313042Y-107559290D01*
X151298724Y-107557166D01*
X151284683Y-107553649D01*
X151271054Y-107548772D01*
X151257969Y-107542583D01*
X151245553Y-107535142D01*
X151233927Y-107526519D01*
X151223202Y-107516798D01*
X151213481Y-107506073D01*
X151204858Y-107494447D01*
X151197417Y-107482031D01*
X151191228Y-107468946D01*
X151186351Y-107455317D01*
X151182834Y-107441276D01*
X151180710Y-107426958D01*
X151180000Y-107412500D01*
X151180000Y-107117500D01*
X151180710Y-107103042D01*
X151182834Y-107088724D01*
X151186351Y-107074683D01*
X151191228Y-107061054D01*
X151197417Y-107047969D01*
X151204858Y-107035553D01*
X151213481Y-107023927D01*
X151223202Y-107013202D01*
X151233927Y-107003481D01*
X151245553Y-106994858D01*
X151257969Y-106987417D01*
X151271054Y-106981228D01*
X151284683Y-106976351D01*
X151298724Y-106972834D01*
X151313042Y-106970710D01*
X151327500Y-106970000D01*
X151672500Y-106970000D01*
X151686958Y-106970710D01*
X151686958Y-106970710D01*
G37*
D11*
G04 #@! TD*
G04 #@! TO.P,C3,2*
G04 #@! TO.N,GND*
X151500000Y-107265000D03*
D10*
G04 #@! TO.N,Net-(C3-Pad1)*
G04 #@! TO.C,C3*
G36*
X151686958Y-107940710D02*
X151701276Y-107942834D01*
X151715317Y-107946351D01*
X151728946Y-107951228D01*
X151742031Y-107957417D01*
X151754447Y-107964858D01*
X151766073Y-107973481D01*
X151776798Y-107983202D01*
X151786519Y-107993927D01*
X151795142Y-108005553D01*
X151802583Y-108017969D01*
X151808772Y-108031054D01*
X151813649Y-108044683D01*
X151817166Y-108058724D01*
X151819290Y-108073042D01*
X151820000Y-108087500D01*
X151820000Y-108382500D01*
X151819290Y-108396958D01*
X151817166Y-108411276D01*
X151813649Y-108425317D01*
X151808772Y-108438946D01*
X151802583Y-108452031D01*
X151795142Y-108464447D01*
X151786519Y-108476073D01*
X151776798Y-108486798D01*
X151766073Y-108496519D01*
X151754447Y-108505142D01*
X151742031Y-108512583D01*
X151728946Y-108518772D01*
X151715317Y-108523649D01*
X151701276Y-108527166D01*
X151686958Y-108529290D01*
X151672500Y-108530000D01*
X151327500Y-108530000D01*
X151313042Y-108529290D01*
X151298724Y-108527166D01*
X151284683Y-108523649D01*
X151271054Y-108518772D01*
X151257969Y-108512583D01*
X151245553Y-108505142D01*
X151233927Y-108496519D01*
X151223202Y-108486798D01*
X151213481Y-108476073D01*
X151204858Y-108464447D01*
X151197417Y-108452031D01*
X151191228Y-108438946D01*
X151186351Y-108425317D01*
X151182834Y-108411276D01*
X151180710Y-108396958D01*
X151180000Y-108382500D01*
X151180000Y-108087500D01*
X151180710Y-108073042D01*
X151182834Y-108058724D01*
X151186351Y-108044683D01*
X151191228Y-108031054D01*
X151197417Y-108017969D01*
X151204858Y-108005553D01*
X151213481Y-107993927D01*
X151223202Y-107983202D01*
X151233927Y-107973481D01*
X151245553Y-107964858D01*
X151257969Y-107957417D01*
X151271054Y-107951228D01*
X151284683Y-107946351D01*
X151298724Y-107942834D01*
X151313042Y-107940710D01*
X151327500Y-107940000D01*
X151672500Y-107940000D01*
X151686958Y-107940710D01*
X151686958Y-107940710D01*
G37*
D11*
G04 #@! TD*
G04 #@! TO.P,C3,1*
G04 #@! TO.N,Net-(C3-Pad1)*
X151500000Y-108235000D03*
D10*
G04 #@! TO.N,Net-(C4-Pad1)*
G04 #@! TO.C,C4*
G36*
X158436958Y-105970710D02*
X158451276Y-105972834D01*
X158465317Y-105976351D01*
X158478946Y-105981228D01*
X158492031Y-105987417D01*
X158504447Y-105994858D01*
X158516073Y-106003481D01*
X158526798Y-106013202D01*
X158536519Y-106023927D01*
X158545142Y-106035553D01*
X158552583Y-106047969D01*
X158558772Y-106061054D01*
X158563649Y-106074683D01*
X158567166Y-106088724D01*
X158569290Y-106103042D01*
X158570000Y-106117500D01*
X158570000Y-106412500D01*
X158569290Y-106426958D01*
X158567166Y-106441276D01*
X158563649Y-106455317D01*
X158558772Y-106468946D01*
X158552583Y-106482031D01*
X158545142Y-106494447D01*
X158536519Y-106506073D01*
X158526798Y-106516798D01*
X158516073Y-106526519D01*
X158504447Y-106535142D01*
X158492031Y-106542583D01*
X158478946Y-106548772D01*
X158465317Y-106553649D01*
X158451276Y-106557166D01*
X158436958Y-106559290D01*
X158422500Y-106560000D01*
X158077500Y-106560000D01*
X158063042Y-106559290D01*
X158048724Y-106557166D01*
X158034683Y-106553649D01*
X158021054Y-106548772D01*
X158007969Y-106542583D01*
X157995553Y-106535142D01*
X157983927Y-106526519D01*
X157973202Y-106516798D01*
X157963481Y-106506073D01*
X157954858Y-106494447D01*
X157947417Y-106482031D01*
X157941228Y-106468946D01*
X157936351Y-106455317D01*
X157932834Y-106441276D01*
X157930710Y-106426958D01*
X157930000Y-106412500D01*
X157930000Y-106117500D01*
X157930710Y-106103042D01*
X157932834Y-106088724D01*
X157936351Y-106074683D01*
X157941228Y-106061054D01*
X157947417Y-106047969D01*
X157954858Y-106035553D01*
X157963481Y-106023927D01*
X157973202Y-106013202D01*
X157983927Y-106003481D01*
X157995553Y-105994858D01*
X158007969Y-105987417D01*
X158021054Y-105981228D01*
X158034683Y-105976351D01*
X158048724Y-105972834D01*
X158063042Y-105970710D01*
X158077500Y-105970000D01*
X158422500Y-105970000D01*
X158436958Y-105970710D01*
X158436958Y-105970710D01*
G37*
D11*
G04 #@! TD*
G04 #@! TO.P,C4,1*
G04 #@! TO.N,Net-(C4-Pad1)*
X158250000Y-106265000D03*
D10*
G04 #@! TO.N,Net-(C4-Pad2)*
G04 #@! TO.C,C4*
G36*
X158436958Y-106940710D02*
X158451276Y-106942834D01*
X158465317Y-106946351D01*
X158478946Y-106951228D01*
X158492031Y-106957417D01*
X158504447Y-106964858D01*
X158516073Y-106973481D01*
X158526798Y-106983202D01*
X158536519Y-106993927D01*
X158545142Y-107005553D01*
X158552583Y-107017969D01*
X158558772Y-107031054D01*
X158563649Y-107044683D01*
X158567166Y-107058724D01*
X158569290Y-107073042D01*
X158570000Y-107087500D01*
X158570000Y-107382500D01*
X158569290Y-107396958D01*
X158567166Y-107411276D01*
X158563649Y-107425317D01*
X158558772Y-107438946D01*
X158552583Y-107452031D01*
X158545142Y-107464447D01*
X158536519Y-107476073D01*
X158526798Y-107486798D01*
X158516073Y-107496519D01*
X158504447Y-107505142D01*
X158492031Y-107512583D01*
X158478946Y-107518772D01*
X158465317Y-107523649D01*
X158451276Y-107527166D01*
X158436958Y-107529290D01*
X158422500Y-107530000D01*
X158077500Y-107530000D01*
X158063042Y-107529290D01*
X158048724Y-107527166D01*
X158034683Y-107523649D01*
X158021054Y-107518772D01*
X158007969Y-107512583D01*
X157995553Y-107505142D01*
X157983927Y-107496519D01*
X157973202Y-107486798D01*
X157963481Y-107476073D01*
X157954858Y-107464447D01*
X157947417Y-107452031D01*
X157941228Y-107438946D01*
X157936351Y-107425317D01*
X157932834Y-107411276D01*
X157930710Y-107396958D01*
X157930000Y-107382500D01*
X157930000Y-107087500D01*
X157930710Y-107073042D01*
X157932834Y-107058724D01*
X157936351Y-107044683D01*
X157941228Y-107031054D01*
X157947417Y-107017969D01*
X157954858Y-107005553D01*
X157963481Y-106993927D01*
X157973202Y-106983202D01*
X157983927Y-106973481D01*
X157995553Y-106964858D01*
X158007969Y-106957417D01*
X158021054Y-106951228D01*
X158034683Y-106946351D01*
X158048724Y-106942834D01*
X158063042Y-106940710D01*
X158077500Y-106940000D01*
X158422500Y-106940000D01*
X158436958Y-106940710D01*
X158436958Y-106940710D01*
G37*
D11*
G04 #@! TD*
G04 #@! TO.P,C4,2*
G04 #@! TO.N,Net-(C4-Pad2)*
X158250000Y-107235000D03*
D10*
G04 #@! TO.N,GND*
G04 #@! TO.C,C5*
G36*
X159230142Y-102076174D02*
X159253803Y-102079684D01*
X159277007Y-102085496D01*
X159299529Y-102093554D01*
X159321153Y-102103782D01*
X159341670Y-102116079D01*
X159360883Y-102130329D01*
X159378607Y-102146393D01*
X159394671Y-102164117D01*
X159408921Y-102183330D01*
X159421218Y-102203847D01*
X159431446Y-102225471D01*
X159439504Y-102247993D01*
X159445316Y-102271197D01*
X159448826Y-102294858D01*
X159450000Y-102318750D01*
X159450000Y-102806250D01*
X159448826Y-102830142D01*
X159445316Y-102853803D01*
X159439504Y-102877007D01*
X159431446Y-102899529D01*
X159421218Y-102921153D01*
X159408921Y-102941670D01*
X159394671Y-102960883D01*
X159378607Y-102978607D01*
X159360883Y-102994671D01*
X159341670Y-103008921D01*
X159321153Y-103021218D01*
X159299529Y-103031446D01*
X159277007Y-103039504D01*
X159253803Y-103045316D01*
X159230142Y-103048826D01*
X159206250Y-103050000D01*
X158293750Y-103050000D01*
X158269858Y-103048826D01*
X158246197Y-103045316D01*
X158222993Y-103039504D01*
X158200471Y-103031446D01*
X158178847Y-103021218D01*
X158158330Y-103008921D01*
X158139117Y-102994671D01*
X158121393Y-102978607D01*
X158105329Y-102960883D01*
X158091079Y-102941670D01*
X158078782Y-102921153D01*
X158068554Y-102899529D01*
X158060496Y-102877007D01*
X158054684Y-102853803D01*
X158051174Y-102830142D01*
X158050000Y-102806250D01*
X158050000Y-102318750D01*
X158051174Y-102294858D01*
X158054684Y-102271197D01*
X158060496Y-102247993D01*
X158068554Y-102225471D01*
X158078782Y-102203847D01*
X158091079Y-102183330D01*
X158105329Y-102164117D01*
X158121393Y-102146393D01*
X158139117Y-102130329D01*
X158158330Y-102116079D01*
X158178847Y-102103782D01*
X158200471Y-102093554D01*
X158222993Y-102085496D01*
X158246197Y-102079684D01*
X158269858Y-102076174D01*
X158293750Y-102075000D01*
X159206250Y-102075000D01*
X159230142Y-102076174D01*
X159230142Y-102076174D01*
G37*
D12*
G04 #@! TD*
G04 #@! TO.P,C5,1*
G04 #@! TO.N,GND*
X158750000Y-102562500D03*
D10*
G04 #@! TO.N,+5V*
G04 #@! TO.C,C5*
G36*
X159230142Y-103951174D02*
X159253803Y-103954684D01*
X159277007Y-103960496D01*
X159299529Y-103968554D01*
X159321153Y-103978782D01*
X159341670Y-103991079D01*
X159360883Y-104005329D01*
X159378607Y-104021393D01*
X159394671Y-104039117D01*
X159408921Y-104058330D01*
X159421218Y-104078847D01*
X159431446Y-104100471D01*
X159439504Y-104122993D01*
X159445316Y-104146197D01*
X159448826Y-104169858D01*
X159450000Y-104193750D01*
X159450000Y-104681250D01*
X159448826Y-104705142D01*
X159445316Y-104728803D01*
X159439504Y-104752007D01*
X159431446Y-104774529D01*
X159421218Y-104796153D01*
X159408921Y-104816670D01*
X159394671Y-104835883D01*
X159378607Y-104853607D01*
X159360883Y-104869671D01*
X159341670Y-104883921D01*
X159321153Y-104896218D01*
X159299529Y-104906446D01*
X159277007Y-104914504D01*
X159253803Y-104920316D01*
X159230142Y-104923826D01*
X159206250Y-104925000D01*
X158293750Y-104925000D01*
X158269858Y-104923826D01*
X158246197Y-104920316D01*
X158222993Y-104914504D01*
X158200471Y-104906446D01*
X158178847Y-104896218D01*
X158158330Y-104883921D01*
X158139117Y-104869671D01*
X158121393Y-104853607D01*
X158105329Y-104835883D01*
X158091079Y-104816670D01*
X158078782Y-104796153D01*
X158068554Y-104774529D01*
X158060496Y-104752007D01*
X158054684Y-104728803D01*
X158051174Y-104705142D01*
X158050000Y-104681250D01*
X158050000Y-104193750D01*
X158051174Y-104169858D01*
X158054684Y-104146197D01*
X158060496Y-104122993D01*
X158068554Y-104100471D01*
X158078782Y-104078847D01*
X158091079Y-104058330D01*
X158105329Y-104039117D01*
X158121393Y-104021393D01*
X158139117Y-104005329D01*
X158158330Y-103991079D01*
X158178847Y-103978782D01*
X158200471Y-103968554D01*
X158222993Y-103960496D01*
X158246197Y-103954684D01*
X158269858Y-103951174D01*
X158293750Y-103950000D01*
X159206250Y-103950000D01*
X159230142Y-103951174D01*
X159230142Y-103951174D01*
G37*
D12*
G04 #@! TD*
G04 #@! TO.P,C5,2*
G04 #@! TO.N,+5V*
X158750000Y-104437500D03*
D10*
G04 #@! TO.N,Net-(D1-Pad1)*
G04 #@! TO.C,D1*
G36*
X181176958Y-111630710D02*
X181191276Y-111632834D01*
X181205317Y-111636351D01*
X181218946Y-111641228D01*
X181232031Y-111647417D01*
X181244447Y-111654858D01*
X181256073Y-111663481D01*
X181266798Y-111673202D01*
X181276519Y-111683927D01*
X181285142Y-111695553D01*
X181292583Y-111707969D01*
X181298772Y-111721054D01*
X181303649Y-111734683D01*
X181307166Y-111748724D01*
X181309290Y-111763042D01*
X181310000Y-111777500D01*
X181310000Y-112122500D01*
X181309290Y-112136958D01*
X181307166Y-112151276D01*
X181303649Y-112165317D01*
X181298772Y-112178946D01*
X181292583Y-112192031D01*
X181285142Y-112204447D01*
X181276519Y-112216073D01*
X181266798Y-112226798D01*
X181256073Y-112236519D01*
X181244447Y-112245142D01*
X181232031Y-112252583D01*
X181218946Y-112258772D01*
X181205317Y-112263649D01*
X181191276Y-112267166D01*
X181176958Y-112269290D01*
X181162500Y-112270000D01*
X180867500Y-112270000D01*
X180853042Y-112269290D01*
X180838724Y-112267166D01*
X180824683Y-112263649D01*
X180811054Y-112258772D01*
X180797969Y-112252583D01*
X180785553Y-112245142D01*
X180773927Y-112236519D01*
X180763202Y-112226798D01*
X180753481Y-112216073D01*
X180744858Y-112204447D01*
X180737417Y-112192031D01*
X180731228Y-112178946D01*
X180726351Y-112165317D01*
X180722834Y-112151276D01*
X180720710Y-112136958D01*
X180720000Y-112122500D01*
X180720000Y-111777500D01*
X180720710Y-111763042D01*
X180722834Y-111748724D01*
X180726351Y-111734683D01*
X180731228Y-111721054D01*
X180737417Y-111707969D01*
X180744858Y-111695553D01*
X180753481Y-111683927D01*
X180763202Y-111673202D01*
X180773927Y-111663481D01*
X180785553Y-111654858D01*
X180797969Y-111647417D01*
X180811054Y-111641228D01*
X180824683Y-111636351D01*
X180838724Y-111632834D01*
X180853042Y-111630710D01*
X180867500Y-111630000D01*
X181162500Y-111630000D01*
X181176958Y-111630710D01*
X181176958Y-111630710D01*
G37*
D11*
G04 #@! TD*
G04 #@! TO.P,D1,1*
G04 #@! TO.N,Net-(D1-Pad1)*
X181015000Y-111950000D03*
D10*
G04 #@! TO.N,GATE5*
G04 #@! TO.C,D1*
G36*
X182146958Y-111630710D02*
X182161276Y-111632834D01*
X182175317Y-111636351D01*
X182188946Y-111641228D01*
X182202031Y-111647417D01*
X182214447Y-111654858D01*
X182226073Y-111663481D01*
X182236798Y-111673202D01*
X182246519Y-111683927D01*
X182255142Y-111695553D01*
X182262583Y-111707969D01*
X182268772Y-111721054D01*
X182273649Y-111734683D01*
X182277166Y-111748724D01*
X182279290Y-111763042D01*
X182280000Y-111777500D01*
X182280000Y-112122500D01*
X182279290Y-112136958D01*
X182277166Y-112151276D01*
X182273649Y-112165317D01*
X182268772Y-112178946D01*
X182262583Y-112192031D01*
X182255142Y-112204447D01*
X182246519Y-112216073D01*
X182236798Y-112226798D01*
X182226073Y-112236519D01*
X182214447Y-112245142D01*
X182202031Y-112252583D01*
X182188946Y-112258772D01*
X182175317Y-112263649D01*
X182161276Y-112267166D01*
X182146958Y-112269290D01*
X182132500Y-112270000D01*
X181837500Y-112270000D01*
X181823042Y-112269290D01*
X181808724Y-112267166D01*
X181794683Y-112263649D01*
X181781054Y-112258772D01*
X181767969Y-112252583D01*
X181755553Y-112245142D01*
X181743927Y-112236519D01*
X181733202Y-112226798D01*
X181723481Y-112216073D01*
X181714858Y-112204447D01*
X181707417Y-112192031D01*
X181701228Y-112178946D01*
X181696351Y-112165317D01*
X181692834Y-112151276D01*
X181690710Y-112136958D01*
X181690000Y-112122500D01*
X181690000Y-111777500D01*
X181690710Y-111763042D01*
X181692834Y-111748724D01*
X181696351Y-111734683D01*
X181701228Y-111721054D01*
X181707417Y-111707969D01*
X181714858Y-111695553D01*
X181723481Y-111683927D01*
X181733202Y-111673202D01*
X181743927Y-111663481D01*
X181755553Y-111654858D01*
X181767969Y-111647417D01*
X181781054Y-111641228D01*
X181794683Y-111636351D01*
X181808724Y-111632834D01*
X181823042Y-111630710D01*
X181837500Y-111630000D01*
X182132500Y-111630000D01*
X182146958Y-111630710D01*
X182146958Y-111630710D01*
G37*
D11*
G04 #@! TD*
G04 #@! TO.P,D1,2*
G04 #@! TO.N,GATE5*
X181985000Y-111950000D03*
D10*
G04 #@! TO.N,GATE4*
G04 #@! TO.C,D2*
G36*
X173646958Y-111680710D02*
X173661276Y-111682834D01*
X173675317Y-111686351D01*
X173688946Y-111691228D01*
X173702031Y-111697417D01*
X173714447Y-111704858D01*
X173726073Y-111713481D01*
X173736798Y-111723202D01*
X173746519Y-111733927D01*
X173755142Y-111745553D01*
X173762583Y-111757969D01*
X173768772Y-111771054D01*
X173773649Y-111784683D01*
X173777166Y-111798724D01*
X173779290Y-111813042D01*
X173780000Y-111827500D01*
X173780000Y-112172500D01*
X173779290Y-112186958D01*
X173777166Y-112201276D01*
X173773649Y-112215317D01*
X173768772Y-112228946D01*
X173762583Y-112242031D01*
X173755142Y-112254447D01*
X173746519Y-112266073D01*
X173736798Y-112276798D01*
X173726073Y-112286519D01*
X173714447Y-112295142D01*
X173702031Y-112302583D01*
X173688946Y-112308772D01*
X173675317Y-112313649D01*
X173661276Y-112317166D01*
X173646958Y-112319290D01*
X173632500Y-112320000D01*
X173337500Y-112320000D01*
X173323042Y-112319290D01*
X173308724Y-112317166D01*
X173294683Y-112313649D01*
X173281054Y-112308772D01*
X173267969Y-112302583D01*
X173255553Y-112295142D01*
X173243927Y-112286519D01*
X173233202Y-112276798D01*
X173223481Y-112266073D01*
X173214858Y-112254447D01*
X173207417Y-112242031D01*
X173201228Y-112228946D01*
X173196351Y-112215317D01*
X173192834Y-112201276D01*
X173190710Y-112186958D01*
X173190000Y-112172500D01*
X173190000Y-111827500D01*
X173190710Y-111813042D01*
X173192834Y-111798724D01*
X173196351Y-111784683D01*
X173201228Y-111771054D01*
X173207417Y-111757969D01*
X173214858Y-111745553D01*
X173223481Y-111733927D01*
X173233202Y-111723202D01*
X173243927Y-111713481D01*
X173255553Y-111704858D01*
X173267969Y-111697417D01*
X173281054Y-111691228D01*
X173294683Y-111686351D01*
X173308724Y-111682834D01*
X173323042Y-111680710D01*
X173337500Y-111680000D01*
X173632500Y-111680000D01*
X173646958Y-111680710D01*
X173646958Y-111680710D01*
G37*
D11*
G04 #@! TD*
G04 #@! TO.P,D2,2*
G04 #@! TO.N,GATE4*
X173485000Y-112000000D03*
D10*
G04 #@! TO.N,Net-(D2-Pad1)*
G04 #@! TO.C,D2*
G36*
X172676958Y-111680710D02*
X172691276Y-111682834D01*
X172705317Y-111686351D01*
X172718946Y-111691228D01*
X172732031Y-111697417D01*
X172744447Y-111704858D01*
X172756073Y-111713481D01*
X172766798Y-111723202D01*
X172776519Y-111733927D01*
X172785142Y-111745553D01*
X172792583Y-111757969D01*
X172798772Y-111771054D01*
X172803649Y-111784683D01*
X172807166Y-111798724D01*
X172809290Y-111813042D01*
X172810000Y-111827500D01*
X172810000Y-112172500D01*
X172809290Y-112186958D01*
X172807166Y-112201276D01*
X172803649Y-112215317D01*
X172798772Y-112228946D01*
X172792583Y-112242031D01*
X172785142Y-112254447D01*
X172776519Y-112266073D01*
X172766798Y-112276798D01*
X172756073Y-112286519D01*
X172744447Y-112295142D01*
X172732031Y-112302583D01*
X172718946Y-112308772D01*
X172705317Y-112313649D01*
X172691276Y-112317166D01*
X172676958Y-112319290D01*
X172662500Y-112320000D01*
X172367500Y-112320000D01*
X172353042Y-112319290D01*
X172338724Y-112317166D01*
X172324683Y-112313649D01*
X172311054Y-112308772D01*
X172297969Y-112302583D01*
X172285553Y-112295142D01*
X172273927Y-112286519D01*
X172263202Y-112276798D01*
X172253481Y-112266073D01*
X172244858Y-112254447D01*
X172237417Y-112242031D01*
X172231228Y-112228946D01*
X172226351Y-112215317D01*
X172222834Y-112201276D01*
X172220710Y-112186958D01*
X172220000Y-112172500D01*
X172220000Y-111827500D01*
X172220710Y-111813042D01*
X172222834Y-111798724D01*
X172226351Y-111784683D01*
X172231228Y-111771054D01*
X172237417Y-111757969D01*
X172244858Y-111745553D01*
X172253481Y-111733927D01*
X172263202Y-111723202D01*
X172273927Y-111713481D01*
X172285553Y-111704858D01*
X172297969Y-111697417D01*
X172311054Y-111691228D01*
X172324683Y-111686351D01*
X172338724Y-111682834D01*
X172353042Y-111680710D01*
X172367500Y-111680000D01*
X172662500Y-111680000D01*
X172676958Y-111680710D01*
X172676958Y-111680710D01*
G37*
D11*
G04 #@! TD*
G04 #@! TO.P,D2,1*
G04 #@! TO.N,Net-(D2-Pad1)*
X172515000Y-112000000D03*
D10*
G04 #@! TO.N,Net-(D3-Pad1)*
G04 #@! TO.C,D3*
G36*
X164426958Y-111680710D02*
X164441276Y-111682834D01*
X164455317Y-111686351D01*
X164468946Y-111691228D01*
X164482031Y-111697417D01*
X164494447Y-111704858D01*
X164506073Y-111713481D01*
X164516798Y-111723202D01*
X164526519Y-111733927D01*
X164535142Y-111745553D01*
X164542583Y-111757969D01*
X164548772Y-111771054D01*
X164553649Y-111784683D01*
X164557166Y-111798724D01*
X164559290Y-111813042D01*
X164560000Y-111827500D01*
X164560000Y-112172500D01*
X164559290Y-112186958D01*
X164557166Y-112201276D01*
X164553649Y-112215317D01*
X164548772Y-112228946D01*
X164542583Y-112242031D01*
X164535142Y-112254447D01*
X164526519Y-112266073D01*
X164516798Y-112276798D01*
X164506073Y-112286519D01*
X164494447Y-112295142D01*
X164482031Y-112302583D01*
X164468946Y-112308772D01*
X164455317Y-112313649D01*
X164441276Y-112317166D01*
X164426958Y-112319290D01*
X164412500Y-112320000D01*
X164117500Y-112320000D01*
X164103042Y-112319290D01*
X164088724Y-112317166D01*
X164074683Y-112313649D01*
X164061054Y-112308772D01*
X164047969Y-112302583D01*
X164035553Y-112295142D01*
X164023927Y-112286519D01*
X164013202Y-112276798D01*
X164003481Y-112266073D01*
X163994858Y-112254447D01*
X163987417Y-112242031D01*
X163981228Y-112228946D01*
X163976351Y-112215317D01*
X163972834Y-112201276D01*
X163970710Y-112186958D01*
X163970000Y-112172500D01*
X163970000Y-111827500D01*
X163970710Y-111813042D01*
X163972834Y-111798724D01*
X163976351Y-111784683D01*
X163981228Y-111771054D01*
X163987417Y-111757969D01*
X163994858Y-111745553D01*
X164003481Y-111733927D01*
X164013202Y-111723202D01*
X164023927Y-111713481D01*
X164035553Y-111704858D01*
X164047969Y-111697417D01*
X164061054Y-111691228D01*
X164074683Y-111686351D01*
X164088724Y-111682834D01*
X164103042Y-111680710D01*
X164117500Y-111680000D01*
X164412500Y-111680000D01*
X164426958Y-111680710D01*
X164426958Y-111680710D01*
G37*
D11*
G04 #@! TD*
G04 #@! TO.P,D3,1*
G04 #@! TO.N,Net-(D3-Pad1)*
X164265000Y-112000000D03*
D10*
G04 #@! TO.N,GATE3*
G04 #@! TO.C,D3*
G36*
X165396958Y-111680710D02*
X165411276Y-111682834D01*
X165425317Y-111686351D01*
X165438946Y-111691228D01*
X165452031Y-111697417D01*
X165464447Y-111704858D01*
X165476073Y-111713481D01*
X165486798Y-111723202D01*
X165496519Y-111733927D01*
X165505142Y-111745553D01*
X165512583Y-111757969D01*
X165518772Y-111771054D01*
X165523649Y-111784683D01*
X165527166Y-111798724D01*
X165529290Y-111813042D01*
X165530000Y-111827500D01*
X165530000Y-112172500D01*
X165529290Y-112186958D01*
X165527166Y-112201276D01*
X165523649Y-112215317D01*
X165518772Y-112228946D01*
X165512583Y-112242031D01*
X165505142Y-112254447D01*
X165496519Y-112266073D01*
X165486798Y-112276798D01*
X165476073Y-112286519D01*
X165464447Y-112295142D01*
X165452031Y-112302583D01*
X165438946Y-112308772D01*
X165425317Y-112313649D01*
X165411276Y-112317166D01*
X165396958Y-112319290D01*
X165382500Y-112320000D01*
X165087500Y-112320000D01*
X165073042Y-112319290D01*
X165058724Y-112317166D01*
X165044683Y-112313649D01*
X165031054Y-112308772D01*
X165017969Y-112302583D01*
X165005553Y-112295142D01*
X164993927Y-112286519D01*
X164983202Y-112276798D01*
X164973481Y-112266073D01*
X164964858Y-112254447D01*
X164957417Y-112242031D01*
X164951228Y-112228946D01*
X164946351Y-112215317D01*
X164942834Y-112201276D01*
X164940710Y-112186958D01*
X164940000Y-112172500D01*
X164940000Y-111827500D01*
X164940710Y-111813042D01*
X164942834Y-111798724D01*
X164946351Y-111784683D01*
X164951228Y-111771054D01*
X164957417Y-111757969D01*
X164964858Y-111745553D01*
X164973481Y-111733927D01*
X164983202Y-111723202D01*
X164993927Y-111713481D01*
X165005553Y-111704858D01*
X165017969Y-111697417D01*
X165031054Y-111691228D01*
X165044683Y-111686351D01*
X165058724Y-111682834D01*
X165073042Y-111680710D01*
X165087500Y-111680000D01*
X165382500Y-111680000D01*
X165396958Y-111680710D01*
X165396958Y-111680710D01*
G37*
D11*
G04 #@! TD*
G04 #@! TO.P,D3,2*
G04 #@! TO.N,GATE3*
X165235000Y-112000000D03*
D10*
G04 #@! TO.N,GATE2*
G04 #@! TO.C,D4*
G36*
X156896958Y-111680710D02*
X156911276Y-111682834D01*
X156925317Y-111686351D01*
X156938946Y-111691228D01*
X156952031Y-111697417D01*
X156964447Y-111704858D01*
X156976073Y-111713481D01*
X156986798Y-111723202D01*
X156996519Y-111733927D01*
X157005142Y-111745553D01*
X157012583Y-111757969D01*
X157018772Y-111771054D01*
X157023649Y-111784683D01*
X157027166Y-111798724D01*
X157029290Y-111813042D01*
X157030000Y-111827500D01*
X157030000Y-112172500D01*
X157029290Y-112186958D01*
X157027166Y-112201276D01*
X157023649Y-112215317D01*
X157018772Y-112228946D01*
X157012583Y-112242031D01*
X157005142Y-112254447D01*
X156996519Y-112266073D01*
X156986798Y-112276798D01*
X156976073Y-112286519D01*
X156964447Y-112295142D01*
X156952031Y-112302583D01*
X156938946Y-112308772D01*
X156925317Y-112313649D01*
X156911276Y-112317166D01*
X156896958Y-112319290D01*
X156882500Y-112320000D01*
X156587500Y-112320000D01*
X156573042Y-112319290D01*
X156558724Y-112317166D01*
X156544683Y-112313649D01*
X156531054Y-112308772D01*
X156517969Y-112302583D01*
X156505553Y-112295142D01*
X156493927Y-112286519D01*
X156483202Y-112276798D01*
X156473481Y-112266073D01*
X156464858Y-112254447D01*
X156457417Y-112242031D01*
X156451228Y-112228946D01*
X156446351Y-112215317D01*
X156442834Y-112201276D01*
X156440710Y-112186958D01*
X156440000Y-112172500D01*
X156440000Y-111827500D01*
X156440710Y-111813042D01*
X156442834Y-111798724D01*
X156446351Y-111784683D01*
X156451228Y-111771054D01*
X156457417Y-111757969D01*
X156464858Y-111745553D01*
X156473481Y-111733927D01*
X156483202Y-111723202D01*
X156493927Y-111713481D01*
X156505553Y-111704858D01*
X156517969Y-111697417D01*
X156531054Y-111691228D01*
X156544683Y-111686351D01*
X156558724Y-111682834D01*
X156573042Y-111680710D01*
X156587500Y-111680000D01*
X156882500Y-111680000D01*
X156896958Y-111680710D01*
X156896958Y-111680710D01*
G37*
D11*
G04 #@! TD*
G04 #@! TO.P,D4,2*
G04 #@! TO.N,GATE2*
X156735000Y-112000000D03*
D10*
G04 #@! TO.N,Net-(D4-Pad1)*
G04 #@! TO.C,D4*
G36*
X155926958Y-111680710D02*
X155941276Y-111682834D01*
X155955317Y-111686351D01*
X155968946Y-111691228D01*
X155982031Y-111697417D01*
X155994447Y-111704858D01*
X156006073Y-111713481D01*
X156016798Y-111723202D01*
X156026519Y-111733927D01*
X156035142Y-111745553D01*
X156042583Y-111757969D01*
X156048772Y-111771054D01*
X156053649Y-111784683D01*
X156057166Y-111798724D01*
X156059290Y-111813042D01*
X156060000Y-111827500D01*
X156060000Y-112172500D01*
X156059290Y-112186958D01*
X156057166Y-112201276D01*
X156053649Y-112215317D01*
X156048772Y-112228946D01*
X156042583Y-112242031D01*
X156035142Y-112254447D01*
X156026519Y-112266073D01*
X156016798Y-112276798D01*
X156006073Y-112286519D01*
X155994447Y-112295142D01*
X155982031Y-112302583D01*
X155968946Y-112308772D01*
X155955317Y-112313649D01*
X155941276Y-112317166D01*
X155926958Y-112319290D01*
X155912500Y-112320000D01*
X155617500Y-112320000D01*
X155603042Y-112319290D01*
X155588724Y-112317166D01*
X155574683Y-112313649D01*
X155561054Y-112308772D01*
X155547969Y-112302583D01*
X155535553Y-112295142D01*
X155523927Y-112286519D01*
X155513202Y-112276798D01*
X155503481Y-112266073D01*
X155494858Y-112254447D01*
X155487417Y-112242031D01*
X155481228Y-112228946D01*
X155476351Y-112215317D01*
X155472834Y-112201276D01*
X155470710Y-112186958D01*
X155470000Y-112172500D01*
X155470000Y-111827500D01*
X155470710Y-111813042D01*
X155472834Y-111798724D01*
X155476351Y-111784683D01*
X155481228Y-111771054D01*
X155487417Y-111757969D01*
X155494858Y-111745553D01*
X155503481Y-111733927D01*
X155513202Y-111723202D01*
X155523927Y-111713481D01*
X155535553Y-111704858D01*
X155547969Y-111697417D01*
X155561054Y-111691228D01*
X155574683Y-111686351D01*
X155588724Y-111682834D01*
X155603042Y-111680710D01*
X155617500Y-111680000D01*
X155912500Y-111680000D01*
X155926958Y-111680710D01*
X155926958Y-111680710D01*
G37*
D11*
G04 #@! TD*
G04 #@! TO.P,D4,1*
G04 #@! TO.N,Net-(D4-Pad1)*
X155765000Y-112000000D03*
D10*
G04 #@! TO.N,Net-(D5-Pad1)*
G04 #@! TO.C,D5*
G36*
X147426958Y-111680710D02*
X147441276Y-111682834D01*
X147455317Y-111686351D01*
X147468946Y-111691228D01*
X147482031Y-111697417D01*
X147494447Y-111704858D01*
X147506073Y-111713481D01*
X147516798Y-111723202D01*
X147526519Y-111733927D01*
X147535142Y-111745553D01*
X147542583Y-111757969D01*
X147548772Y-111771054D01*
X147553649Y-111784683D01*
X147557166Y-111798724D01*
X147559290Y-111813042D01*
X147560000Y-111827500D01*
X147560000Y-112172500D01*
X147559290Y-112186958D01*
X147557166Y-112201276D01*
X147553649Y-112215317D01*
X147548772Y-112228946D01*
X147542583Y-112242031D01*
X147535142Y-112254447D01*
X147526519Y-112266073D01*
X147516798Y-112276798D01*
X147506073Y-112286519D01*
X147494447Y-112295142D01*
X147482031Y-112302583D01*
X147468946Y-112308772D01*
X147455317Y-112313649D01*
X147441276Y-112317166D01*
X147426958Y-112319290D01*
X147412500Y-112320000D01*
X147117500Y-112320000D01*
X147103042Y-112319290D01*
X147088724Y-112317166D01*
X147074683Y-112313649D01*
X147061054Y-112308772D01*
X147047969Y-112302583D01*
X147035553Y-112295142D01*
X147023927Y-112286519D01*
X147013202Y-112276798D01*
X147003481Y-112266073D01*
X146994858Y-112254447D01*
X146987417Y-112242031D01*
X146981228Y-112228946D01*
X146976351Y-112215317D01*
X146972834Y-112201276D01*
X146970710Y-112186958D01*
X146970000Y-112172500D01*
X146970000Y-111827500D01*
X146970710Y-111813042D01*
X146972834Y-111798724D01*
X146976351Y-111784683D01*
X146981228Y-111771054D01*
X146987417Y-111757969D01*
X146994858Y-111745553D01*
X147003481Y-111733927D01*
X147013202Y-111723202D01*
X147023927Y-111713481D01*
X147035553Y-111704858D01*
X147047969Y-111697417D01*
X147061054Y-111691228D01*
X147074683Y-111686351D01*
X147088724Y-111682834D01*
X147103042Y-111680710D01*
X147117500Y-111680000D01*
X147412500Y-111680000D01*
X147426958Y-111680710D01*
X147426958Y-111680710D01*
G37*
D11*
G04 #@! TD*
G04 #@! TO.P,D5,1*
G04 #@! TO.N,Net-(D5-Pad1)*
X147265000Y-112000000D03*
D10*
G04 #@! TO.N,GATE1*
G04 #@! TO.C,D5*
G36*
X148396958Y-111680710D02*
X148411276Y-111682834D01*
X148425317Y-111686351D01*
X148438946Y-111691228D01*
X148452031Y-111697417D01*
X148464447Y-111704858D01*
X148476073Y-111713481D01*
X148486798Y-111723202D01*
X148496519Y-111733927D01*
X148505142Y-111745553D01*
X148512583Y-111757969D01*
X148518772Y-111771054D01*
X148523649Y-111784683D01*
X148527166Y-111798724D01*
X148529290Y-111813042D01*
X148530000Y-111827500D01*
X148530000Y-112172500D01*
X148529290Y-112186958D01*
X148527166Y-112201276D01*
X148523649Y-112215317D01*
X148518772Y-112228946D01*
X148512583Y-112242031D01*
X148505142Y-112254447D01*
X148496519Y-112266073D01*
X148486798Y-112276798D01*
X148476073Y-112286519D01*
X148464447Y-112295142D01*
X148452031Y-112302583D01*
X148438946Y-112308772D01*
X148425317Y-112313649D01*
X148411276Y-112317166D01*
X148396958Y-112319290D01*
X148382500Y-112320000D01*
X148087500Y-112320000D01*
X148073042Y-112319290D01*
X148058724Y-112317166D01*
X148044683Y-112313649D01*
X148031054Y-112308772D01*
X148017969Y-112302583D01*
X148005553Y-112295142D01*
X147993927Y-112286519D01*
X147983202Y-112276798D01*
X147973481Y-112266073D01*
X147964858Y-112254447D01*
X147957417Y-112242031D01*
X147951228Y-112228946D01*
X147946351Y-112215317D01*
X147942834Y-112201276D01*
X147940710Y-112186958D01*
X147940000Y-112172500D01*
X147940000Y-111827500D01*
X147940710Y-111813042D01*
X147942834Y-111798724D01*
X147946351Y-111784683D01*
X147951228Y-111771054D01*
X147957417Y-111757969D01*
X147964858Y-111745553D01*
X147973481Y-111733927D01*
X147983202Y-111723202D01*
X147993927Y-111713481D01*
X148005553Y-111704858D01*
X148017969Y-111697417D01*
X148031054Y-111691228D01*
X148044683Y-111686351D01*
X148058724Y-111682834D01*
X148073042Y-111680710D01*
X148087500Y-111680000D01*
X148382500Y-111680000D01*
X148396958Y-111680710D01*
X148396958Y-111680710D01*
G37*
D11*
G04 #@! TD*
G04 #@! TO.P,D5,2*
G04 #@! TO.N,GATE1*
X148235000Y-112000000D03*
D10*
G04 #@! TO.N,GATE0*
G04 #@! TO.C,D6*
G36*
X140396958Y-111680710D02*
X140411276Y-111682834D01*
X140425317Y-111686351D01*
X140438946Y-111691228D01*
X140452031Y-111697417D01*
X140464447Y-111704858D01*
X140476073Y-111713481D01*
X140486798Y-111723202D01*
X140496519Y-111733927D01*
X140505142Y-111745553D01*
X140512583Y-111757969D01*
X140518772Y-111771054D01*
X140523649Y-111784683D01*
X140527166Y-111798724D01*
X140529290Y-111813042D01*
X140530000Y-111827500D01*
X140530000Y-112172500D01*
X140529290Y-112186958D01*
X140527166Y-112201276D01*
X140523649Y-112215317D01*
X140518772Y-112228946D01*
X140512583Y-112242031D01*
X140505142Y-112254447D01*
X140496519Y-112266073D01*
X140486798Y-112276798D01*
X140476073Y-112286519D01*
X140464447Y-112295142D01*
X140452031Y-112302583D01*
X140438946Y-112308772D01*
X140425317Y-112313649D01*
X140411276Y-112317166D01*
X140396958Y-112319290D01*
X140382500Y-112320000D01*
X140087500Y-112320000D01*
X140073042Y-112319290D01*
X140058724Y-112317166D01*
X140044683Y-112313649D01*
X140031054Y-112308772D01*
X140017969Y-112302583D01*
X140005553Y-112295142D01*
X139993927Y-112286519D01*
X139983202Y-112276798D01*
X139973481Y-112266073D01*
X139964858Y-112254447D01*
X139957417Y-112242031D01*
X139951228Y-112228946D01*
X139946351Y-112215317D01*
X139942834Y-112201276D01*
X139940710Y-112186958D01*
X139940000Y-112172500D01*
X139940000Y-111827500D01*
X139940710Y-111813042D01*
X139942834Y-111798724D01*
X139946351Y-111784683D01*
X139951228Y-111771054D01*
X139957417Y-111757969D01*
X139964858Y-111745553D01*
X139973481Y-111733927D01*
X139983202Y-111723202D01*
X139993927Y-111713481D01*
X140005553Y-111704858D01*
X140017969Y-111697417D01*
X140031054Y-111691228D01*
X140044683Y-111686351D01*
X140058724Y-111682834D01*
X140073042Y-111680710D01*
X140087500Y-111680000D01*
X140382500Y-111680000D01*
X140396958Y-111680710D01*
X140396958Y-111680710D01*
G37*
D11*
G04 #@! TD*
G04 #@! TO.P,D6,2*
G04 #@! TO.N,GATE0*
X140235000Y-112000000D03*
D10*
G04 #@! TO.N,Net-(D6-Pad1)*
G04 #@! TO.C,D6*
G36*
X139426958Y-111680710D02*
X139441276Y-111682834D01*
X139455317Y-111686351D01*
X139468946Y-111691228D01*
X139482031Y-111697417D01*
X139494447Y-111704858D01*
X139506073Y-111713481D01*
X139516798Y-111723202D01*
X139526519Y-111733927D01*
X139535142Y-111745553D01*
X139542583Y-111757969D01*
X139548772Y-111771054D01*
X139553649Y-111784683D01*
X139557166Y-111798724D01*
X139559290Y-111813042D01*
X139560000Y-111827500D01*
X139560000Y-112172500D01*
X139559290Y-112186958D01*
X139557166Y-112201276D01*
X139553649Y-112215317D01*
X139548772Y-112228946D01*
X139542583Y-112242031D01*
X139535142Y-112254447D01*
X139526519Y-112266073D01*
X139516798Y-112276798D01*
X139506073Y-112286519D01*
X139494447Y-112295142D01*
X139482031Y-112302583D01*
X139468946Y-112308772D01*
X139455317Y-112313649D01*
X139441276Y-112317166D01*
X139426958Y-112319290D01*
X139412500Y-112320000D01*
X139117500Y-112320000D01*
X139103042Y-112319290D01*
X139088724Y-112317166D01*
X139074683Y-112313649D01*
X139061054Y-112308772D01*
X139047969Y-112302583D01*
X139035553Y-112295142D01*
X139023927Y-112286519D01*
X139013202Y-112276798D01*
X139003481Y-112266073D01*
X138994858Y-112254447D01*
X138987417Y-112242031D01*
X138981228Y-112228946D01*
X138976351Y-112215317D01*
X138972834Y-112201276D01*
X138970710Y-112186958D01*
X138970000Y-112172500D01*
X138970000Y-111827500D01*
X138970710Y-111813042D01*
X138972834Y-111798724D01*
X138976351Y-111784683D01*
X138981228Y-111771054D01*
X138987417Y-111757969D01*
X138994858Y-111745553D01*
X139003481Y-111733927D01*
X139013202Y-111723202D01*
X139023927Y-111713481D01*
X139035553Y-111704858D01*
X139047969Y-111697417D01*
X139061054Y-111691228D01*
X139074683Y-111686351D01*
X139088724Y-111682834D01*
X139103042Y-111680710D01*
X139117500Y-111680000D01*
X139412500Y-111680000D01*
X139426958Y-111680710D01*
X139426958Y-111680710D01*
G37*
D11*
G04 #@! TD*
G04 #@! TO.P,D6,1*
G04 #@! TO.N,Net-(D6-Pad1)*
X139265000Y-112000000D03*
D13*
G04 #@! TO.P,J1,2*
G04 #@! TO.N,GND*
X140500000Y-115150000D03*
D14*
X140500000Y-124400000D03*
G04 #@! TO.P,J1,1*
G04 #@! TO.N,Net-(J1-Pad1)*
X144500000Y-124400000D03*
D13*
X144500000Y-115150000D03*
G04 #@! TD*
G04 #@! TO.P,J2,1*
G04 #@! TO.N,Net-(J2-Pad1)*
X152800000Y-115150000D03*
D14*
X152800000Y-124400000D03*
G04 #@! TO.P,J2,2*
G04 #@! TO.N,GND*
X148800000Y-124400000D03*
D13*
X148800000Y-115150000D03*
G04 #@! TD*
G04 #@! TO.P,J3,1*
G04 #@! TO.N,Net-(J3-Pad1)*
X161200000Y-115150000D03*
D14*
X161200000Y-124400000D03*
G04 #@! TO.P,J3,2*
G04 #@! TO.N,GND*
X157200000Y-124400000D03*
D13*
X157200000Y-115150000D03*
G04 #@! TD*
G04 #@! TO.P,J4,2*
G04 #@! TO.N,GND*
X165600000Y-115150000D03*
D14*
X165600000Y-124400000D03*
G04 #@! TO.P,J4,1*
G04 #@! TO.N,Net-(J4-Pad1)*
X169600000Y-124400000D03*
D13*
X169600000Y-115150000D03*
G04 #@! TD*
G04 #@! TO.P,J5,1*
G04 #@! TO.N,Net-(J5-Pad1)*
X178000000Y-115150000D03*
D14*
X178000000Y-124400000D03*
G04 #@! TO.P,J5,2*
G04 #@! TO.N,GND*
X174000000Y-124400000D03*
D13*
X174000000Y-115150000D03*
G04 #@! TD*
D15*
G04 #@! TO.P,J6,2*
G04 #@! TO.N,GND*
X151500000Y-96500000D03*
D16*
X142250000Y-96500000D03*
G04 #@! TO.P,J6,1*
G04 #@! TO.N,+36V*
X142250000Y-100500000D03*
D15*
X151500000Y-100500000D03*
G04 #@! TD*
G04 #@! TO.P,J7,1*
G04 #@! TO.N,+5V*
X175500000Y-96500000D03*
D16*
X184750000Y-96500000D03*
G04 #@! TO.P,J7,2*
G04 #@! TO.N,GND*
X184750000Y-100500000D03*
D15*
X175500000Y-100500000D03*
G04 #@! TD*
D13*
G04 #@! TO.P,J8,2*
G04 #@! TO.N,GND*
X182400000Y-115150000D03*
D14*
X182400000Y-124400000D03*
G04 #@! TO.P,J8,1*
G04 #@! TO.N,Net-(J8-Pad1)*
X186400000Y-124400000D03*
D13*
X186400000Y-115150000D03*
G04 #@! TD*
D17*
G04 #@! TO.P,J9,6*
G04 #@! TO.N,GATE5*
X170350000Y-96460000D03*
G04 #@! TO.P,J9,5*
G04 #@! TO.N,GATE4*
X169080000Y-99000000D03*
D18*
G04 #@! TO.P,J9,1*
G04 #@! TO.N,GATE0*
X164000000Y-99000000D03*
D17*
G04 #@! TO.P,J9,2*
G04 #@! TO.N,GATE1*
X165270000Y-96460000D03*
G04 #@! TO.P,J9,3*
G04 #@! TO.N,GATE2*
X166540000Y-99000000D03*
G04 #@! TO.P,J9,4*
G04 #@! TO.N,GATE3*
X167810000Y-96460000D03*
G04 #@! TD*
D19*
G04 #@! TO.P,L1,1*
G04 #@! TO.N,+5V*
X158905000Y-97000000D03*
G04 #@! TO.P,L1,2*
G04 #@! TO.N,Net-(C4-Pad1)*
X155595000Y-97000000D03*
G04 #@! TD*
D20*
G04 #@! TO.P,MAX1,1*
G04 #@! TO.N,+36V*
X153525000Y-106000000D03*
G04 #@! TO.P,MAX1,2*
G04 #@! TO.N,Net-(C1-Pad1)*
X153525000Y-106500000D03*
G04 #@! TO.P,MAX1,3*
G04 #@! TO.N,GND*
X153525000Y-107000000D03*
G04 #@! TO.P,MAX1,4*
X153525000Y-107500000D03*
D21*
G04 #@! TO.P,MAX1,5*
G04 #@! TO.N,Net-(C3-Pad1)*
X154250000Y-108225000D03*
G04 #@! TO.P,MAX1,6*
G04 #@! TO.N,+5V*
X154750000Y-108225000D03*
G04 #@! TO.P,MAX1,7*
G04 #@! TO.N,Net-(MAX1-Pad7)*
X155250000Y-108225000D03*
G04 #@! TO.P,MAX1,8*
G04 #@! TO.N,Net-(MAX1-Pad8)*
X155750000Y-108225000D03*
D20*
G04 #@! TO.P,MAX1,9*
G04 #@! TO.N,+5V*
X156475000Y-107500000D03*
G04 #@! TO.P,MAX1,10*
G04 #@! TO.N,Net-(C4-Pad2)*
X156475000Y-107000000D03*
G04 #@! TO.P,MAX1,11*
G04 #@! TO.N,Net-(C4-Pad1)*
X156475000Y-106500000D03*
G04 #@! TO.P,MAX1,12*
X156475000Y-106000000D03*
D21*
G04 #@! TO.P,MAX1,13*
G04 #@! TO.N,GND*
X155750000Y-105275000D03*
G04 #@! TO.P,MAX1,14*
X155250000Y-105275000D03*
G04 #@! TO.P,MAX1,15*
G04 #@! TO.N,+36V*
X154750000Y-105275000D03*
G04 #@! TO.P,MAX1,16*
X154250000Y-105275000D03*
D22*
G04 #@! TO.P,MAX1,17*
G04 #@! TO.N,N/C*
X155450000Y-107200000D03*
X155450000Y-106300000D03*
X154550000Y-107200000D03*
X154550000Y-106300000D03*
G04 #@! TD*
D23*
G04 #@! TO.P,Q1,D2A*
G04 #@! TO.N,+36V*
X146952500Y-106057500D03*
G04 #@! TO.P,Q1,D1A*
X146952500Y-108987500D03*
D24*
G04 #@! TO.P,Q1,G1*
G04 #@! TO.N,GATE0*
X145592400Y-108622500D03*
G04 #@! TO.P,Q1,S1*
G04 #@! TO.N,Net-(J1-Pad1)*
X145592500Y-107972500D03*
G04 #@! TO.P,Q1,G2*
G04 #@! TO.N,GATE1*
X148312500Y-106422500D03*
G04 #@! TO.P,Q1,S2*
G04 #@! TO.N,Net-(J2-Pad1)*
X148312500Y-107072500D03*
D25*
G04 #@! TO.P,Q1,D2*
G04 #@! TO.N,+36V*
X146405000Y-106795000D03*
G04 #@! TO.P,Q1,D1*
X147500000Y-108250000D03*
G04 #@! TD*
G04 #@! TO.P,Q2,D1*
G04 #@! TO.N,+36V*
X163797500Y-108227500D03*
G04 #@! TO.P,Q2,D2*
X162702500Y-106772500D03*
D24*
G04 #@! TO.P,Q2,S2*
G04 #@! TO.N,Net-(J4-Pad1)*
X164610000Y-107050000D03*
G04 #@! TO.P,Q2,G2*
G04 #@! TO.N,GATE3*
X164610000Y-106400000D03*
G04 #@! TO.P,Q2,S1*
G04 #@! TO.N,Net-(J3-Pad1)*
X161890000Y-107950000D03*
G04 #@! TO.P,Q2,G1*
G04 #@! TO.N,GATE2*
X161889900Y-108600000D03*
D23*
G04 #@! TO.P,Q2,D1A*
G04 #@! TO.N,+36V*
X163250000Y-108965000D03*
G04 #@! TO.P,Q2,D2A*
X163250000Y-106035000D03*
G04 #@! TD*
D25*
G04 #@! TO.P,Q3,D1*
G04 #@! TO.N,+36V*
X181000000Y-108250000D03*
G04 #@! TO.P,Q3,D2*
X179905000Y-106795000D03*
D24*
G04 #@! TO.P,Q3,S2*
G04 #@! TO.N,Net-(J8-Pad1)*
X181812500Y-107072500D03*
G04 #@! TO.P,Q3,G2*
G04 #@! TO.N,GATE5*
X181812500Y-106422500D03*
G04 #@! TO.P,Q3,S1*
G04 #@! TO.N,Net-(J5-Pad1)*
X179092500Y-107972500D03*
G04 #@! TO.P,Q3,G1*
G04 #@! TO.N,GATE4*
X179092400Y-108622500D03*
D23*
G04 #@! TO.P,Q3,D1A*
G04 #@! TO.N,+36V*
X180452500Y-108987500D03*
G04 #@! TO.P,Q3,D2A*
X180452500Y-106057500D03*
G04 #@! TD*
D10*
G04 #@! TO.N,Net-(D7-Pad1)*
G04 #@! TO.C,D7*
G36*
X139426958Y-103430710D02*
X139441276Y-103432834D01*
X139455317Y-103436351D01*
X139468946Y-103441228D01*
X139482031Y-103447417D01*
X139494447Y-103454858D01*
X139506073Y-103463481D01*
X139516798Y-103473202D01*
X139526519Y-103483927D01*
X139535142Y-103495553D01*
X139542583Y-103507969D01*
X139548772Y-103521054D01*
X139553649Y-103534683D01*
X139557166Y-103548724D01*
X139559290Y-103563042D01*
X139560000Y-103577500D01*
X139560000Y-103922500D01*
X139559290Y-103936958D01*
X139557166Y-103951276D01*
X139553649Y-103965317D01*
X139548772Y-103978946D01*
X139542583Y-103992031D01*
X139535142Y-104004447D01*
X139526519Y-104016073D01*
X139516798Y-104026798D01*
X139506073Y-104036519D01*
X139494447Y-104045142D01*
X139482031Y-104052583D01*
X139468946Y-104058772D01*
X139455317Y-104063649D01*
X139441276Y-104067166D01*
X139426958Y-104069290D01*
X139412500Y-104070000D01*
X139117500Y-104070000D01*
X139103042Y-104069290D01*
X139088724Y-104067166D01*
X139074683Y-104063649D01*
X139061054Y-104058772D01*
X139047969Y-104052583D01*
X139035553Y-104045142D01*
X139023927Y-104036519D01*
X139013202Y-104026798D01*
X139003481Y-104016073D01*
X138994858Y-104004447D01*
X138987417Y-103992031D01*
X138981228Y-103978946D01*
X138976351Y-103965317D01*
X138972834Y-103951276D01*
X138970710Y-103936958D01*
X138970000Y-103922500D01*
X138970000Y-103577500D01*
X138970710Y-103563042D01*
X138972834Y-103548724D01*
X138976351Y-103534683D01*
X138981228Y-103521054D01*
X138987417Y-103507969D01*
X138994858Y-103495553D01*
X139003481Y-103483927D01*
X139013202Y-103473202D01*
X139023927Y-103463481D01*
X139035553Y-103454858D01*
X139047969Y-103447417D01*
X139061054Y-103441228D01*
X139074683Y-103436351D01*
X139088724Y-103432834D01*
X139103042Y-103430710D01*
X139117500Y-103430000D01*
X139412500Y-103430000D01*
X139426958Y-103430710D01*
X139426958Y-103430710D01*
G37*
D11*
G04 #@! TD*
G04 #@! TO.P,D7,1*
G04 #@! TO.N,Net-(D7-Pad1)*
X139265000Y-103750000D03*
D10*
G04 #@! TO.N,+36V*
G04 #@! TO.C,D7*
G36*
X140396958Y-103430710D02*
X140411276Y-103432834D01*
X140425317Y-103436351D01*
X140438946Y-103441228D01*
X140452031Y-103447417D01*
X140464447Y-103454858D01*
X140476073Y-103463481D01*
X140486798Y-103473202D01*
X140496519Y-103483927D01*
X140505142Y-103495553D01*
X140512583Y-103507969D01*
X140518772Y-103521054D01*
X140523649Y-103534683D01*
X140527166Y-103548724D01*
X140529290Y-103563042D01*
X140530000Y-103577500D01*
X140530000Y-103922500D01*
X140529290Y-103936958D01*
X140527166Y-103951276D01*
X140523649Y-103965317D01*
X140518772Y-103978946D01*
X140512583Y-103992031D01*
X140505142Y-104004447D01*
X140496519Y-104016073D01*
X140486798Y-104026798D01*
X140476073Y-104036519D01*
X140464447Y-104045142D01*
X140452031Y-104052583D01*
X140438946Y-104058772D01*
X140425317Y-104063649D01*
X140411276Y-104067166D01*
X140396958Y-104069290D01*
X140382500Y-104070000D01*
X140087500Y-104070000D01*
X140073042Y-104069290D01*
X140058724Y-104067166D01*
X140044683Y-104063649D01*
X140031054Y-104058772D01*
X140017969Y-104052583D01*
X140005553Y-104045142D01*
X139993927Y-104036519D01*
X139983202Y-104026798D01*
X139973481Y-104016073D01*
X139964858Y-104004447D01*
X139957417Y-103992031D01*
X139951228Y-103978946D01*
X139946351Y-103965317D01*
X139942834Y-103951276D01*
X139940710Y-103936958D01*
X139940000Y-103922500D01*
X139940000Y-103577500D01*
X139940710Y-103563042D01*
X139942834Y-103548724D01*
X139946351Y-103534683D01*
X139951228Y-103521054D01*
X139957417Y-103507969D01*
X139964858Y-103495553D01*
X139973481Y-103483927D01*
X139983202Y-103473202D01*
X139993927Y-103463481D01*
X140005553Y-103454858D01*
X140017969Y-103447417D01*
X140031054Y-103441228D01*
X140044683Y-103436351D01*
X140058724Y-103432834D01*
X140073042Y-103430710D01*
X140087500Y-103430000D01*
X140382500Y-103430000D01*
X140396958Y-103430710D01*
X140396958Y-103430710D01*
G37*
D11*
G04 #@! TD*
G04 #@! TO.P,D7,2*
G04 #@! TO.N,+36V*
X140235000Y-103750000D03*
D10*
G04 #@! TO.N,Net-(D1-Pad1)*
G04 #@! TO.C,R1*
G36*
X181176958Y-110430710D02*
X181191276Y-110432834D01*
X181205317Y-110436351D01*
X181218946Y-110441228D01*
X181232031Y-110447417D01*
X181244447Y-110454858D01*
X181256073Y-110463481D01*
X181266798Y-110473202D01*
X181276519Y-110483927D01*
X181285142Y-110495553D01*
X181292583Y-110507969D01*
X181298772Y-110521054D01*
X181303649Y-110534683D01*
X181307166Y-110548724D01*
X181309290Y-110563042D01*
X181310000Y-110577500D01*
X181310000Y-110922500D01*
X181309290Y-110936958D01*
X181307166Y-110951276D01*
X181303649Y-110965317D01*
X181298772Y-110978946D01*
X181292583Y-110992031D01*
X181285142Y-111004447D01*
X181276519Y-111016073D01*
X181266798Y-111026798D01*
X181256073Y-111036519D01*
X181244447Y-111045142D01*
X181232031Y-111052583D01*
X181218946Y-111058772D01*
X181205317Y-111063649D01*
X181191276Y-111067166D01*
X181176958Y-111069290D01*
X181162500Y-111070000D01*
X180867500Y-111070000D01*
X180853042Y-111069290D01*
X180838724Y-111067166D01*
X180824683Y-111063649D01*
X180811054Y-111058772D01*
X180797969Y-111052583D01*
X180785553Y-111045142D01*
X180773927Y-111036519D01*
X180763202Y-111026798D01*
X180753481Y-111016073D01*
X180744858Y-111004447D01*
X180737417Y-110992031D01*
X180731228Y-110978946D01*
X180726351Y-110965317D01*
X180722834Y-110951276D01*
X180720710Y-110936958D01*
X180720000Y-110922500D01*
X180720000Y-110577500D01*
X180720710Y-110563042D01*
X180722834Y-110548724D01*
X180726351Y-110534683D01*
X180731228Y-110521054D01*
X180737417Y-110507969D01*
X180744858Y-110495553D01*
X180753481Y-110483927D01*
X180763202Y-110473202D01*
X180773927Y-110463481D01*
X180785553Y-110454858D01*
X180797969Y-110447417D01*
X180811054Y-110441228D01*
X180824683Y-110436351D01*
X180838724Y-110432834D01*
X180853042Y-110430710D01*
X180867500Y-110430000D01*
X181162500Y-110430000D01*
X181176958Y-110430710D01*
X181176958Y-110430710D01*
G37*
D11*
G04 #@! TD*
G04 #@! TO.P,R1,2*
G04 #@! TO.N,Net-(D1-Pad1)*
X181015000Y-110750000D03*
D10*
G04 #@! TO.N,GND*
G04 #@! TO.C,R1*
G36*
X182146958Y-110430710D02*
X182161276Y-110432834D01*
X182175317Y-110436351D01*
X182188946Y-110441228D01*
X182202031Y-110447417D01*
X182214447Y-110454858D01*
X182226073Y-110463481D01*
X182236798Y-110473202D01*
X182246519Y-110483927D01*
X182255142Y-110495553D01*
X182262583Y-110507969D01*
X182268772Y-110521054D01*
X182273649Y-110534683D01*
X182277166Y-110548724D01*
X182279290Y-110563042D01*
X182280000Y-110577500D01*
X182280000Y-110922500D01*
X182279290Y-110936958D01*
X182277166Y-110951276D01*
X182273649Y-110965317D01*
X182268772Y-110978946D01*
X182262583Y-110992031D01*
X182255142Y-111004447D01*
X182246519Y-111016073D01*
X182236798Y-111026798D01*
X182226073Y-111036519D01*
X182214447Y-111045142D01*
X182202031Y-111052583D01*
X182188946Y-111058772D01*
X182175317Y-111063649D01*
X182161276Y-111067166D01*
X182146958Y-111069290D01*
X182132500Y-111070000D01*
X181837500Y-111070000D01*
X181823042Y-111069290D01*
X181808724Y-111067166D01*
X181794683Y-111063649D01*
X181781054Y-111058772D01*
X181767969Y-111052583D01*
X181755553Y-111045142D01*
X181743927Y-111036519D01*
X181733202Y-111026798D01*
X181723481Y-111016073D01*
X181714858Y-111004447D01*
X181707417Y-110992031D01*
X181701228Y-110978946D01*
X181696351Y-110965317D01*
X181692834Y-110951276D01*
X181690710Y-110936958D01*
X181690000Y-110922500D01*
X181690000Y-110577500D01*
X181690710Y-110563042D01*
X181692834Y-110548724D01*
X181696351Y-110534683D01*
X181701228Y-110521054D01*
X181707417Y-110507969D01*
X181714858Y-110495553D01*
X181723481Y-110483927D01*
X181733202Y-110473202D01*
X181743927Y-110463481D01*
X181755553Y-110454858D01*
X181767969Y-110447417D01*
X181781054Y-110441228D01*
X181794683Y-110436351D01*
X181808724Y-110432834D01*
X181823042Y-110430710D01*
X181837500Y-110430000D01*
X182132500Y-110430000D01*
X182146958Y-110430710D01*
X182146958Y-110430710D01*
G37*
D11*
G04 #@! TD*
G04 #@! TO.P,R1,1*
G04 #@! TO.N,GND*
X181985000Y-110750000D03*
D10*
G04 #@! TO.N,GND*
G04 #@! TO.C,R2*
G36*
X173631958Y-110430710D02*
X173646276Y-110432834D01*
X173660317Y-110436351D01*
X173673946Y-110441228D01*
X173687031Y-110447417D01*
X173699447Y-110454858D01*
X173711073Y-110463481D01*
X173721798Y-110473202D01*
X173731519Y-110483927D01*
X173740142Y-110495553D01*
X173747583Y-110507969D01*
X173753772Y-110521054D01*
X173758649Y-110534683D01*
X173762166Y-110548724D01*
X173764290Y-110563042D01*
X173765000Y-110577500D01*
X173765000Y-110922500D01*
X173764290Y-110936958D01*
X173762166Y-110951276D01*
X173758649Y-110965317D01*
X173753772Y-110978946D01*
X173747583Y-110992031D01*
X173740142Y-111004447D01*
X173731519Y-111016073D01*
X173721798Y-111026798D01*
X173711073Y-111036519D01*
X173699447Y-111045142D01*
X173687031Y-111052583D01*
X173673946Y-111058772D01*
X173660317Y-111063649D01*
X173646276Y-111067166D01*
X173631958Y-111069290D01*
X173617500Y-111070000D01*
X173322500Y-111070000D01*
X173308042Y-111069290D01*
X173293724Y-111067166D01*
X173279683Y-111063649D01*
X173266054Y-111058772D01*
X173252969Y-111052583D01*
X173240553Y-111045142D01*
X173228927Y-111036519D01*
X173218202Y-111026798D01*
X173208481Y-111016073D01*
X173199858Y-111004447D01*
X173192417Y-110992031D01*
X173186228Y-110978946D01*
X173181351Y-110965317D01*
X173177834Y-110951276D01*
X173175710Y-110936958D01*
X173175000Y-110922500D01*
X173175000Y-110577500D01*
X173175710Y-110563042D01*
X173177834Y-110548724D01*
X173181351Y-110534683D01*
X173186228Y-110521054D01*
X173192417Y-110507969D01*
X173199858Y-110495553D01*
X173208481Y-110483927D01*
X173218202Y-110473202D01*
X173228927Y-110463481D01*
X173240553Y-110454858D01*
X173252969Y-110447417D01*
X173266054Y-110441228D01*
X173279683Y-110436351D01*
X173293724Y-110432834D01*
X173308042Y-110430710D01*
X173322500Y-110430000D01*
X173617500Y-110430000D01*
X173631958Y-110430710D01*
X173631958Y-110430710D01*
G37*
D11*
G04 #@! TD*
G04 #@! TO.P,R2,1*
G04 #@! TO.N,GND*
X173470000Y-110750000D03*
D10*
G04 #@! TO.N,Net-(D2-Pad1)*
G04 #@! TO.C,R2*
G36*
X172661958Y-110430710D02*
X172676276Y-110432834D01*
X172690317Y-110436351D01*
X172703946Y-110441228D01*
X172717031Y-110447417D01*
X172729447Y-110454858D01*
X172741073Y-110463481D01*
X172751798Y-110473202D01*
X172761519Y-110483927D01*
X172770142Y-110495553D01*
X172777583Y-110507969D01*
X172783772Y-110521054D01*
X172788649Y-110534683D01*
X172792166Y-110548724D01*
X172794290Y-110563042D01*
X172795000Y-110577500D01*
X172795000Y-110922500D01*
X172794290Y-110936958D01*
X172792166Y-110951276D01*
X172788649Y-110965317D01*
X172783772Y-110978946D01*
X172777583Y-110992031D01*
X172770142Y-111004447D01*
X172761519Y-111016073D01*
X172751798Y-111026798D01*
X172741073Y-111036519D01*
X172729447Y-111045142D01*
X172717031Y-111052583D01*
X172703946Y-111058772D01*
X172690317Y-111063649D01*
X172676276Y-111067166D01*
X172661958Y-111069290D01*
X172647500Y-111070000D01*
X172352500Y-111070000D01*
X172338042Y-111069290D01*
X172323724Y-111067166D01*
X172309683Y-111063649D01*
X172296054Y-111058772D01*
X172282969Y-111052583D01*
X172270553Y-111045142D01*
X172258927Y-111036519D01*
X172248202Y-111026798D01*
X172238481Y-111016073D01*
X172229858Y-111004447D01*
X172222417Y-110992031D01*
X172216228Y-110978946D01*
X172211351Y-110965317D01*
X172207834Y-110951276D01*
X172205710Y-110936958D01*
X172205000Y-110922500D01*
X172205000Y-110577500D01*
X172205710Y-110563042D01*
X172207834Y-110548724D01*
X172211351Y-110534683D01*
X172216228Y-110521054D01*
X172222417Y-110507969D01*
X172229858Y-110495553D01*
X172238481Y-110483927D01*
X172248202Y-110473202D01*
X172258927Y-110463481D01*
X172270553Y-110454858D01*
X172282969Y-110447417D01*
X172296054Y-110441228D01*
X172309683Y-110436351D01*
X172323724Y-110432834D01*
X172338042Y-110430710D01*
X172352500Y-110430000D01*
X172647500Y-110430000D01*
X172661958Y-110430710D01*
X172661958Y-110430710D01*
G37*
D11*
G04 #@! TD*
G04 #@! TO.P,R2,2*
G04 #@! TO.N,Net-(D2-Pad1)*
X172500000Y-110750000D03*
D10*
G04 #@! TO.N,Net-(D3-Pad1)*
G04 #@! TO.C,R3*
G36*
X164426958Y-110430710D02*
X164441276Y-110432834D01*
X164455317Y-110436351D01*
X164468946Y-110441228D01*
X164482031Y-110447417D01*
X164494447Y-110454858D01*
X164506073Y-110463481D01*
X164516798Y-110473202D01*
X164526519Y-110483927D01*
X164535142Y-110495553D01*
X164542583Y-110507969D01*
X164548772Y-110521054D01*
X164553649Y-110534683D01*
X164557166Y-110548724D01*
X164559290Y-110563042D01*
X164560000Y-110577500D01*
X164560000Y-110922500D01*
X164559290Y-110936958D01*
X164557166Y-110951276D01*
X164553649Y-110965317D01*
X164548772Y-110978946D01*
X164542583Y-110992031D01*
X164535142Y-111004447D01*
X164526519Y-111016073D01*
X164516798Y-111026798D01*
X164506073Y-111036519D01*
X164494447Y-111045142D01*
X164482031Y-111052583D01*
X164468946Y-111058772D01*
X164455317Y-111063649D01*
X164441276Y-111067166D01*
X164426958Y-111069290D01*
X164412500Y-111070000D01*
X164117500Y-111070000D01*
X164103042Y-111069290D01*
X164088724Y-111067166D01*
X164074683Y-111063649D01*
X164061054Y-111058772D01*
X164047969Y-111052583D01*
X164035553Y-111045142D01*
X164023927Y-111036519D01*
X164013202Y-111026798D01*
X164003481Y-111016073D01*
X163994858Y-111004447D01*
X163987417Y-110992031D01*
X163981228Y-110978946D01*
X163976351Y-110965317D01*
X163972834Y-110951276D01*
X163970710Y-110936958D01*
X163970000Y-110922500D01*
X163970000Y-110577500D01*
X163970710Y-110563042D01*
X163972834Y-110548724D01*
X163976351Y-110534683D01*
X163981228Y-110521054D01*
X163987417Y-110507969D01*
X163994858Y-110495553D01*
X164003481Y-110483927D01*
X164013202Y-110473202D01*
X164023927Y-110463481D01*
X164035553Y-110454858D01*
X164047969Y-110447417D01*
X164061054Y-110441228D01*
X164074683Y-110436351D01*
X164088724Y-110432834D01*
X164103042Y-110430710D01*
X164117500Y-110430000D01*
X164412500Y-110430000D01*
X164426958Y-110430710D01*
X164426958Y-110430710D01*
G37*
D11*
G04 #@! TD*
G04 #@! TO.P,R3,2*
G04 #@! TO.N,Net-(D3-Pad1)*
X164265000Y-110750000D03*
D10*
G04 #@! TO.N,GND*
G04 #@! TO.C,R3*
G36*
X165396958Y-110430710D02*
X165411276Y-110432834D01*
X165425317Y-110436351D01*
X165438946Y-110441228D01*
X165452031Y-110447417D01*
X165464447Y-110454858D01*
X165476073Y-110463481D01*
X165486798Y-110473202D01*
X165496519Y-110483927D01*
X165505142Y-110495553D01*
X165512583Y-110507969D01*
X165518772Y-110521054D01*
X165523649Y-110534683D01*
X165527166Y-110548724D01*
X165529290Y-110563042D01*
X165530000Y-110577500D01*
X165530000Y-110922500D01*
X165529290Y-110936958D01*
X165527166Y-110951276D01*
X165523649Y-110965317D01*
X165518772Y-110978946D01*
X165512583Y-110992031D01*
X165505142Y-111004447D01*
X165496519Y-111016073D01*
X165486798Y-111026798D01*
X165476073Y-111036519D01*
X165464447Y-111045142D01*
X165452031Y-111052583D01*
X165438946Y-111058772D01*
X165425317Y-111063649D01*
X165411276Y-111067166D01*
X165396958Y-111069290D01*
X165382500Y-111070000D01*
X165087500Y-111070000D01*
X165073042Y-111069290D01*
X165058724Y-111067166D01*
X165044683Y-111063649D01*
X165031054Y-111058772D01*
X165017969Y-111052583D01*
X165005553Y-111045142D01*
X164993927Y-111036519D01*
X164983202Y-111026798D01*
X164973481Y-111016073D01*
X164964858Y-111004447D01*
X164957417Y-110992031D01*
X164951228Y-110978946D01*
X164946351Y-110965317D01*
X164942834Y-110951276D01*
X164940710Y-110936958D01*
X164940000Y-110922500D01*
X164940000Y-110577500D01*
X164940710Y-110563042D01*
X164942834Y-110548724D01*
X164946351Y-110534683D01*
X164951228Y-110521054D01*
X164957417Y-110507969D01*
X164964858Y-110495553D01*
X164973481Y-110483927D01*
X164983202Y-110473202D01*
X164993927Y-110463481D01*
X165005553Y-110454858D01*
X165017969Y-110447417D01*
X165031054Y-110441228D01*
X165044683Y-110436351D01*
X165058724Y-110432834D01*
X165073042Y-110430710D01*
X165087500Y-110430000D01*
X165382500Y-110430000D01*
X165396958Y-110430710D01*
X165396958Y-110430710D01*
G37*
D11*
G04 #@! TD*
G04 #@! TO.P,R3,1*
G04 #@! TO.N,GND*
X165235000Y-110750000D03*
D10*
G04 #@! TO.N,GND*
G04 #@! TO.C,R4*
G36*
X156896958Y-110430710D02*
X156911276Y-110432834D01*
X156925317Y-110436351D01*
X156938946Y-110441228D01*
X156952031Y-110447417D01*
X156964447Y-110454858D01*
X156976073Y-110463481D01*
X156986798Y-110473202D01*
X156996519Y-110483927D01*
X157005142Y-110495553D01*
X157012583Y-110507969D01*
X157018772Y-110521054D01*
X157023649Y-110534683D01*
X157027166Y-110548724D01*
X157029290Y-110563042D01*
X157030000Y-110577500D01*
X157030000Y-110922500D01*
X157029290Y-110936958D01*
X157027166Y-110951276D01*
X157023649Y-110965317D01*
X157018772Y-110978946D01*
X157012583Y-110992031D01*
X157005142Y-111004447D01*
X156996519Y-111016073D01*
X156986798Y-111026798D01*
X156976073Y-111036519D01*
X156964447Y-111045142D01*
X156952031Y-111052583D01*
X156938946Y-111058772D01*
X156925317Y-111063649D01*
X156911276Y-111067166D01*
X156896958Y-111069290D01*
X156882500Y-111070000D01*
X156587500Y-111070000D01*
X156573042Y-111069290D01*
X156558724Y-111067166D01*
X156544683Y-111063649D01*
X156531054Y-111058772D01*
X156517969Y-111052583D01*
X156505553Y-111045142D01*
X156493927Y-111036519D01*
X156483202Y-111026798D01*
X156473481Y-111016073D01*
X156464858Y-111004447D01*
X156457417Y-110992031D01*
X156451228Y-110978946D01*
X156446351Y-110965317D01*
X156442834Y-110951276D01*
X156440710Y-110936958D01*
X156440000Y-110922500D01*
X156440000Y-110577500D01*
X156440710Y-110563042D01*
X156442834Y-110548724D01*
X156446351Y-110534683D01*
X156451228Y-110521054D01*
X156457417Y-110507969D01*
X156464858Y-110495553D01*
X156473481Y-110483927D01*
X156483202Y-110473202D01*
X156493927Y-110463481D01*
X156505553Y-110454858D01*
X156517969Y-110447417D01*
X156531054Y-110441228D01*
X156544683Y-110436351D01*
X156558724Y-110432834D01*
X156573042Y-110430710D01*
X156587500Y-110430000D01*
X156882500Y-110430000D01*
X156896958Y-110430710D01*
X156896958Y-110430710D01*
G37*
D11*
G04 #@! TD*
G04 #@! TO.P,R4,1*
G04 #@! TO.N,GND*
X156735000Y-110750000D03*
D10*
G04 #@! TO.N,Net-(D4-Pad1)*
G04 #@! TO.C,R4*
G36*
X155926958Y-110430710D02*
X155941276Y-110432834D01*
X155955317Y-110436351D01*
X155968946Y-110441228D01*
X155982031Y-110447417D01*
X155994447Y-110454858D01*
X156006073Y-110463481D01*
X156016798Y-110473202D01*
X156026519Y-110483927D01*
X156035142Y-110495553D01*
X156042583Y-110507969D01*
X156048772Y-110521054D01*
X156053649Y-110534683D01*
X156057166Y-110548724D01*
X156059290Y-110563042D01*
X156060000Y-110577500D01*
X156060000Y-110922500D01*
X156059290Y-110936958D01*
X156057166Y-110951276D01*
X156053649Y-110965317D01*
X156048772Y-110978946D01*
X156042583Y-110992031D01*
X156035142Y-111004447D01*
X156026519Y-111016073D01*
X156016798Y-111026798D01*
X156006073Y-111036519D01*
X155994447Y-111045142D01*
X155982031Y-111052583D01*
X155968946Y-111058772D01*
X155955317Y-111063649D01*
X155941276Y-111067166D01*
X155926958Y-111069290D01*
X155912500Y-111070000D01*
X155617500Y-111070000D01*
X155603042Y-111069290D01*
X155588724Y-111067166D01*
X155574683Y-111063649D01*
X155561054Y-111058772D01*
X155547969Y-111052583D01*
X155535553Y-111045142D01*
X155523927Y-111036519D01*
X155513202Y-111026798D01*
X155503481Y-111016073D01*
X155494858Y-111004447D01*
X155487417Y-110992031D01*
X155481228Y-110978946D01*
X155476351Y-110965317D01*
X155472834Y-110951276D01*
X155470710Y-110936958D01*
X155470000Y-110922500D01*
X155470000Y-110577500D01*
X155470710Y-110563042D01*
X155472834Y-110548724D01*
X155476351Y-110534683D01*
X155481228Y-110521054D01*
X155487417Y-110507969D01*
X155494858Y-110495553D01*
X155503481Y-110483927D01*
X155513202Y-110473202D01*
X155523927Y-110463481D01*
X155535553Y-110454858D01*
X155547969Y-110447417D01*
X155561054Y-110441228D01*
X155574683Y-110436351D01*
X155588724Y-110432834D01*
X155603042Y-110430710D01*
X155617500Y-110430000D01*
X155912500Y-110430000D01*
X155926958Y-110430710D01*
X155926958Y-110430710D01*
G37*
D11*
G04 #@! TD*
G04 #@! TO.P,R4,2*
G04 #@! TO.N,Net-(D4-Pad1)*
X155765000Y-110750000D03*
D10*
G04 #@! TO.N,GND*
G04 #@! TO.C,R5*
G36*
X140396958Y-104680710D02*
X140411276Y-104682834D01*
X140425317Y-104686351D01*
X140438946Y-104691228D01*
X140452031Y-104697417D01*
X140464447Y-104704858D01*
X140476073Y-104713481D01*
X140486798Y-104723202D01*
X140496519Y-104733927D01*
X140505142Y-104745553D01*
X140512583Y-104757969D01*
X140518772Y-104771054D01*
X140523649Y-104784683D01*
X140527166Y-104798724D01*
X140529290Y-104813042D01*
X140530000Y-104827500D01*
X140530000Y-105172500D01*
X140529290Y-105186958D01*
X140527166Y-105201276D01*
X140523649Y-105215317D01*
X140518772Y-105228946D01*
X140512583Y-105242031D01*
X140505142Y-105254447D01*
X140496519Y-105266073D01*
X140486798Y-105276798D01*
X140476073Y-105286519D01*
X140464447Y-105295142D01*
X140452031Y-105302583D01*
X140438946Y-105308772D01*
X140425317Y-105313649D01*
X140411276Y-105317166D01*
X140396958Y-105319290D01*
X140382500Y-105320000D01*
X140087500Y-105320000D01*
X140073042Y-105319290D01*
X140058724Y-105317166D01*
X140044683Y-105313649D01*
X140031054Y-105308772D01*
X140017969Y-105302583D01*
X140005553Y-105295142D01*
X139993927Y-105286519D01*
X139983202Y-105276798D01*
X139973481Y-105266073D01*
X139964858Y-105254447D01*
X139957417Y-105242031D01*
X139951228Y-105228946D01*
X139946351Y-105215317D01*
X139942834Y-105201276D01*
X139940710Y-105186958D01*
X139940000Y-105172500D01*
X139940000Y-104827500D01*
X139940710Y-104813042D01*
X139942834Y-104798724D01*
X139946351Y-104784683D01*
X139951228Y-104771054D01*
X139957417Y-104757969D01*
X139964858Y-104745553D01*
X139973481Y-104733927D01*
X139983202Y-104723202D01*
X139993927Y-104713481D01*
X140005553Y-104704858D01*
X140017969Y-104697417D01*
X140031054Y-104691228D01*
X140044683Y-104686351D01*
X140058724Y-104682834D01*
X140073042Y-104680710D01*
X140087500Y-104680000D01*
X140382500Y-104680000D01*
X140396958Y-104680710D01*
X140396958Y-104680710D01*
G37*
D11*
G04 #@! TD*
G04 #@! TO.P,R5,1*
G04 #@! TO.N,GND*
X140235000Y-105000000D03*
D10*
G04 #@! TO.N,Net-(D7-Pad1)*
G04 #@! TO.C,R5*
G36*
X139426958Y-104680710D02*
X139441276Y-104682834D01*
X139455317Y-104686351D01*
X139468946Y-104691228D01*
X139482031Y-104697417D01*
X139494447Y-104704858D01*
X139506073Y-104713481D01*
X139516798Y-104723202D01*
X139526519Y-104733927D01*
X139535142Y-104745553D01*
X139542583Y-104757969D01*
X139548772Y-104771054D01*
X139553649Y-104784683D01*
X139557166Y-104798724D01*
X139559290Y-104813042D01*
X139560000Y-104827500D01*
X139560000Y-105172500D01*
X139559290Y-105186958D01*
X139557166Y-105201276D01*
X139553649Y-105215317D01*
X139548772Y-105228946D01*
X139542583Y-105242031D01*
X139535142Y-105254447D01*
X139526519Y-105266073D01*
X139516798Y-105276798D01*
X139506073Y-105286519D01*
X139494447Y-105295142D01*
X139482031Y-105302583D01*
X139468946Y-105308772D01*
X139455317Y-105313649D01*
X139441276Y-105317166D01*
X139426958Y-105319290D01*
X139412500Y-105320000D01*
X139117500Y-105320000D01*
X139103042Y-105319290D01*
X139088724Y-105317166D01*
X139074683Y-105313649D01*
X139061054Y-105308772D01*
X139047969Y-105302583D01*
X139035553Y-105295142D01*
X139023927Y-105286519D01*
X139013202Y-105276798D01*
X139003481Y-105266073D01*
X138994858Y-105254447D01*
X138987417Y-105242031D01*
X138981228Y-105228946D01*
X138976351Y-105215317D01*
X138972834Y-105201276D01*
X138970710Y-105186958D01*
X138970000Y-105172500D01*
X138970000Y-104827500D01*
X138970710Y-104813042D01*
X138972834Y-104798724D01*
X138976351Y-104784683D01*
X138981228Y-104771054D01*
X138987417Y-104757969D01*
X138994858Y-104745553D01*
X139003481Y-104733927D01*
X139013202Y-104723202D01*
X139023927Y-104713481D01*
X139035553Y-104704858D01*
X139047969Y-104697417D01*
X139061054Y-104691228D01*
X139074683Y-104686351D01*
X139088724Y-104682834D01*
X139103042Y-104680710D01*
X139117500Y-104680000D01*
X139412500Y-104680000D01*
X139426958Y-104680710D01*
X139426958Y-104680710D01*
G37*
D11*
G04 #@! TD*
G04 #@! TO.P,R5,2*
G04 #@! TO.N,Net-(D7-Pad1)*
X139265000Y-105000000D03*
D10*
G04 #@! TO.N,Net-(D5-Pad1)*
G04 #@! TO.C,R6*
G36*
X147426958Y-110430710D02*
X147441276Y-110432834D01*
X147455317Y-110436351D01*
X147468946Y-110441228D01*
X147482031Y-110447417D01*
X147494447Y-110454858D01*
X147506073Y-110463481D01*
X147516798Y-110473202D01*
X147526519Y-110483927D01*
X147535142Y-110495553D01*
X147542583Y-110507969D01*
X147548772Y-110521054D01*
X147553649Y-110534683D01*
X147557166Y-110548724D01*
X147559290Y-110563042D01*
X147560000Y-110577500D01*
X147560000Y-110922500D01*
X147559290Y-110936958D01*
X147557166Y-110951276D01*
X147553649Y-110965317D01*
X147548772Y-110978946D01*
X147542583Y-110992031D01*
X147535142Y-111004447D01*
X147526519Y-111016073D01*
X147516798Y-111026798D01*
X147506073Y-111036519D01*
X147494447Y-111045142D01*
X147482031Y-111052583D01*
X147468946Y-111058772D01*
X147455317Y-111063649D01*
X147441276Y-111067166D01*
X147426958Y-111069290D01*
X147412500Y-111070000D01*
X147117500Y-111070000D01*
X147103042Y-111069290D01*
X147088724Y-111067166D01*
X147074683Y-111063649D01*
X147061054Y-111058772D01*
X147047969Y-111052583D01*
X147035553Y-111045142D01*
X147023927Y-111036519D01*
X147013202Y-111026798D01*
X147003481Y-111016073D01*
X146994858Y-111004447D01*
X146987417Y-110992031D01*
X146981228Y-110978946D01*
X146976351Y-110965317D01*
X146972834Y-110951276D01*
X146970710Y-110936958D01*
X146970000Y-110922500D01*
X146970000Y-110577500D01*
X146970710Y-110563042D01*
X146972834Y-110548724D01*
X146976351Y-110534683D01*
X146981228Y-110521054D01*
X146987417Y-110507969D01*
X146994858Y-110495553D01*
X147003481Y-110483927D01*
X147013202Y-110473202D01*
X147023927Y-110463481D01*
X147035553Y-110454858D01*
X147047969Y-110447417D01*
X147061054Y-110441228D01*
X147074683Y-110436351D01*
X147088724Y-110432834D01*
X147103042Y-110430710D01*
X147117500Y-110430000D01*
X147412500Y-110430000D01*
X147426958Y-110430710D01*
X147426958Y-110430710D01*
G37*
D11*
G04 #@! TD*
G04 #@! TO.P,R6,2*
G04 #@! TO.N,Net-(D5-Pad1)*
X147265000Y-110750000D03*
D10*
G04 #@! TO.N,GND*
G04 #@! TO.C,R6*
G36*
X148396958Y-110430710D02*
X148411276Y-110432834D01*
X148425317Y-110436351D01*
X148438946Y-110441228D01*
X148452031Y-110447417D01*
X148464447Y-110454858D01*
X148476073Y-110463481D01*
X148486798Y-110473202D01*
X148496519Y-110483927D01*
X148505142Y-110495553D01*
X148512583Y-110507969D01*
X148518772Y-110521054D01*
X148523649Y-110534683D01*
X148527166Y-110548724D01*
X148529290Y-110563042D01*
X148530000Y-110577500D01*
X148530000Y-110922500D01*
X148529290Y-110936958D01*
X148527166Y-110951276D01*
X148523649Y-110965317D01*
X148518772Y-110978946D01*
X148512583Y-110992031D01*
X148505142Y-111004447D01*
X148496519Y-111016073D01*
X148486798Y-111026798D01*
X148476073Y-111036519D01*
X148464447Y-111045142D01*
X148452031Y-111052583D01*
X148438946Y-111058772D01*
X148425317Y-111063649D01*
X148411276Y-111067166D01*
X148396958Y-111069290D01*
X148382500Y-111070000D01*
X148087500Y-111070000D01*
X148073042Y-111069290D01*
X148058724Y-111067166D01*
X148044683Y-111063649D01*
X148031054Y-111058772D01*
X148017969Y-111052583D01*
X148005553Y-111045142D01*
X147993927Y-111036519D01*
X147983202Y-111026798D01*
X147973481Y-111016073D01*
X147964858Y-111004447D01*
X147957417Y-110992031D01*
X147951228Y-110978946D01*
X147946351Y-110965317D01*
X147942834Y-110951276D01*
X147940710Y-110936958D01*
X147940000Y-110922500D01*
X147940000Y-110577500D01*
X147940710Y-110563042D01*
X147942834Y-110548724D01*
X147946351Y-110534683D01*
X147951228Y-110521054D01*
X147957417Y-110507969D01*
X147964858Y-110495553D01*
X147973481Y-110483927D01*
X147983202Y-110473202D01*
X147993927Y-110463481D01*
X148005553Y-110454858D01*
X148017969Y-110447417D01*
X148031054Y-110441228D01*
X148044683Y-110436351D01*
X148058724Y-110432834D01*
X148073042Y-110430710D01*
X148087500Y-110430000D01*
X148382500Y-110430000D01*
X148396958Y-110430710D01*
X148396958Y-110430710D01*
G37*
D11*
G04 #@! TD*
G04 #@! TO.P,R6,1*
G04 #@! TO.N,GND*
X148235000Y-110750000D03*
D10*
G04 #@! TO.N,GND*
G04 #@! TO.C,R7*
G36*
X140396958Y-110430710D02*
X140411276Y-110432834D01*
X140425317Y-110436351D01*
X140438946Y-110441228D01*
X140452031Y-110447417D01*
X140464447Y-110454858D01*
X140476073Y-110463481D01*
X140486798Y-110473202D01*
X140496519Y-110483927D01*
X140505142Y-110495553D01*
X140512583Y-110507969D01*
X140518772Y-110521054D01*
X140523649Y-110534683D01*
X140527166Y-110548724D01*
X140529290Y-110563042D01*
X140530000Y-110577500D01*
X140530000Y-110922500D01*
X140529290Y-110936958D01*
X140527166Y-110951276D01*
X140523649Y-110965317D01*
X140518772Y-110978946D01*
X140512583Y-110992031D01*
X140505142Y-111004447D01*
X140496519Y-111016073D01*
X140486798Y-111026798D01*
X140476073Y-111036519D01*
X140464447Y-111045142D01*
X140452031Y-111052583D01*
X140438946Y-111058772D01*
X140425317Y-111063649D01*
X140411276Y-111067166D01*
X140396958Y-111069290D01*
X140382500Y-111070000D01*
X140087500Y-111070000D01*
X140073042Y-111069290D01*
X140058724Y-111067166D01*
X140044683Y-111063649D01*
X140031054Y-111058772D01*
X140017969Y-111052583D01*
X140005553Y-111045142D01*
X139993927Y-111036519D01*
X139983202Y-111026798D01*
X139973481Y-111016073D01*
X139964858Y-111004447D01*
X139957417Y-110992031D01*
X139951228Y-110978946D01*
X139946351Y-110965317D01*
X139942834Y-110951276D01*
X139940710Y-110936958D01*
X139940000Y-110922500D01*
X139940000Y-110577500D01*
X139940710Y-110563042D01*
X139942834Y-110548724D01*
X139946351Y-110534683D01*
X139951228Y-110521054D01*
X139957417Y-110507969D01*
X139964858Y-110495553D01*
X139973481Y-110483927D01*
X139983202Y-110473202D01*
X139993927Y-110463481D01*
X140005553Y-110454858D01*
X140017969Y-110447417D01*
X140031054Y-110441228D01*
X140044683Y-110436351D01*
X140058724Y-110432834D01*
X140073042Y-110430710D01*
X140087500Y-110430000D01*
X140382500Y-110430000D01*
X140396958Y-110430710D01*
X140396958Y-110430710D01*
G37*
D11*
G04 #@! TD*
G04 #@! TO.P,R7,1*
G04 #@! TO.N,GND*
X140235000Y-110750000D03*
D10*
G04 #@! TO.N,Net-(D6-Pad1)*
G04 #@! TO.C,R7*
G36*
X139426958Y-110430710D02*
X139441276Y-110432834D01*
X139455317Y-110436351D01*
X139468946Y-110441228D01*
X139482031Y-110447417D01*
X139494447Y-110454858D01*
X139506073Y-110463481D01*
X139516798Y-110473202D01*
X139526519Y-110483927D01*
X139535142Y-110495553D01*
X139542583Y-110507969D01*
X139548772Y-110521054D01*
X139553649Y-110534683D01*
X139557166Y-110548724D01*
X139559290Y-110563042D01*
X139560000Y-110577500D01*
X139560000Y-110922500D01*
X139559290Y-110936958D01*
X139557166Y-110951276D01*
X139553649Y-110965317D01*
X139548772Y-110978946D01*
X139542583Y-110992031D01*
X139535142Y-111004447D01*
X139526519Y-111016073D01*
X139516798Y-111026798D01*
X139506073Y-111036519D01*
X139494447Y-111045142D01*
X139482031Y-111052583D01*
X139468946Y-111058772D01*
X139455317Y-111063649D01*
X139441276Y-111067166D01*
X139426958Y-111069290D01*
X139412500Y-111070000D01*
X139117500Y-111070000D01*
X139103042Y-111069290D01*
X139088724Y-111067166D01*
X139074683Y-111063649D01*
X139061054Y-111058772D01*
X139047969Y-111052583D01*
X139035553Y-111045142D01*
X139023927Y-111036519D01*
X139013202Y-111026798D01*
X139003481Y-111016073D01*
X138994858Y-111004447D01*
X138987417Y-110992031D01*
X138981228Y-110978946D01*
X138976351Y-110965317D01*
X138972834Y-110951276D01*
X138970710Y-110936958D01*
X138970000Y-110922500D01*
X138970000Y-110577500D01*
X138970710Y-110563042D01*
X138972834Y-110548724D01*
X138976351Y-110534683D01*
X138981228Y-110521054D01*
X138987417Y-110507969D01*
X138994858Y-110495553D01*
X139003481Y-110483927D01*
X139013202Y-110473202D01*
X139023927Y-110463481D01*
X139035553Y-110454858D01*
X139047969Y-110447417D01*
X139061054Y-110441228D01*
X139074683Y-110436351D01*
X139088724Y-110432834D01*
X139103042Y-110430710D01*
X139117500Y-110430000D01*
X139412500Y-110430000D01*
X139426958Y-110430710D01*
X139426958Y-110430710D01*
G37*
D11*
G04 #@! TD*
G04 #@! TO.P,R7,2*
G04 #@! TO.N,Net-(D6-Pad1)*
X139265000Y-110750000D03*
D26*
G04 #@! TO.P,H1,1*
G04 #@! TO.N,GND*
X141750000Y-107750000D03*
G04 #@! TD*
G04 #@! TO.P,H2,1*
G04 #@! TO.N,GND*
X185750000Y-105250000D03*
G04 #@! TD*
D27*
G04 #@! TO.N,Net-(C1-Pad1)*
X152500000Y-105750000D03*
X152500000Y-103750000D03*
G04 #@! TO.N,GND*
X149250000Y-110750000D03*
X164750000Y-118000000D03*
X165750000Y-118000000D03*
X166750000Y-118000000D03*
X166750000Y-119000000D03*
X165750000Y-119000000D03*
X164750000Y-119000000D03*
X164750000Y-120000000D03*
X165750000Y-120000000D03*
X166750000Y-120000000D03*
X173000000Y-118000000D03*
X174000000Y-118000000D03*
X175000000Y-118000000D03*
X173000000Y-119000000D03*
X174000000Y-119000000D03*
X175000000Y-119000000D03*
X173000000Y-120000000D03*
X174000000Y-120000000D03*
X175000000Y-120000000D03*
X181500000Y-118000000D03*
X182500000Y-118000000D03*
X183500000Y-118000000D03*
X183500000Y-119000000D03*
X182500000Y-119000000D03*
X181500000Y-119000000D03*
X181500000Y-120000000D03*
X182500000Y-120000000D03*
X183500000Y-120000000D03*
X156250000Y-118000000D03*
X157250000Y-118000000D03*
X158250000Y-118000000D03*
X158250000Y-119000000D03*
X157250000Y-119000000D03*
X156250000Y-119000000D03*
X156250000Y-120000000D03*
X157250000Y-120000000D03*
X158250000Y-120000000D03*
X147750000Y-118000000D03*
X148750000Y-118000000D03*
X149750000Y-118000000D03*
X149750000Y-119000000D03*
X148750000Y-119000000D03*
X147750000Y-119000000D03*
X147750000Y-120000000D03*
X148750000Y-120000000D03*
X149750000Y-120000000D03*
X140500000Y-118000000D03*
X139500000Y-118000000D03*
X141500000Y-118000000D03*
X141500000Y-119000000D03*
X140500000Y-119000000D03*
X139500000Y-119000000D03*
X139500000Y-120000000D03*
X140500000Y-120000000D03*
X141500000Y-120000000D03*
X146500000Y-101750000D03*
X146500000Y-101750000D03*
X146500000Y-101750000D03*
X147500000Y-101750000D03*
X148500000Y-101750000D03*
X148500000Y-102750000D03*
X147500000Y-102750000D03*
X146500000Y-102750000D03*
X146500000Y-103750000D03*
X147500000Y-103750000D03*
X148500000Y-103750000D03*
X146500000Y-95250000D03*
X147500000Y-95250000D03*
X148500000Y-95250000D03*
X148500000Y-96250000D03*
X147500000Y-96250000D03*
X146500000Y-96250000D03*
X146500000Y-97250000D03*
X147500000Y-97250000D03*
X148500000Y-97250000D03*
X178750000Y-101000000D03*
X179750000Y-101000000D03*
X180750000Y-101000000D03*
X180750000Y-100000000D03*
X179750000Y-100000000D03*
X178750000Y-100000000D03*
X178750000Y-99000000D03*
X179750000Y-99000000D03*
X180750000Y-99000000D03*
X153250000Y-102500000D03*
X154250000Y-102500000D03*
X154250000Y-101500000D03*
G04 #@! TO.N,Net-(C4-Pad1)*
X156500000Y-104500000D03*
X155750000Y-99693600D03*
G04 #@! TO.N,+5V*
X160250000Y-102500000D03*
X158905000Y-97000000D03*
G04 #@! TO.N,GATE5*
X183000000Y-111750000D03*
X181750000Y-105500000D03*
G04 #@! TO.N,GATE4*
X179000000Y-109500000D03*
X174500000Y-112000000D03*
G04 #@! TO.N,GATE3*
X166250000Y-112000000D03*
X165500000Y-106250000D03*
G04 #@! TO.N,GATE2*
X162000000Y-109500000D03*
X157750000Y-112000000D03*
G04 #@! TO.N,GATE1*
X148500000Y-105500000D03*
X149250000Y-112000000D03*
G04 #@! TO.N,GATE0*
X145500000Y-109750000D03*
X141500000Y-112000000D03*
G04 #@! TD*
D28*
G04 #@! TO.N,Net-(C1-Pad1)*
X152500000Y-106053200D02*
X152500000Y-105750000D01*
X153525000Y-106500000D02*
X152946800Y-106500000D01*
X152946800Y-106500000D02*
X152500000Y-106053200D01*
X152500000Y-103750000D02*
X153265000Y-103750000D01*
G04 #@! TO.N,GND*
X151735000Y-107500000D02*
X151500000Y-107265000D01*
X153525000Y-107500000D02*
X151735000Y-107500000D01*
X153525000Y-107000000D02*
X153525000Y-107500000D01*
X155500000Y-105015000D02*
X155500000Y-105275000D01*
X154235000Y-103750000D02*
X155500000Y-105015000D01*
X155750000Y-105275000D02*
X155500000Y-105275000D01*
X155500000Y-105275000D02*
X155250000Y-105275000D01*
X148235000Y-110750000D02*
X149250000Y-110750000D01*
X140569168Y-106569168D02*
X141750000Y-107750000D01*
X140569168Y-105334168D02*
X140569168Y-106569168D01*
X140235000Y-105000000D02*
X140569168Y-105334168D01*
G04 #@! TO.N,+36V*
X154750000Y-105275000D02*
X154250000Y-105275000D01*
X153896800Y-105275000D02*
X154250000Y-105275000D01*
X153525000Y-106000000D02*
X153525000Y-105646800D01*
X153671800Y-105500000D02*
X153671800Y-105421800D01*
X153671800Y-105500000D02*
X153896800Y-105275000D01*
X153525000Y-105646800D02*
X153671800Y-105500000D01*
X153671800Y-105421800D02*
X153250000Y-105000000D01*
X153235000Y-105015000D02*
X151500000Y-105015000D01*
X153250000Y-105000000D02*
X153235000Y-105015000D01*
D29*
X151500000Y-100500000D02*
X142250000Y-100500000D01*
X140406400Y-103750000D02*
X140235000Y-103750000D01*
X142250000Y-101906400D02*
X140406400Y-103750000D01*
X142250000Y-100500000D02*
X142250000Y-101906400D01*
X142525300Y-101906400D02*
X146405000Y-105786100D01*
X146405000Y-105786100D02*
X146405000Y-106795000D01*
X142250000Y-101906400D02*
X142525300Y-101906400D01*
X146405000Y-107155000D02*
X147500000Y-108250000D01*
X146405000Y-106795000D02*
X146405000Y-107155000D01*
X151500000Y-101906400D02*
X151500000Y-105015000D01*
X151500000Y-100500000D02*
X151500000Y-101906400D01*
X151500000Y-100500000D02*
X159750000Y-100500000D01*
X162702500Y-103452500D02*
X162702500Y-106772500D01*
X159750000Y-100500000D02*
X162702500Y-103452500D01*
X162702500Y-107132500D02*
X163797500Y-108227500D01*
X162702500Y-106772500D02*
X162702500Y-107132500D01*
X178386100Y-106795000D02*
X179905000Y-106795000D01*
X175043600Y-103452500D02*
X178386100Y-106795000D01*
X162702500Y-103452500D02*
X175043600Y-103452500D01*
X179905000Y-107155000D02*
X181000000Y-108250000D01*
X179905000Y-106795000D02*
X179905000Y-107155000D01*
X147500000Y-108440000D02*
X146952500Y-108987500D01*
X147500000Y-108250000D02*
X147500000Y-108440000D01*
X146952500Y-106247500D02*
X146405000Y-106795000D01*
X146952500Y-106057500D02*
X146952500Y-106247500D01*
X180452500Y-106247500D02*
X179905000Y-106795000D01*
X180452500Y-106057500D02*
X180452500Y-106247500D01*
X180452500Y-108797500D02*
X181000000Y-108250000D01*
X180452500Y-108987500D02*
X180452500Y-108797500D01*
X163250000Y-108775000D02*
X163797500Y-108227500D01*
X163250000Y-108965000D02*
X163250000Y-108775000D01*
X163250000Y-106225000D02*
X162702500Y-106772500D01*
X163250000Y-106035000D02*
X163250000Y-106225000D01*
D28*
G04 #@! TO.N,Net-(C3-Pad1)*
X151510000Y-108225000D02*
X151500000Y-108235000D01*
X154250000Y-108225000D02*
X151510000Y-108225000D01*
G04 #@! TO.N,Net-(C4-Pad1)*
X156710000Y-106265000D02*
X156475000Y-106500000D01*
X158250000Y-106265000D02*
X156710000Y-106265000D01*
X156475000Y-106030000D02*
X156710000Y-106265000D01*
X156475000Y-106000000D02*
X156475000Y-106030000D01*
X156475000Y-106000000D02*
X156475000Y-104525000D01*
X156475000Y-104525000D02*
X156500000Y-104500000D01*
X155750000Y-97155000D02*
X155595000Y-97000000D01*
X155750000Y-99693600D02*
X155750000Y-97155000D01*
G04 #@! TO.N,Net-(C4-Pad2)*
X158015000Y-107000000D02*
X156475000Y-107000000D01*
X158250000Y-107235000D02*
X158015000Y-107000000D01*
G04 #@! TO.N,+5V*
X156475000Y-107853200D02*
X157121800Y-108500000D01*
X156475000Y-107500000D02*
X156475000Y-107853200D01*
X154750000Y-108803200D02*
X154946800Y-109000000D01*
X154750000Y-108225000D02*
X154750000Y-108803200D01*
X157121800Y-108500000D02*
X157250000Y-108500000D01*
X157250000Y-108500000D02*
X158750000Y-108500000D01*
D29*
X158750000Y-105025000D02*
X159250000Y-105525000D01*
X158750000Y-104437500D02*
X158750000Y-105025000D01*
X159250000Y-108000000D02*
X158750000Y-108500000D01*
X159250000Y-105525000D02*
X159250000Y-108000000D01*
X156531410Y-107556410D02*
X156475000Y-107556410D01*
X157475000Y-108500000D02*
X156531410Y-107556410D01*
X158750000Y-108500000D02*
X157475000Y-108500000D01*
X157475000Y-108500000D02*
X157250000Y-108500000D01*
X154953210Y-109006410D02*
X154946800Y-109000000D01*
X156743590Y-109006410D02*
X154953210Y-109006410D01*
X157250000Y-108500000D02*
X156743590Y-109006410D01*
X154953210Y-108953210D02*
X154743441Y-108743441D01*
X154953210Y-109006410D02*
X154953210Y-108953210D01*
X154743441Y-108743441D02*
X154750000Y-108736882D01*
X158750000Y-104437500D02*
X160250000Y-102937500D01*
X160250000Y-102937500D02*
X160250000Y-102500000D01*
X159901400Y-97000000D02*
X162151400Y-94750000D01*
X158905000Y-97000000D02*
X159901400Y-97000000D01*
X173343600Y-96500000D02*
X175500000Y-96500000D01*
X171593600Y-94750000D02*
X173343600Y-96500000D01*
X162151400Y-94750000D02*
X171593600Y-94750000D01*
X175500000Y-96500000D02*
X184750000Y-96500000D01*
D28*
G04 #@! TO.N,GATE5*
X181985000Y-111950000D02*
X182800000Y-111950000D01*
X182800000Y-111950000D02*
X183000000Y-111750000D01*
X181750000Y-106360000D02*
X181812500Y-106422500D01*
X181750000Y-105500000D02*
X181750000Y-106360000D01*
G04 #@! TO.N,GATE4*
X179000000Y-109500000D02*
X179000000Y-108750000D01*
X179092400Y-108657600D02*
X179092400Y-108622500D01*
X179000000Y-108750000D02*
X179092400Y-108657600D01*
X174500000Y-112000000D02*
X173485000Y-112000000D01*
G04 #@! TO.N,GATE3*
X165235000Y-112000000D02*
X166250000Y-112000000D01*
X164760000Y-106250000D02*
X164610000Y-106400000D01*
X165500000Y-106250000D02*
X164760000Y-106250000D01*
G04 #@! TO.N,GATE2*
X162000000Y-108710100D02*
X161889900Y-108600000D01*
X162000000Y-109500000D02*
X162000000Y-108710100D01*
X157750000Y-112000000D02*
X156735000Y-112000000D01*
G04 #@! TO.N,GATE1*
X148100001Y-105899999D02*
X148100001Y-106100001D01*
X148500000Y-105500000D02*
X148100001Y-105899999D01*
X148312500Y-106312500D02*
X148312500Y-106422500D01*
X148100001Y-106100001D02*
X148312500Y-106312500D01*
X149250000Y-112000000D02*
X148235000Y-112000000D01*
G04 #@! TO.N,GATE0*
X145592400Y-108606042D02*
X145592400Y-108622500D01*
X145500000Y-108513642D02*
X145592400Y-108606042D01*
X145500000Y-109750000D02*
X145500000Y-108513642D01*
X141500000Y-112000000D02*
X140235000Y-112000000D01*
D29*
G04 #@! TO.N,Net-(J1-Pad1)*
X144500000Y-112993600D02*
X144500000Y-115150000D01*
X144896100Y-107972500D02*
X144500000Y-108368600D01*
X144500000Y-108368600D02*
X144500000Y-112993600D01*
X145592500Y-107972500D02*
X144896100Y-107972500D01*
X144500000Y-117306400D02*
X144500000Y-124400000D01*
X144500000Y-115150000D02*
X144500000Y-117306400D01*
G04 #@! TO.N,Net-(J2-Pad1)*
X149008900Y-107072500D02*
X150000000Y-108063600D01*
X148312500Y-107072500D02*
X149008900Y-107072500D01*
X150000000Y-108063600D02*
X150000000Y-109750000D01*
X152800000Y-112550000D02*
X152800000Y-115150000D01*
X150000000Y-109750000D02*
X152800000Y-112550000D01*
X152800000Y-117306400D02*
X152800000Y-124400000D01*
X152800000Y-115150000D02*
X152800000Y-117306400D01*
G04 #@! TO.N,Net-(J3-Pad1)*
X161193600Y-107950000D02*
X161000000Y-108143600D01*
X161890000Y-107950000D02*
X161193600Y-107950000D01*
X161200000Y-112993600D02*
X161200000Y-115150000D01*
X161000000Y-112793600D02*
X161200000Y-112993600D01*
X161000000Y-108143600D02*
X161000000Y-112793600D01*
X161200000Y-117306400D02*
X161200000Y-124400000D01*
X161200000Y-115150000D02*
X161200000Y-117306400D01*
G04 #@! TO.N,Net-(J4-Pad1)*
X169600000Y-111343600D02*
X169600000Y-112993600D01*
X169600000Y-112993600D02*
X169600000Y-115150000D01*
X165306400Y-107050000D02*
X169600000Y-111343600D01*
X164610000Y-107050000D02*
X165306400Y-107050000D01*
X169600000Y-117306400D02*
X169600000Y-124400000D01*
X169600000Y-115150000D02*
X169600000Y-117306400D01*
G04 #@! TO.N,Net-(J5-Pad1)*
X178000000Y-108368600D02*
X178000000Y-112993600D01*
X178000000Y-112993600D02*
X178000000Y-115150000D01*
X178396100Y-107972500D02*
X178000000Y-108368600D01*
X179092500Y-107972500D02*
X178396100Y-107972500D01*
X178000000Y-117306400D02*
X178000000Y-124400000D01*
X178000000Y-115150000D02*
X178000000Y-117306400D01*
G04 #@! TO.N,Net-(J8-Pad1)*
X186400000Y-112993600D02*
X186400000Y-115150000D01*
X186400000Y-110963600D02*
X186400000Y-112993600D01*
X182508900Y-107072500D02*
X186400000Y-110963600D01*
X181812500Y-107072500D02*
X182508900Y-107072500D01*
X186400000Y-117306400D02*
X186400000Y-124400000D01*
X186400000Y-115150000D02*
X186400000Y-117306400D01*
D28*
G04 #@! TO.N,Net-(D1-Pad1)*
X181015000Y-110750000D02*
X181015000Y-111950000D01*
G04 #@! TO.N,Net-(D2-Pad1)*
X172500000Y-111985000D02*
X172515000Y-112000000D01*
X172500000Y-110750000D02*
X172500000Y-111985000D01*
G04 #@! TO.N,Net-(D3-Pad1)*
X164265000Y-110750000D02*
X164265000Y-112000000D01*
G04 #@! TO.N,Net-(D4-Pad1)*
X155765000Y-110750000D02*
X155765000Y-112000000D01*
G04 #@! TO.N,Net-(D5-Pad1)*
X147265000Y-110750000D02*
X147265000Y-112000000D01*
G04 #@! TO.N,Net-(D6-Pad1)*
X139265000Y-110750000D02*
X139265000Y-112000000D01*
G04 #@! TO.N,Net-(D7-Pad1)*
X139265000Y-103750000D02*
X139265000Y-105000000D01*
G04 #@! TD*
D30*
G04 #@! TO.N,GND*
G36*
X161864300Y-103799694D02*
X161864301Y-105522560D01*
X161590000Y-105522560D01*
X161342235Y-105571843D01*
X161132191Y-105712191D01*
X160991843Y-105922235D01*
X160942560Y-106170000D01*
X160942560Y-107145314D01*
X160866551Y-107160433D01*
X160589292Y-107345692D01*
X160542528Y-107415679D01*
X160465679Y-107492528D01*
X160395692Y-107539292D01*
X160210433Y-107816552D01*
X160161800Y-108061047D01*
X160161800Y-108061051D01*
X160145380Y-108143600D01*
X160161800Y-108226149D01*
X160161801Y-112711046D01*
X160151630Y-112762181D01*
X159952235Y-112801843D01*
X159742191Y-112942191D01*
X159601843Y-113152235D01*
X159552560Y-113400000D01*
X159552560Y-116900000D01*
X159601843Y-117147765D01*
X159742191Y-117357809D01*
X159952235Y-117498157D01*
X160200000Y-117547440D01*
X160361800Y-117547440D01*
X160361800Y-120752560D01*
X160200000Y-120752560D01*
X159952235Y-120801843D01*
X159742191Y-120942191D01*
X159601843Y-121152235D01*
X159552560Y-121400000D01*
X159552560Y-127290000D01*
X158835000Y-127290000D01*
X158835000Y-124685750D01*
X158676250Y-124527000D01*
X157327000Y-124527000D01*
X157327000Y-124547000D01*
X157073000Y-124547000D01*
X157073000Y-124527000D01*
X155723750Y-124527000D01*
X155565000Y-124685750D01*
X155565000Y-127290000D01*
X154447440Y-127290000D01*
X154447440Y-121400000D01*
X154422316Y-121273690D01*
X155565000Y-121273690D01*
X155565000Y-124114250D01*
X155723750Y-124273000D01*
X157073000Y-124273000D01*
X157073000Y-120923750D01*
X157327000Y-120923750D01*
X157327000Y-124273000D01*
X158676250Y-124273000D01*
X158835000Y-124114250D01*
X158835000Y-121273690D01*
X158738327Y-121040301D01*
X158559698Y-120861673D01*
X158326309Y-120765000D01*
X157485750Y-120765000D01*
X157327000Y-120923750D01*
X157073000Y-120923750D01*
X156914250Y-120765000D01*
X156073691Y-120765000D01*
X155840302Y-120861673D01*
X155661673Y-121040301D01*
X155565000Y-121273690D01*
X154422316Y-121273690D01*
X154398157Y-121152235D01*
X154257809Y-120942191D01*
X154047765Y-120801843D01*
X153800000Y-120752560D01*
X153638200Y-120752560D01*
X153638200Y-117547440D01*
X153800000Y-117547440D01*
X154047765Y-117498157D01*
X154257809Y-117357809D01*
X154398157Y-117147765D01*
X154447440Y-116900000D01*
X154447440Y-115435750D01*
X155565000Y-115435750D01*
X155565000Y-117026310D01*
X155661673Y-117259699D01*
X155840302Y-117438327D01*
X156073691Y-117535000D01*
X156914250Y-117535000D01*
X157073000Y-117376250D01*
X157073000Y-115277000D01*
X157327000Y-115277000D01*
X157327000Y-117376250D01*
X157485750Y-117535000D01*
X158326309Y-117535000D01*
X158559698Y-117438327D01*
X158738327Y-117259699D01*
X158835000Y-117026310D01*
X158835000Y-115435750D01*
X158676250Y-115277000D01*
X157327000Y-115277000D01*
X157073000Y-115277000D01*
X155723750Y-115277000D01*
X155565000Y-115435750D01*
X154447440Y-115435750D01*
X154447440Y-113400000D01*
X154398157Y-113152235D01*
X154257809Y-112942191D01*
X154047765Y-112801843D01*
X153800000Y-112752560D01*
X153638200Y-112752560D01*
X153638200Y-112632549D01*
X153654620Y-112550000D01*
X153638200Y-112467451D01*
X153638200Y-112467446D01*
X153589567Y-112222951D01*
X153489068Y-112072544D01*
X153451071Y-112015677D01*
X153451070Y-112015676D01*
X153404308Y-111945692D01*
X153334325Y-111898931D01*
X150838200Y-109402807D01*
X150838200Y-108993255D01*
X151023290Y-109116929D01*
X151327500Y-109177440D01*
X151672500Y-109177440D01*
X151976710Y-109116929D01*
X152209175Y-108961600D01*
X153647730Y-108961600D01*
X153684048Y-109015953D01*
X153943709Y-109189454D01*
X154047106Y-109210021D01*
X154139133Y-109347749D01*
X154196820Y-109386294D01*
X154295729Y-109534322D01*
X154302139Y-109540732D01*
X154348902Y-109610718D01*
X154626161Y-109795977D01*
X154953210Y-109861031D01*
X155035764Y-109844610D01*
X155310987Y-109844610D01*
X155055393Y-110015393D01*
X154883071Y-110273290D01*
X154822560Y-110577500D01*
X154822560Y-110922500D01*
X154883071Y-111226710D01*
X154982156Y-111375000D01*
X154883071Y-111523290D01*
X154822560Y-111827500D01*
X154822560Y-112172500D01*
X154883071Y-112476710D01*
X155055393Y-112734607D01*
X155313290Y-112906929D01*
X155617500Y-112967440D01*
X155734534Y-112967440D01*
X155661673Y-113040301D01*
X155565000Y-113273690D01*
X155565000Y-114864250D01*
X155723750Y-115023000D01*
X157073000Y-115023000D01*
X157073000Y-115003000D01*
X157327000Y-115003000D01*
X157327000Y-115023000D01*
X158676250Y-115023000D01*
X158835000Y-114864250D01*
X158835000Y-113273690D01*
X158738327Y-113040301D01*
X158559698Y-112861673D01*
X158412860Y-112800851D01*
X158627431Y-112586280D01*
X158785000Y-112205874D01*
X158785000Y-111794126D01*
X158627431Y-111413720D01*
X158336280Y-111122569D01*
X157955874Y-110965000D01*
X157594250Y-110965000D01*
X157506250Y-110877000D01*
X156862000Y-110877000D01*
X156862000Y-110897000D01*
X156707440Y-110897000D01*
X156707440Y-110603000D01*
X156862000Y-110603000D01*
X156862000Y-110623000D01*
X157506250Y-110623000D01*
X157665000Y-110464250D01*
X157665000Y-110303690D01*
X157568327Y-110070301D01*
X157389698Y-109891673D01*
X157156309Y-109795000D01*
X157072101Y-109795000D01*
X157347898Y-109610718D01*
X157394662Y-109540731D01*
X157597193Y-109338200D01*
X158667451Y-109338200D01*
X158750000Y-109354620D01*
X158832549Y-109338200D01*
X158832554Y-109338200D01*
X159077049Y-109289567D01*
X159354308Y-109104308D01*
X159401072Y-109034321D01*
X159784321Y-108651072D01*
X159854308Y-108604308D01*
X160039567Y-108327049D01*
X160088200Y-108082554D01*
X160088200Y-108082549D01*
X160104620Y-108000000D01*
X160088200Y-107917451D01*
X160088200Y-105607549D01*
X160104620Y-105525000D01*
X160088200Y-105442451D01*
X160088200Y-105442446D01*
X160039567Y-105197951D01*
X159975899Y-105102666D01*
X160029602Y-105022294D01*
X160097440Y-104681250D01*
X160097440Y-104275454D01*
X160784325Y-103588569D01*
X160854308Y-103541808D01*
X160907238Y-103462594D01*
X161039566Y-103264550D01*
X161039567Y-103264549D01*
X161062015Y-103151696D01*
X161127431Y-103086280D01*
X161134301Y-103069695D01*
X161864300Y-103799694D01*
X161864300Y-103799694D01*
G37*
X161864300Y-103799694D02*
X161864301Y-105522560D01*
X161590000Y-105522560D01*
X161342235Y-105571843D01*
X161132191Y-105712191D01*
X160991843Y-105922235D01*
X160942560Y-106170000D01*
X160942560Y-107145314D01*
X160866551Y-107160433D01*
X160589292Y-107345692D01*
X160542528Y-107415679D01*
X160465679Y-107492528D01*
X160395692Y-107539292D01*
X160210433Y-107816552D01*
X160161800Y-108061047D01*
X160161800Y-108061051D01*
X160145380Y-108143600D01*
X160161800Y-108226149D01*
X160161801Y-112711046D01*
X160151630Y-112762181D01*
X159952235Y-112801843D01*
X159742191Y-112942191D01*
X159601843Y-113152235D01*
X159552560Y-113400000D01*
X159552560Y-116900000D01*
X159601843Y-117147765D01*
X159742191Y-117357809D01*
X159952235Y-117498157D01*
X160200000Y-117547440D01*
X160361800Y-117547440D01*
X160361800Y-120752560D01*
X160200000Y-120752560D01*
X159952235Y-120801843D01*
X159742191Y-120942191D01*
X159601843Y-121152235D01*
X159552560Y-121400000D01*
X159552560Y-127290000D01*
X158835000Y-127290000D01*
X158835000Y-124685750D01*
X158676250Y-124527000D01*
X157327000Y-124527000D01*
X157327000Y-124547000D01*
X157073000Y-124547000D01*
X157073000Y-124527000D01*
X155723750Y-124527000D01*
X155565000Y-124685750D01*
X155565000Y-127290000D01*
X154447440Y-127290000D01*
X154447440Y-121400000D01*
X154422316Y-121273690D01*
X155565000Y-121273690D01*
X155565000Y-124114250D01*
X155723750Y-124273000D01*
X157073000Y-124273000D01*
X157073000Y-120923750D01*
X157327000Y-120923750D01*
X157327000Y-124273000D01*
X158676250Y-124273000D01*
X158835000Y-124114250D01*
X158835000Y-121273690D01*
X158738327Y-121040301D01*
X158559698Y-120861673D01*
X158326309Y-120765000D01*
X157485750Y-120765000D01*
X157327000Y-120923750D01*
X157073000Y-120923750D01*
X156914250Y-120765000D01*
X156073691Y-120765000D01*
X155840302Y-120861673D01*
X155661673Y-121040301D01*
X155565000Y-121273690D01*
X154422316Y-121273690D01*
X154398157Y-121152235D01*
X154257809Y-120942191D01*
X154047765Y-120801843D01*
X153800000Y-120752560D01*
X153638200Y-120752560D01*
X153638200Y-117547440D01*
X153800000Y-117547440D01*
X154047765Y-117498157D01*
X154257809Y-117357809D01*
X154398157Y-117147765D01*
X154447440Y-116900000D01*
X154447440Y-115435750D01*
X155565000Y-115435750D01*
X155565000Y-117026310D01*
X155661673Y-117259699D01*
X155840302Y-117438327D01*
X156073691Y-117535000D01*
X156914250Y-117535000D01*
X157073000Y-117376250D01*
X157073000Y-115277000D01*
X157327000Y-115277000D01*
X157327000Y-117376250D01*
X157485750Y-117535000D01*
X158326309Y-117535000D01*
X158559698Y-117438327D01*
X158738327Y-117259699D01*
X158835000Y-117026310D01*
X158835000Y-115435750D01*
X158676250Y-115277000D01*
X157327000Y-115277000D01*
X157073000Y-115277000D01*
X155723750Y-115277000D01*
X155565000Y-115435750D01*
X154447440Y-115435750D01*
X154447440Y-113400000D01*
X154398157Y-113152235D01*
X154257809Y-112942191D01*
X154047765Y-112801843D01*
X153800000Y-112752560D01*
X153638200Y-112752560D01*
X153638200Y-112632549D01*
X153654620Y-112550000D01*
X153638200Y-112467451D01*
X153638200Y-112467446D01*
X153589567Y-112222951D01*
X153489068Y-112072544D01*
X153451071Y-112015677D01*
X153451070Y-112015676D01*
X153404308Y-111945692D01*
X153334325Y-111898931D01*
X150838200Y-109402807D01*
X150838200Y-108993255D01*
X151023290Y-109116929D01*
X151327500Y-109177440D01*
X151672500Y-109177440D01*
X151976710Y-109116929D01*
X152209175Y-108961600D01*
X153647730Y-108961600D01*
X153684048Y-109015953D01*
X153943709Y-109189454D01*
X154047106Y-109210021D01*
X154139133Y-109347749D01*
X154196820Y-109386294D01*
X154295729Y-109534322D01*
X154302139Y-109540732D01*
X154348902Y-109610718D01*
X154626161Y-109795977D01*
X154953210Y-109861031D01*
X155035764Y-109844610D01*
X155310987Y-109844610D01*
X155055393Y-110015393D01*
X154883071Y-110273290D01*
X154822560Y-110577500D01*
X154822560Y-110922500D01*
X154883071Y-111226710D01*
X154982156Y-111375000D01*
X154883071Y-111523290D01*
X154822560Y-111827500D01*
X154822560Y-112172500D01*
X154883071Y-112476710D01*
X155055393Y-112734607D01*
X155313290Y-112906929D01*
X155617500Y-112967440D01*
X155734534Y-112967440D01*
X155661673Y-113040301D01*
X155565000Y-113273690D01*
X155565000Y-114864250D01*
X155723750Y-115023000D01*
X157073000Y-115023000D01*
X157073000Y-115003000D01*
X157327000Y-115003000D01*
X157327000Y-115023000D01*
X158676250Y-115023000D01*
X158835000Y-114864250D01*
X158835000Y-113273690D01*
X158738327Y-113040301D01*
X158559698Y-112861673D01*
X158412860Y-112800851D01*
X158627431Y-112586280D01*
X158785000Y-112205874D01*
X158785000Y-111794126D01*
X158627431Y-111413720D01*
X158336280Y-111122569D01*
X157955874Y-110965000D01*
X157594250Y-110965000D01*
X157506250Y-110877000D01*
X156862000Y-110877000D01*
X156862000Y-110897000D01*
X156707440Y-110897000D01*
X156707440Y-110603000D01*
X156862000Y-110603000D01*
X156862000Y-110623000D01*
X157506250Y-110623000D01*
X157665000Y-110464250D01*
X157665000Y-110303690D01*
X157568327Y-110070301D01*
X157389698Y-109891673D01*
X157156309Y-109795000D01*
X157072101Y-109795000D01*
X157347898Y-109610718D01*
X157394662Y-109540731D01*
X157597193Y-109338200D01*
X158667451Y-109338200D01*
X158750000Y-109354620D01*
X158832549Y-109338200D01*
X158832554Y-109338200D01*
X159077049Y-109289567D01*
X159354308Y-109104308D01*
X159401072Y-109034321D01*
X159784321Y-108651072D01*
X159854308Y-108604308D01*
X160039567Y-108327049D01*
X160088200Y-108082554D01*
X160088200Y-108082549D01*
X160104620Y-108000000D01*
X160088200Y-107917451D01*
X160088200Y-105607549D01*
X160104620Y-105525000D01*
X160088200Y-105442451D01*
X160088200Y-105442446D01*
X160039567Y-105197951D01*
X159975899Y-105102666D01*
X160029602Y-105022294D01*
X160097440Y-104681250D01*
X160097440Y-104275454D01*
X160784325Y-103588569D01*
X160854308Y-103541808D01*
X160907238Y-103462594D01*
X161039566Y-103264550D01*
X161039567Y-103264549D01*
X161062015Y-103151696D01*
X161127431Y-103086280D01*
X161134301Y-103069695D01*
X161864300Y-103799694D01*
G36*
X177735030Y-107329324D02*
X177776396Y-107391233D01*
X177745028Y-107438179D01*
X177465679Y-107717528D01*
X177395692Y-107764292D01*
X177210433Y-108041552D01*
X177161800Y-108286047D01*
X177161800Y-108286051D01*
X177145380Y-108368600D01*
X177161800Y-108451149D01*
X177161801Y-112752560D01*
X177000000Y-112752560D01*
X176752235Y-112801843D01*
X176542191Y-112942191D01*
X176401843Y-113152235D01*
X176352560Y-113400000D01*
X176352560Y-116900000D01*
X176401843Y-117147765D01*
X176542191Y-117357809D01*
X176752235Y-117498157D01*
X177000000Y-117547440D01*
X177161800Y-117547440D01*
X177161800Y-120752560D01*
X177000000Y-120752560D01*
X176752235Y-120801843D01*
X176542191Y-120942191D01*
X176401843Y-121152235D01*
X176352560Y-121400000D01*
X176352560Y-127290000D01*
X175635000Y-127290000D01*
X175635000Y-124685750D01*
X175476250Y-124527000D01*
X174127000Y-124527000D01*
X174127000Y-124547000D01*
X173873000Y-124547000D01*
X173873000Y-124527000D01*
X172523750Y-124527000D01*
X172365000Y-124685750D01*
X172365000Y-127290000D01*
X171247440Y-127290000D01*
X171247440Y-121400000D01*
X171222316Y-121273690D01*
X172365000Y-121273690D01*
X172365000Y-124114250D01*
X172523750Y-124273000D01*
X173873000Y-124273000D01*
X173873000Y-120923750D01*
X174127000Y-120923750D01*
X174127000Y-124273000D01*
X175476250Y-124273000D01*
X175635000Y-124114250D01*
X175635000Y-121273690D01*
X175538327Y-121040301D01*
X175359698Y-120861673D01*
X175126309Y-120765000D01*
X174285750Y-120765000D01*
X174127000Y-120923750D01*
X173873000Y-120923750D01*
X173714250Y-120765000D01*
X172873691Y-120765000D01*
X172640302Y-120861673D01*
X172461673Y-121040301D01*
X172365000Y-121273690D01*
X171222316Y-121273690D01*
X171198157Y-121152235D01*
X171057809Y-120942191D01*
X170847765Y-120801843D01*
X170600000Y-120752560D01*
X170438200Y-120752560D01*
X170438200Y-117547440D01*
X170600000Y-117547440D01*
X170847765Y-117498157D01*
X171057809Y-117357809D01*
X171198157Y-117147765D01*
X171247440Y-116900000D01*
X171247440Y-115435750D01*
X172365000Y-115435750D01*
X172365000Y-117026310D01*
X172461673Y-117259699D01*
X172640302Y-117438327D01*
X172873691Y-117535000D01*
X173714250Y-117535000D01*
X173873000Y-117376250D01*
X173873000Y-115277000D01*
X174127000Y-115277000D01*
X174127000Y-117376250D01*
X174285750Y-117535000D01*
X175126309Y-117535000D01*
X175359698Y-117438327D01*
X175538327Y-117259699D01*
X175635000Y-117026310D01*
X175635000Y-115435750D01*
X175476250Y-115277000D01*
X174127000Y-115277000D01*
X173873000Y-115277000D01*
X172523750Y-115277000D01*
X172365000Y-115435750D01*
X171247440Y-115435750D01*
X171247440Y-113400000D01*
X171198157Y-113152235D01*
X171057809Y-112942191D01*
X170847765Y-112801843D01*
X170600000Y-112752560D01*
X170438200Y-112752560D01*
X170438200Y-111426148D01*
X170454620Y-111343599D01*
X170438200Y-111261050D01*
X170438200Y-111261046D01*
X170389567Y-111016551D01*
X170204308Y-110739292D01*
X170134325Y-110692531D01*
X170019294Y-110577500D01*
X171557560Y-110577500D01*
X171557560Y-110922500D01*
X171618071Y-111226710D01*
X171724656Y-111386224D01*
X171633071Y-111523290D01*
X171572560Y-111827500D01*
X171572560Y-112172500D01*
X171633071Y-112476710D01*
X171805393Y-112734607D01*
X172063290Y-112906929D01*
X172367500Y-112967440D01*
X172534534Y-112967440D01*
X172461673Y-113040301D01*
X172365000Y-113273690D01*
X172365000Y-114864250D01*
X172523750Y-115023000D01*
X173873000Y-115023000D01*
X173873000Y-115003000D01*
X174127000Y-115003000D01*
X174127000Y-115023000D01*
X175476250Y-115023000D01*
X175635000Y-114864250D01*
X175635000Y-113273690D01*
X175538327Y-113040301D01*
X175359698Y-112861673D01*
X175177505Y-112786206D01*
X175377431Y-112586280D01*
X175535000Y-112205874D01*
X175535000Y-111794126D01*
X175377431Y-111413720D01*
X175086280Y-111122569D01*
X174705874Y-110965000D01*
X174329250Y-110965000D01*
X174241250Y-110877000D01*
X173597000Y-110877000D01*
X173597000Y-110897000D01*
X173442440Y-110897000D01*
X173442440Y-110577500D01*
X173381929Y-110273290D01*
X173343000Y-110215029D01*
X173343000Y-109953750D01*
X173597000Y-109953750D01*
X173597000Y-110623000D01*
X174241250Y-110623000D01*
X174400000Y-110464250D01*
X174400000Y-110303690D01*
X174303327Y-110070301D01*
X174124698Y-109891673D01*
X173891309Y-109795000D01*
X173755750Y-109795000D01*
X173597000Y-109953750D01*
X173343000Y-109953750D01*
X173184250Y-109795000D01*
X173048691Y-109795000D01*
X172938825Y-109840508D01*
X172647500Y-109782560D01*
X172352500Y-109782560D01*
X172048290Y-109843071D01*
X171790393Y-110015393D01*
X171618071Y-110273290D01*
X171557560Y-110577500D01*
X170019294Y-110577500D01*
X166327752Y-106885959D01*
X166377431Y-106836280D01*
X166535000Y-106455874D01*
X166535000Y-106044126D01*
X166377431Y-105663720D01*
X166086280Y-105372569D01*
X165705874Y-105215000D01*
X165294126Y-105215000D01*
X164913720Y-105372569D01*
X164782786Y-105503503D01*
X164759999Y-105498971D01*
X164687459Y-105513400D01*
X164687456Y-105513400D01*
X164490586Y-105552560D01*
X164320000Y-105552560D01*
X164099536Y-105596413D01*
X164062765Y-105571843D01*
X164039797Y-105567274D01*
X163922809Y-105392191D01*
X163712765Y-105251843D01*
X163540700Y-105217618D01*
X163540700Y-104290700D01*
X174696407Y-104290700D01*
X177735030Y-107329324D01*
X177735030Y-107329324D01*
G37*
X177735030Y-107329324D02*
X177776396Y-107391233D01*
X177745028Y-107438179D01*
X177465679Y-107717528D01*
X177395692Y-107764292D01*
X177210433Y-108041552D01*
X177161800Y-108286047D01*
X177161800Y-108286051D01*
X177145380Y-108368600D01*
X177161800Y-108451149D01*
X177161801Y-112752560D01*
X177000000Y-112752560D01*
X176752235Y-112801843D01*
X176542191Y-112942191D01*
X176401843Y-113152235D01*
X176352560Y-113400000D01*
X176352560Y-116900000D01*
X176401843Y-117147765D01*
X176542191Y-117357809D01*
X176752235Y-117498157D01*
X177000000Y-117547440D01*
X177161800Y-117547440D01*
X177161800Y-120752560D01*
X177000000Y-120752560D01*
X176752235Y-120801843D01*
X176542191Y-120942191D01*
X176401843Y-121152235D01*
X176352560Y-121400000D01*
X176352560Y-127290000D01*
X175635000Y-127290000D01*
X175635000Y-124685750D01*
X175476250Y-124527000D01*
X174127000Y-124527000D01*
X174127000Y-124547000D01*
X173873000Y-124547000D01*
X173873000Y-124527000D01*
X172523750Y-124527000D01*
X172365000Y-124685750D01*
X172365000Y-127290000D01*
X171247440Y-127290000D01*
X171247440Y-121400000D01*
X171222316Y-121273690D01*
X172365000Y-121273690D01*
X172365000Y-124114250D01*
X172523750Y-124273000D01*
X173873000Y-124273000D01*
X173873000Y-120923750D01*
X174127000Y-120923750D01*
X174127000Y-124273000D01*
X175476250Y-124273000D01*
X175635000Y-124114250D01*
X175635000Y-121273690D01*
X175538327Y-121040301D01*
X175359698Y-120861673D01*
X175126309Y-120765000D01*
X174285750Y-120765000D01*
X174127000Y-120923750D01*
X173873000Y-120923750D01*
X173714250Y-120765000D01*
X172873691Y-120765000D01*
X172640302Y-120861673D01*
X172461673Y-121040301D01*
X172365000Y-121273690D01*
X171222316Y-121273690D01*
X171198157Y-121152235D01*
X171057809Y-120942191D01*
X170847765Y-120801843D01*
X170600000Y-120752560D01*
X170438200Y-120752560D01*
X170438200Y-117547440D01*
X170600000Y-117547440D01*
X170847765Y-117498157D01*
X171057809Y-117357809D01*
X171198157Y-117147765D01*
X171247440Y-116900000D01*
X171247440Y-115435750D01*
X172365000Y-115435750D01*
X172365000Y-117026310D01*
X172461673Y-117259699D01*
X172640302Y-117438327D01*
X172873691Y-117535000D01*
X173714250Y-117535000D01*
X173873000Y-117376250D01*
X173873000Y-115277000D01*
X174127000Y-115277000D01*
X174127000Y-117376250D01*
X174285750Y-117535000D01*
X175126309Y-117535000D01*
X175359698Y-117438327D01*
X175538327Y-117259699D01*
X175635000Y-117026310D01*
X175635000Y-115435750D01*
X175476250Y-115277000D01*
X174127000Y-115277000D01*
X173873000Y-115277000D01*
X172523750Y-115277000D01*
X172365000Y-115435750D01*
X171247440Y-115435750D01*
X171247440Y-113400000D01*
X171198157Y-113152235D01*
X171057809Y-112942191D01*
X170847765Y-112801843D01*
X170600000Y-112752560D01*
X170438200Y-112752560D01*
X170438200Y-111426148D01*
X170454620Y-111343599D01*
X170438200Y-111261050D01*
X170438200Y-111261046D01*
X170389567Y-111016551D01*
X170204308Y-110739292D01*
X170134325Y-110692531D01*
X170019294Y-110577500D01*
X171557560Y-110577500D01*
X171557560Y-110922500D01*
X171618071Y-111226710D01*
X171724656Y-111386224D01*
X171633071Y-111523290D01*
X171572560Y-111827500D01*
X171572560Y-112172500D01*
X171633071Y-112476710D01*
X171805393Y-112734607D01*
X172063290Y-112906929D01*
X172367500Y-112967440D01*
X172534534Y-112967440D01*
X172461673Y-113040301D01*
X172365000Y-113273690D01*
X172365000Y-114864250D01*
X172523750Y-115023000D01*
X173873000Y-115023000D01*
X173873000Y-115003000D01*
X174127000Y-115003000D01*
X174127000Y-115023000D01*
X175476250Y-115023000D01*
X175635000Y-114864250D01*
X175635000Y-113273690D01*
X175538327Y-113040301D01*
X175359698Y-112861673D01*
X175177505Y-112786206D01*
X175377431Y-112586280D01*
X175535000Y-112205874D01*
X175535000Y-111794126D01*
X175377431Y-111413720D01*
X175086280Y-111122569D01*
X174705874Y-110965000D01*
X174329250Y-110965000D01*
X174241250Y-110877000D01*
X173597000Y-110877000D01*
X173597000Y-110897000D01*
X173442440Y-110897000D01*
X173442440Y-110577500D01*
X173381929Y-110273290D01*
X173343000Y-110215029D01*
X173343000Y-109953750D01*
X173597000Y-109953750D01*
X173597000Y-110623000D01*
X174241250Y-110623000D01*
X174400000Y-110464250D01*
X174400000Y-110303690D01*
X174303327Y-110070301D01*
X174124698Y-109891673D01*
X173891309Y-109795000D01*
X173755750Y-109795000D01*
X173597000Y-109953750D01*
X173343000Y-109953750D01*
X173184250Y-109795000D01*
X173048691Y-109795000D01*
X172938825Y-109840508D01*
X172647500Y-109782560D01*
X172352500Y-109782560D01*
X172048290Y-109843071D01*
X171790393Y-110015393D01*
X171618071Y-110273290D01*
X171557560Y-110577500D01*
X170019294Y-110577500D01*
X166327752Y-106885959D01*
X166377431Y-106836280D01*
X166535000Y-106455874D01*
X166535000Y-106044126D01*
X166377431Y-105663720D01*
X166086280Y-105372569D01*
X165705874Y-105215000D01*
X165294126Y-105215000D01*
X164913720Y-105372569D01*
X164782786Y-105503503D01*
X164759999Y-105498971D01*
X164687459Y-105513400D01*
X164687456Y-105513400D01*
X164490586Y-105552560D01*
X164320000Y-105552560D01*
X164099536Y-105596413D01*
X164062765Y-105571843D01*
X164039797Y-105567274D01*
X163922809Y-105392191D01*
X163712765Y-105251843D01*
X163540700Y-105217618D01*
X163540700Y-104290700D01*
X174696407Y-104290700D01*
X177735030Y-107329324D01*
G36*
X143661800Y-109841408D02*
X143661801Y-112752560D01*
X143500000Y-112752560D01*
X143252235Y-112801843D01*
X143042191Y-112942191D01*
X142901843Y-113152235D01*
X142852560Y-113400000D01*
X142852560Y-116900000D01*
X142901843Y-117147765D01*
X143042191Y-117357809D01*
X143252235Y-117498157D01*
X143500000Y-117547440D01*
X143661800Y-117547440D01*
X143661800Y-120752560D01*
X143500000Y-120752560D01*
X143252235Y-120801843D01*
X143042191Y-120942191D01*
X142901843Y-121152235D01*
X142852560Y-121400000D01*
X142852560Y-127290000D01*
X142135000Y-127290000D01*
X142135000Y-124685750D01*
X141976250Y-124527000D01*
X140627000Y-124527000D01*
X140627000Y-124547000D01*
X140373000Y-124547000D01*
X140373000Y-124527000D01*
X140353000Y-124527000D01*
X140353000Y-124273000D01*
X140373000Y-124273000D01*
X140373000Y-120923750D01*
X140627000Y-120923750D01*
X140627000Y-124273000D01*
X141976250Y-124273000D01*
X142135000Y-124114250D01*
X142135000Y-121273690D01*
X142038327Y-121040301D01*
X141859698Y-120861673D01*
X141626309Y-120765000D01*
X140785750Y-120765000D01*
X140627000Y-120923750D01*
X140373000Y-120923750D01*
X140214250Y-120765000D01*
X139373691Y-120765000D01*
X139210000Y-120832803D01*
X139210000Y-117467197D01*
X139373691Y-117535000D01*
X140214250Y-117535000D01*
X140373000Y-117376250D01*
X140373000Y-115277000D01*
X140627000Y-115277000D01*
X140627000Y-117376250D01*
X140785750Y-117535000D01*
X141626309Y-117535000D01*
X141859698Y-117438327D01*
X142038327Y-117259699D01*
X142135000Y-117026310D01*
X142135000Y-115435750D01*
X141976250Y-115277000D01*
X140627000Y-115277000D01*
X140373000Y-115277000D01*
X140353000Y-115277000D01*
X140353000Y-115023000D01*
X140373000Y-115023000D01*
X140373000Y-115003000D01*
X140627000Y-115003000D01*
X140627000Y-115023000D01*
X141976250Y-115023000D01*
X142135000Y-114864250D01*
X142135000Y-113273690D01*
X142038327Y-113040301D01*
X141937205Y-112939180D01*
X142086280Y-112877431D01*
X142377431Y-112586280D01*
X142535000Y-112205874D01*
X142535000Y-111794126D01*
X142377431Y-111413720D01*
X142086280Y-111122569D01*
X141705874Y-110965000D01*
X141294126Y-110965000D01*
X141152792Y-111023542D01*
X141006250Y-110877000D01*
X140362000Y-110877000D01*
X140362000Y-110897000D01*
X140207440Y-110897000D01*
X140207440Y-110603000D01*
X140362000Y-110603000D01*
X140362000Y-110623000D01*
X141006250Y-110623000D01*
X141087402Y-110541848D01*
X141199360Y-110587609D01*
X142327181Y-110582330D01*
X143344632Y-110160888D01*
X143589776Y-109769384D01*
X143661800Y-109841408D01*
X143661800Y-109841408D01*
G37*
X143661800Y-109841408D02*
X143661801Y-112752560D01*
X143500000Y-112752560D01*
X143252235Y-112801843D01*
X143042191Y-112942191D01*
X142901843Y-113152235D01*
X142852560Y-113400000D01*
X142852560Y-116900000D01*
X142901843Y-117147765D01*
X143042191Y-117357809D01*
X143252235Y-117498157D01*
X143500000Y-117547440D01*
X143661800Y-117547440D01*
X143661800Y-120752560D01*
X143500000Y-120752560D01*
X143252235Y-120801843D01*
X143042191Y-120942191D01*
X142901843Y-121152235D01*
X142852560Y-121400000D01*
X142852560Y-127290000D01*
X142135000Y-127290000D01*
X142135000Y-124685750D01*
X141976250Y-124527000D01*
X140627000Y-124527000D01*
X140627000Y-124547000D01*
X140373000Y-124547000D01*
X140373000Y-124527000D01*
X140353000Y-124527000D01*
X140353000Y-124273000D01*
X140373000Y-124273000D01*
X140373000Y-120923750D01*
X140627000Y-120923750D01*
X140627000Y-124273000D01*
X141976250Y-124273000D01*
X142135000Y-124114250D01*
X142135000Y-121273690D01*
X142038327Y-121040301D01*
X141859698Y-120861673D01*
X141626309Y-120765000D01*
X140785750Y-120765000D01*
X140627000Y-120923750D01*
X140373000Y-120923750D01*
X140214250Y-120765000D01*
X139373691Y-120765000D01*
X139210000Y-120832803D01*
X139210000Y-117467197D01*
X139373691Y-117535000D01*
X140214250Y-117535000D01*
X140373000Y-117376250D01*
X140373000Y-115277000D01*
X140627000Y-115277000D01*
X140627000Y-117376250D01*
X140785750Y-117535000D01*
X141626309Y-117535000D01*
X141859698Y-117438327D01*
X142038327Y-117259699D01*
X142135000Y-117026310D01*
X142135000Y-115435750D01*
X141976250Y-115277000D01*
X140627000Y-115277000D01*
X140373000Y-115277000D01*
X140353000Y-115277000D01*
X140353000Y-115023000D01*
X140373000Y-115023000D01*
X140373000Y-115003000D01*
X140627000Y-115003000D01*
X140627000Y-115023000D01*
X141976250Y-115023000D01*
X142135000Y-114864250D01*
X142135000Y-113273690D01*
X142038327Y-113040301D01*
X141937205Y-112939180D01*
X142086280Y-112877431D01*
X142377431Y-112586280D01*
X142535000Y-112205874D01*
X142535000Y-111794126D01*
X142377431Y-111413720D01*
X142086280Y-111122569D01*
X141705874Y-110965000D01*
X141294126Y-110965000D01*
X141152792Y-111023542D01*
X141006250Y-110877000D01*
X140362000Y-110877000D01*
X140362000Y-110897000D01*
X140207440Y-110897000D01*
X140207440Y-110603000D01*
X140362000Y-110603000D01*
X140362000Y-110623000D01*
X141006250Y-110623000D01*
X141087402Y-110541848D01*
X141199360Y-110587609D01*
X142327181Y-110582330D01*
X143344632Y-110160888D01*
X143589776Y-109769384D01*
X143661800Y-109841408D01*
G36*
X185561800Y-111310794D02*
X185561801Y-112752560D01*
X185400000Y-112752560D01*
X185152235Y-112801843D01*
X184942191Y-112942191D01*
X184801843Y-113152235D01*
X184752560Y-113400000D01*
X184752560Y-116900000D01*
X184801843Y-117147765D01*
X184942191Y-117357809D01*
X185152235Y-117498157D01*
X185400000Y-117547440D01*
X185561800Y-117547440D01*
X185561800Y-120752560D01*
X185400000Y-120752560D01*
X185152235Y-120801843D01*
X184942191Y-120942191D01*
X184801843Y-121152235D01*
X184752560Y-121400000D01*
X184752560Y-127290000D01*
X184035000Y-127290000D01*
X184035000Y-124685750D01*
X183876250Y-124527000D01*
X182527000Y-124527000D01*
X182527000Y-124547000D01*
X182273000Y-124547000D01*
X182273000Y-124527000D01*
X180923750Y-124527000D01*
X180765000Y-124685750D01*
X180765000Y-127290000D01*
X179647440Y-127290000D01*
X179647440Y-121400000D01*
X179622316Y-121273690D01*
X180765000Y-121273690D01*
X180765000Y-124114250D01*
X180923750Y-124273000D01*
X182273000Y-124273000D01*
X182273000Y-120923750D01*
X182527000Y-120923750D01*
X182527000Y-124273000D01*
X183876250Y-124273000D01*
X184035000Y-124114250D01*
X184035000Y-121273690D01*
X183938327Y-121040301D01*
X183759698Y-120861673D01*
X183526309Y-120765000D01*
X182685750Y-120765000D01*
X182527000Y-120923750D01*
X182273000Y-120923750D01*
X182114250Y-120765000D01*
X181273691Y-120765000D01*
X181040302Y-120861673D01*
X180861673Y-121040301D01*
X180765000Y-121273690D01*
X179622316Y-121273690D01*
X179598157Y-121152235D01*
X179457809Y-120942191D01*
X179247765Y-120801843D01*
X179000000Y-120752560D01*
X178838200Y-120752560D01*
X178838200Y-117547440D01*
X179000000Y-117547440D01*
X179247765Y-117498157D01*
X179457809Y-117357809D01*
X179598157Y-117147765D01*
X179647440Y-116900000D01*
X179647440Y-115435750D01*
X180765000Y-115435750D01*
X180765000Y-117026310D01*
X180861673Y-117259699D01*
X181040302Y-117438327D01*
X181273691Y-117535000D01*
X182114250Y-117535000D01*
X182273000Y-117376250D01*
X182273000Y-115277000D01*
X182527000Y-115277000D01*
X182527000Y-117376250D01*
X182685750Y-117535000D01*
X183526309Y-117535000D01*
X183759698Y-117438327D01*
X183938327Y-117259699D01*
X184035000Y-117026310D01*
X184035000Y-115435750D01*
X183876250Y-115277000D01*
X182527000Y-115277000D01*
X182273000Y-115277000D01*
X180923750Y-115277000D01*
X180765000Y-115435750D01*
X179647440Y-115435750D01*
X179647440Y-113400000D01*
X179598157Y-113152235D01*
X179457809Y-112942191D01*
X179247765Y-112801843D01*
X179000000Y-112752560D01*
X178838200Y-112752560D01*
X178838200Y-110577500D01*
X180072560Y-110577500D01*
X180072560Y-110922500D01*
X180133071Y-111226710D01*
X180215451Y-111350000D01*
X180133071Y-111473290D01*
X180072560Y-111777500D01*
X180072560Y-112122500D01*
X180133071Y-112426710D01*
X180305393Y-112684607D01*
X180563290Y-112856929D01*
X180867500Y-112917440D01*
X180984535Y-112917440D01*
X180861673Y-113040301D01*
X180765000Y-113273690D01*
X180765000Y-114864250D01*
X180923750Y-115023000D01*
X182273000Y-115023000D01*
X182273000Y-115003000D01*
X182527000Y-115003000D01*
X182527000Y-115023000D01*
X183876250Y-115023000D01*
X184035000Y-114864250D01*
X184035000Y-113273690D01*
X183938327Y-113040301D01*
X183759698Y-112861673D01*
X183526309Y-112765000D01*
X183254158Y-112765000D01*
X183586280Y-112627431D01*
X183877431Y-112336280D01*
X184035000Y-111955874D01*
X184035000Y-111544126D01*
X183877431Y-111163720D01*
X183586280Y-110872569D01*
X183205874Y-110715000D01*
X182915000Y-110715000D01*
X182915000Y-110622998D01*
X182756252Y-110622998D01*
X182915000Y-110464250D01*
X182915000Y-110303690D01*
X182818327Y-110070301D01*
X182639698Y-109891673D01*
X182406309Y-109795000D01*
X182270750Y-109795000D01*
X182112000Y-109953750D01*
X182112000Y-110623000D01*
X182132000Y-110623000D01*
X182132000Y-110877000D01*
X182112000Y-110877000D01*
X182112000Y-110897000D01*
X181957440Y-110897000D01*
X181957440Y-110577500D01*
X181896929Y-110273290D01*
X181858000Y-110215029D01*
X181858000Y-109953750D01*
X181699250Y-109795000D01*
X181563691Y-109795000D01*
X181453825Y-109840508D01*
X181162500Y-109782560D01*
X180867500Y-109782560D01*
X180563290Y-109843071D01*
X180305393Y-110015393D01*
X180133071Y-110273290D01*
X180072560Y-110577500D01*
X178838200Y-110577500D01*
X178838200Y-110535000D01*
X179205874Y-110535000D01*
X179586280Y-110377431D01*
X179877431Y-110086280D01*
X180006763Y-109774044D01*
X180237500Y-109819940D01*
X180340988Y-109819940D01*
X180452500Y-109842121D01*
X180564011Y-109819940D01*
X180667500Y-109819940D01*
X180915265Y-109770657D01*
X181125309Y-109630309D01*
X181212419Y-109499940D01*
X182112500Y-109499940D01*
X182360265Y-109450657D01*
X182570309Y-109310309D01*
X182710657Y-109100265D01*
X182759940Y-108852500D01*
X182759940Y-108508933D01*
X185561800Y-111310794D01*
X185561800Y-111310794D01*
G37*
X185561800Y-111310794D02*
X185561801Y-112752560D01*
X185400000Y-112752560D01*
X185152235Y-112801843D01*
X184942191Y-112942191D01*
X184801843Y-113152235D01*
X184752560Y-113400000D01*
X184752560Y-116900000D01*
X184801843Y-117147765D01*
X184942191Y-117357809D01*
X185152235Y-117498157D01*
X185400000Y-117547440D01*
X185561800Y-117547440D01*
X185561800Y-120752560D01*
X185400000Y-120752560D01*
X185152235Y-120801843D01*
X184942191Y-120942191D01*
X184801843Y-121152235D01*
X184752560Y-121400000D01*
X184752560Y-127290000D01*
X184035000Y-127290000D01*
X184035000Y-124685750D01*
X183876250Y-124527000D01*
X182527000Y-124527000D01*
X182527000Y-124547000D01*
X182273000Y-124547000D01*
X182273000Y-124527000D01*
X180923750Y-124527000D01*
X180765000Y-124685750D01*
X180765000Y-127290000D01*
X179647440Y-127290000D01*
X179647440Y-121400000D01*
X179622316Y-121273690D01*
X180765000Y-121273690D01*
X180765000Y-124114250D01*
X180923750Y-124273000D01*
X182273000Y-124273000D01*
X182273000Y-120923750D01*
X182527000Y-120923750D01*
X182527000Y-124273000D01*
X183876250Y-124273000D01*
X184035000Y-124114250D01*
X184035000Y-121273690D01*
X183938327Y-121040301D01*
X183759698Y-120861673D01*
X183526309Y-120765000D01*
X182685750Y-120765000D01*
X182527000Y-120923750D01*
X182273000Y-120923750D01*
X182114250Y-120765000D01*
X181273691Y-120765000D01*
X181040302Y-120861673D01*
X180861673Y-121040301D01*
X180765000Y-121273690D01*
X179622316Y-121273690D01*
X179598157Y-121152235D01*
X179457809Y-120942191D01*
X179247765Y-120801843D01*
X179000000Y-120752560D01*
X178838200Y-120752560D01*
X178838200Y-117547440D01*
X179000000Y-117547440D01*
X179247765Y-117498157D01*
X179457809Y-117357809D01*
X179598157Y-117147765D01*
X179647440Y-116900000D01*
X179647440Y-115435750D01*
X180765000Y-115435750D01*
X180765000Y-117026310D01*
X180861673Y-117259699D01*
X181040302Y-117438327D01*
X181273691Y-117535000D01*
X182114250Y-117535000D01*
X182273000Y-117376250D01*
X182273000Y-115277000D01*
X182527000Y-115277000D01*
X182527000Y-117376250D01*
X182685750Y-117535000D01*
X183526309Y-117535000D01*
X183759698Y-117438327D01*
X183938327Y-117259699D01*
X184035000Y-117026310D01*
X184035000Y-115435750D01*
X183876250Y-115277000D01*
X182527000Y-115277000D01*
X182273000Y-115277000D01*
X180923750Y-115277000D01*
X180765000Y-115435750D01*
X179647440Y-115435750D01*
X179647440Y-113400000D01*
X179598157Y-113152235D01*
X179457809Y-112942191D01*
X179247765Y-112801843D01*
X179000000Y-112752560D01*
X178838200Y-112752560D01*
X178838200Y-110577500D01*
X180072560Y-110577500D01*
X180072560Y-110922500D01*
X180133071Y-111226710D01*
X180215451Y-111350000D01*
X180133071Y-111473290D01*
X180072560Y-111777500D01*
X180072560Y-112122500D01*
X180133071Y-112426710D01*
X180305393Y-112684607D01*
X180563290Y-112856929D01*
X180867500Y-112917440D01*
X180984535Y-112917440D01*
X180861673Y-113040301D01*
X180765000Y-113273690D01*
X180765000Y-114864250D01*
X180923750Y-115023000D01*
X182273000Y-115023000D01*
X182273000Y-115003000D01*
X182527000Y-115003000D01*
X182527000Y-115023000D01*
X183876250Y-115023000D01*
X184035000Y-114864250D01*
X184035000Y-113273690D01*
X183938327Y-113040301D01*
X183759698Y-112861673D01*
X183526309Y-112765000D01*
X183254158Y-112765000D01*
X183586280Y-112627431D01*
X183877431Y-112336280D01*
X184035000Y-111955874D01*
X184035000Y-111544126D01*
X183877431Y-111163720D01*
X183586280Y-110872569D01*
X183205874Y-110715000D01*
X182915000Y-110715000D01*
X182915000Y-110622998D01*
X182756252Y-110622998D01*
X182915000Y-110464250D01*
X182915000Y-110303690D01*
X182818327Y-110070301D01*
X182639698Y-109891673D01*
X182406309Y-109795000D01*
X182270750Y-109795000D01*
X182112000Y-109953750D01*
X182112000Y-110623000D01*
X182132000Y-110623000D01*
X182132000Y-110877000D01*
X182112000Y-110877000D01*
X182112000Y-110897000D01*
X181957440Y-110897000D01*
X181957440Y-110577500D01*
X181896929Y-110273290D01*
X181858000Y-110215029D01*
X181858000Y-109953750D01*
X181699250Y-109795000D01*
X181563691Y-109795000D01*
X181453825Y-109840508D01*
X181162500Y-109782560D01*
X180867500Y-109782560D01*
X180563290Y-109843071D01*
X180305393Y-110015393D01*
X180133071Y-110273290D01*
X180072560Y-110577500D01*
X178838200Y-110577500D01*
X178838200Y-110535000D01*
X179205874Y-110535000D01*
X179586280Y-110377431D01*
X179877431Y-110086280D01*
X180006763Y-109774044D01*
X180237500Y-109819940D01*
X180340988Y-109819940D01*
X180452500Y-109842121D01*
X180564011Y-109819940D01*
X180667500Y-109819940D01*
X180915265Y-109770657D01*
X181125309Y-109630309D01*
X181212419Y-109499940D01*
X182112500Y-109499940D01*
X182360265Y-109450657D01*
X182570309Y-109310309D01*
X182710657Y-109100265D01*
X182759940Y-108852500D01*
X182759940Y-108508933D01*
X185561800Y-111310794D01*
G36*
X149161801Y-109667446D02*
X149145380Y-109750000D01*
X149210434Y-110077049D01*
X149348929Y-110284322D01*
X149348931Y-110284324D01*
X149395693Y-110354308D01*
X149465677Y-110401070D01*
X151817166Y-112752560D01*
X151800000Y-112752560D01*
X151552235Y-112801843D01*
X151342191Y-112942191D01*
X151201843Y-113152235D01*
X151152560Y-113400000D01*
X151152560Y-116900000D01*
X151201843Y-117147765D01*
X151342191Y-117357809D01*
X151552235Y-117498157D01*
X151800000Y-117547440D01*
X151961800Y-117547440D01*
X151961800Y-120752560D01*
X151800000Y-120752560D01*
X151552235Y-120801843D01*
X151342191Y-120942191D01*
X151201843Y-121152235D01*
X151152560Y-121400000D01*
X151152560Y-127290000D01*
X150435000Y-127290000D01*
X150435000Y-124685750D01*
X150276250Y-124527000D01*
X148927000Y-124527000D01*
X148927000Y-124547000D01*
X148673000Y-124547000D01*
X148673000Y-124527000D01*
X147323750Y-124527000D01*
X147165000Y-124685750D01*
X147165000Y-127290000D01*
X146147440Y-127290000D01*
X146147440Y-121400000D01*
X146122316Y-121273690D01*
X147165000Y-121273690D01*
X147165000Y-124114250D01*
X147323750Y-124273000D01*
X148673000Y-124273000D01*
X148673000Y-120923750D01*
X148927000Y-120923750D01*
X148927000Y-124273000D01*
X150276250Y-124273000D01*
X150435000Y-124114250D01*
X150435000Y-121273690D01*
X150338327Y-121040301D01*
X150159698Y-120861673D01*
X149926309Y-120765000D01*
X149085750Y-120765000D01*
X148927000Y-120923750D01*
X148673000Y-120923750D01*
X148514250Y-120765000D01*
X147673691Y-120765000D01*
X147440302Y-120861673D01*
X147261673Y-121040301D01*
X147165000Y-121273690D01*
X146122316Y-121273690D01*
X146098157Y-121152235D01*
X145957809Y-120942191D01*
X145747765Y-120801843D01*
X145500000Y-120752560D01*
X145338200Y-120752560D01*
X145338200Y-117547440D01*
X145500000Y-117547440D01*
X145747765Y-117498157D01*
X145957809Y-117357809D01*
X146098157Y-117147765D01*
X146147440Y-116900000D01*
X146147440Y-115435750D01*
X147165000Y-115435750D01*
X147165000Y-117026310D01*
X147261673Y-117259699D01*
X147440302Y-117438327D01*
X147673691Y-117535000D01*
X148514250Y-117535000D01*
X148673000Y-117376250D01*
X148673000Y-115277000D01*
X148927000Y-115277000D01*
X148927000Y-117376250D01*
X149085750Y-117535000D01*
X149926309Y-117535000D01*
X150159698Y-117438327D01*
X150338327Y-117259699D01*
X150435000Y-117026310D01*
X150435000Y-115435750D01*
X150276250Y-115277000D01*
X148927000Y-115277000D01*
X148673000Y-115277000D01*
X147323750Y-115277000D01*
X147165000Y-115435750D01*
X146147440Y-115435750D01*
X146147440Y-113400000D01*
X146098157Y-113152235D01*
X145957809Y-112942191D01*
X145747765Y-112801843D01*
X145500000Y-112752560D01*
X145338200Y-112752560D01*
X145338200Y-110785000D01*
X145705874Y-110785000D01*
X146086280Y-110627431D01*
X146368831Y-110344880D01*
X146322560Y-110577500D01*
X146322560Y-110922500D01*
X146383071Y-111226710D01*
X146482156Y-111375000D01*
X146383071Y-111523290D01*
X146322560Y-111827500D01*
X146322560Y-112172500D01*
X146383071Y-112476710D01*
X146555393Y-112734607D01*
X146813290Y-112906929D01*
X147117500Y-112967440D01*
X147334534Y-112967440D01*
X147261673Y-113040301D01*
X147165000Y-113273690D01*
X147165000Y-114864250D01*
X147323750Y-115023000D01*
X148673000Y-115023000D01*
X148673000Y-115003000D01*
X148927000Y-115003000D01*
X148927000Y-115023000D01*
X150276250Y-115023000D01*
X150435000Y-114864250D01*
X150435000Y-113273690D01*
X150338327Y-113040301D01*
X150159698Y-112861673D01*
X149942150Y-112771561D01*
X150127431Y-112586280D01*
X150285000Y-112205874D01*
X150285000Y-111794126D01*
X150127431Y-111413720D01*
X149836280Y-111122569D01*
X149455874Y-110965000D01*
X149094250Y-110965000D01*
X149006250Y-110877000D01*
X148362000Y-110877000D01*
X148362000Y-110897000D01*
X148207440Y-110897000D01*
X148207440Y-110577500D01*
X148146929Y-110273290D01*
X148108000Y-110215029D01*
X148108000Y-109953750D01*
X148362000Y-109953750D01*
X148362000Y-110623000D01*
X149006250Y-110623000D01*
X149165000Y-110464250D01*
X149165000Y-110303690D01*
X149068327Y-110070301D01*
X148889698Y-109891673D01*
X148656309Y-109795000D01*
X148520750Y-109795000D01*
X148362000Y-109953750D01*
X148108000Y-109953750D01*
X147949250Y-109795000D01*
X147813691Y-109795000D01*
X147703825Y-109840508D01*
X147412500Y-109782560D01*
X147355424Y-109782560D01*
X147415265Y-109770657D01*
X147625309Y-109630309D01*
X147712419Y-109499940D01*
X148612500Y-109499940D01*
X148860265Y-109450657D01*
X149070309Y-109310309D01*
X149161801Y-109173383D01*
X149161801Y-109667446D01*
X149161801Y-109667446D01*
G37*
X149161801Y-109667446D02*
X149145380Y-109750000D01*
X149210434Y-110077049D01*
X149348929Y-110284322D01*
X149348931Y-110284324D01*
X149395693Y-110354308D01*
X149465677Y-110401070D01*
X151817166Y-112752560D01*
X151800000Y-112752560D01*
X151552235Y-112801843D01*
X151342191Y-112942191D01*
X151201843Y-113152235D01*
X151152560Y-113400000D01*
X151152560Y-116900000D01*
X151201843Y-117147765D01*
X151342191Y-117357809D01*
X151552235Y-117498157D01*
X151800000Y-117547440D01*
X151961800Y-117547440D01*
X151961800Y-120752560D01*
X151800000Y-120752560D01*
X151552235Y-120801843D01*
X151342191Y-120942191D01*
X151201843Y-121152235D01*
X151152560Y-121400000D01*
X151152560Y-127290000D01*
X150435000Y-127290000D01*
X150435000Y-124685750D01*
X150276250Y-124527000D01*
X148927000Y-124527000D01*
X148927000Y-124547000D01*
X148673000Y-124547000D01*
X148673000Y-124527000D01*
X147323750Y-124527000D01*
X147165000Y-124685750D01*
X147165000Y-127290000D01*
X146147440Y-127290000D01*
X146147440Y-121400000D01*
X146122316Y-121273690D01*
X147165000Y-121273690D01*
X147165000Y-124114250D01*
X147323750Y-124273000D01*
X148673000Y-124273000D01*
X148673000Y-120923750D01*
X148927000Y-120923750D01*
X148927000Y-124273000D01*
X150276250Y-124273000D01*
X150435000Y-124114250D01*
X150435000Y-121273690D01*
X150338327Y-121040301D01*
X150159698Y-120861673D01*
X149926309Y-120765000D01*
X149085750Y-120765000D01*
X148927000Y-120923750D01*
X148673000Y-120923750D01*
X148514250Y-120765000D01*
X147673691Y-120765000D01*
X147440302Y-120861673D01*
X147261673Y-121040301D01*
X147165000Y-121273690D01*
X146122316Y-121273690D01*
X146098157Y-121152235D01*
X145957809Y-120942191D01*
X145747765Y-120801843D01*
X145500000Y-120752560D01*
X145338200Y-120752560D01*
X145338200Y-117547440D01*
X145500000Y-117547440D01*
X145747765Y-117498157D01*
X145957809Y-117357809D01*
X146098157Y-117147765D01*
X146147440Y-116900000D01*
X146147440Y-115435750D01*
X147165000Y-115435750D01*
X147165000Y-117026310D01*
X147261673Y-117259699D01*
X147440302Y-117438327D01*
X147673691Y-117535000D01*
X148514250Y-117535000D01*
X148673000Y-117376250D01*
X148673000Y-115277000D01*
X148927000Y-115277000D01*
X148927000Y-117376250D01*
X149085750Y-117535000D01*
X149926309Y-117535000D01*
X150159698Y-117438327D01*
X150338327Y-117259699D01*
X150435000Y-117026310D01*
X150435000Y-115435750D01*
X150276250Y-115277000D01*
X148927000Y-115277000D01*
X148673000Y-115277000D01*
X147323750Y-115277000D01*
X147165000Y-115435750D01*
X146147440Y-115435750D01*
X146147440Y-113400000D01*
X146098157Y-113152235D01*
X145957809Y-112942191D01*
X145747765Y-112801843D01*
X145500000Y-112752560D01*
X145338200Y-112752560D01*
X145338200Y-110785000D01*
X145705874Y-110785000D01*
X146086280Y-110627431D01*
X146368831Y-110344880D01*
X146322560Y-110577500D01*
X146322560Y-110922500D01*
X146383071Y-111226710D01*
X146482156Y-111375000D01*
X146383071Y-111523290D01*
X146322560Y-111827500D01*
X146322560Y-112172500D01*
X146383071Y-112476710D01*
X146555393Y-112734607D01*
X146813290Y-112906929D01*
X147117500Y-112967440D01*
X147334534Y-112967440D01*
X147261673Y-113040301D01*
X147165000Y-113273690D01*
X147165000Y-114864250D01*
X147323750Y-115023000D01*
X148673000Y-115023000D01*
X148673000Y-115003000D01*
X148927000Y-115003000D01*
X148927000Y-115023000D01*
X150276250Y-115023000D01*
X150435000Y-114864250D01*
X150435000Y-113273690D01*
X150338327Y-113040301D01*
X150159698Y-112861673D01*
X149942150Y-112771561D01*
X150127431Y-112586280D01*
X150285000Y-112205874D01*
X150285000Y-111794126D01*
X150127431Y-111413720D01*
X149836280Y-111122569D01*
X149455874Y-110965000D01*
X149094250Y-110965000D01*
X149006250Y-110877000D01*
X148362000Y-110877000D01*
X148362000Y-110897000D01*
X148207440Y-110897000D01*
X148207440Y-110577500D01*
X148146929Y-110273290D01*
X148108000Y-110215029D01*
X148108000Y-109953750D01*
X148362000Y-109953750D01*
X148362000Y-110623000D01*
X149006250Y-110623000D01*
X149165000Y-110464250D01*
X149165000Y-110303690D01*
X149068327Y-110070301D01*
X148889698Y-109891673D01*
X148656309Y-109795000D01*
X148520750Y-109795000D01*
X148362000Y-109953750D01*
X148108000Y-109953750D01*
X147949250Y-109795000D01*
X147813691Y-109795000D01*
X147703825Y-109840508D01*
X147412500Y-109782560D01*
X147355424Y-109782560D01*
X147415265Y-109770657D01*
X147625309Y-109630309D01*
X147712419Y-109499940D01*
X148612500Y-109499940D01*
X148860265Y-109450657D01*
X149070309Y-109310309D01*
X149161801Y-109173383D01*
X149161801Y-109667446D01*
G36*
X168761800Y-111690794D02*
X168761801Y-112752560D01*
X168600000Y-112752560D01*
X168352235Y-112801843D01*
X168142191Y-112942191D01*
X168001843Y-113152235D01*
X167952560Y-113400000D01*
X167952560Y-116900000D01*
X168001843Y-117147765D01*
X168142191Y-117357809D01*
X168352235Y-117498157D01*
X168600000Y-117547440D01*
X168761800Y-117547440D01*
X168761800Y-120752560D01*
X168600000Y-120752560D01*
X168352235Y-120801843D01*
X168142191Y-120942191D01*
X168001843Y-121152235D01*
X167952560Y-121400000D01*
X167952560Y-127290000D01*
X167235000Y-127290000D01*
X167235000Y-124685750D01*
X167076250Y-124527000D01*
X165727000Y-124527000D01*
X165727000Y-124547000D01*
X165473000Y-124547000D01*
X165473000Y-124527000D01*
X164123750Y-124527000D01*
X163965000Y-124685750D01*
X163965000Y-127290000D01*
X162847440Y-127290000D01*
X162847440Y-121400000D01*
X162822316Y-121273690D01*
X163965000Y-121273690D01*
X163965000Y-124114250D01*
X164123750Y-124273000D01*
X165473000Y-124273000D01*
X165473000Y-120923750D01*
X165727000Y-120923750D01*
X165727000Y-124273000D01*
X167076250Y-124273000D01*
X167235000Y-124114250D01*
X167235000Y-121273690D01*
X167138327Y-121040301D01*
X166959698Y-120861673D01*
X166726309Y-120765000D01*
X165885750Y-120765000D01*
X165727000Y-120923750D01*
X165473000Y-120923750D01*
X165314250Y-120765000D01*
X164473691Y-120765000D01*
X164240302Y-120861673D01*
X164061673Y-121040301D01*
X163965000Y-121273690D01*
X162822316Y-121273690D01*
X162798157Y-121152235D01*
X162657809Y-120942191D01*
X162447765Y-120801843D01*
X162200000Y-120752560D01*
X162038200Y-120752560D01*
X162038200Y-117547440D01*
X162200000Y-117547440D01*
X162447765Y-117498157D01*
X162657809Y-117357809D01*
X162798157Y-117147765D01*
X162847440Y-116900000D01*
X162847440Y-115435750D01*
X163965000Y-115435750D01*
X163965000Y-117026310D01*
X164061673Y-117259699D01*
X164240302Y-117438327D01*
X164473691Y-117535000D01*
X165314250Y-117535000D01*
X165473000Y-117376250D01*
X165473000Y-115277000D01*
X165727000Y-115277000D01*
X165727000Y-117376250D01*
X165885750Y-117535000D01*
X166726309Y-117535000D01*
X166959698Y-117438327D01*
X167138327Y-117259699D01*
X167235000Y-117026310D01*
X167235000Y-115435750D01*
X167076250Y-115277000D01*
X165727000Y-115277000D01*
X165473000Y-115277000D01*
X164123750Y-115277000D01*
X163965000Y-115435750D01*
X162847440Y-115435750D01*
X162847440Y-113400000D01*
X162798157Y-113152235D01*
X162657809Y-112942191D01*
X162447765Y-112801843D01*
X162200000Y-112752560D01*
X162006675Y-112752560D01*
X161989567Y-112666551D01*
X161838200Y-112440015D01*
X161838200Y-110577500D01*
X163322560Y-110577500D01*
X163322560Y-110922500D01*
X163383071Y-111226710D01*
X163482156Y-111375000D01*
X163383071Y-111523290D01*
X163322560Y-111827500D01*
X163322560Y-112172500D01*
X163383071Y-112476710D01*
X163555393Y-112734607D01*
X163813290Y-112906929D01*
X164117500Y-112967440D01*
X164134534Y-112967440D01*
X164061673Y-113040301D01*
X163965000Y-113273690D01*
X163965000Y-114864250D01*
X164123750Y-115023000D01*
X165473000Y-115023000D01*
X165473000Y-115003000D01*
X165727000Y-115003000D01*
X165727000Y-115023000D01*
X167076250Y-115023000D01*
X167235000Y-114864250D01*
X167235000Y-113273690D01*
X167138327Y-113040301D01*
X166959698Y-112861673D01*
X166883571Y-112830140D01*
X167127431Y-112586280D01*
X167285000Y-112205874D01*
X167285000Y-111794126D01*
X167127431Y-111413720D01*
X166836280Y-111122569D01*
X166455874Y-110965000D01*
X166094250Y-110965000D01*
X166006250Y-110877000D01*
X165362000Y-110877000D01*
X165362000Y-110897000D01*
X165207440Y-110897000D01*
X165207440Y-110577500D01*
X165146929Y-110273290D01*
X165108000Y-110215029D01*
X165108000Y-109953750D01*
X165362000Y-109953750D01*
X165362000Y-110623000D01*
X166006250Y-110623000D01*
X166165000Y-110464250D01*
X166165000Y-110303690D01*
X166068327Y-110070301D01*
X165889698Y-109891673D01*
X165656309Y-109795000D01*
X165520750Y-109795000D01*
X165362000Y-109953750D01*
X165108000Y-109953750D01*
X164949250Y-109795000D01*
X164813691Y-109795000D01*
X164703825Y-109840508D01*
X164412500Y-109782560D01*
X164117500Y-109782560D01*
X163813290Y-109843071D01*
X163555393Y-110015393D01*
X163383071Y-110273290D01*
X163322560Y-110577500D01*
X161838200Y-110577500D01*
X161838200Y-110535000D01*
X162205874Y-110535000D01*
X162586280Y-110377431D01*
X162877431Y-110086280D01*
X162999959Y-109790470D01*
X163035000Y-109797440D01*
X163138488Y-109797440D01*
X163250000Y-109819621D01*
X163361511Y-109797440D01*
X163465000Y-109797440D01*
X163712765Y-109748157D01*
X163922809Y-109607809D01*
X164009919Y-109477440D01*
X164910000Y-109477440D01*
X165157765Y-109428157D01*
X165367809Y-109287809D01*
X165508157Y-109077765D01*
X165557440Y-108830000D01*
X165557440Y-108486433D01*
X168761800Y-111690794D01*
X168761800Y-111690794D01*
G37*
X168761800Y-111690794D02*
X168761801Y-112752560D01*
X168600000Y-112752560D01*
X168352235Y-112801843D01*
X168142191Y-112942191D01*
X168001843Y-113152235D01*
X167952560Y-113400000D01*
X167952560Y-116900000D01*
X168001843Y-117147765D01*
X168142191Y-117357809D01*
X168352235Y-117498157D01*
X168600000Y-117547440D01*
X168761800Y-117547440D01*
X168761800Y-120752560D01*
X168600000Y-120752560D01*
X168352235Y-120801843D01*
X168142191Y-120942191D01*
X168001843Y-121152235D01*
X167952560Y-121400000D01*
X167952560Y-127290000D01*
X167235000Y-127290000D01*
X167235000Y-124685750D01*
X167076250Y-124527000D01*
X165727000Y-124527000D01*
X165727000Y-124547000D01*
X165473000Y-124547000D01*
X165473000Y-124527000D01*
X164123750Y-124527000D01*
X163965000Y-124685750D01*
X163965000Y-127290000D01*
X162847440Y-127290000D01*
X162847440Y-121400000D01*
X162822316Y-121273690D01*
X163965000Y-121273690D01*
X163965000Y-124114250D01*
X164123750Y-124273000D01*
X165473000Y-124273000D01*
X165473000Y-120923750D01*
X165727000Y-120923750D01*
X165727000Y-124273000D01*
X167076250Y-124273000D01*
X167235000Y-124114250D01*
X167235000Y-121273690D01*
X167138327Y-121040301D01*
X166959698Y-120861673D01*
X166726309Y-120765000D01*
X165885750Y-120765000D01*
X165727000Y-120923750D01*
X165473000Y-120923750D01*
X165314250Y-120765000D01*
X164473691Y-120765000D01*
X164240302Y-120861673D01*
X164061673Y-121040301D01*
X163965000Y-121273690D01*
X162822316Y-121273690D01*
X162798157Y-121152235D01*
X162657809Y-120942191D01*
X162447765Y-120801843D01*
X162200000Y-120752560D01*
X162038200Y-120752560D01*
X162038200Y-117547440D01*
X162200000Y-117547440D01*
X162447765Y-117498157D01*
X162657809Y-117357809D01*
X162798157Y-117147765D01*
X162847440Y-116900000D01*
X162847440Y-115435750D01*
X163965000Y-115435750D01*
X163965000Y-117026310D01*
X164061673Y-117259699D01*
X164240302Y-117438327D01*
X164473691Y-117535000D01*
X165314250Y-117535000D01*
X165473000Y-117376250D01*
X165473000Y-115277000D01*
X165727000Y-115277000D01*
X165727000Y-117376250D01*
X165885750Y-117535000D01*
X166726309Y-117535000D01*
X166959698Y-117438327D01*
X167138327Y-117259699D01*
X167235000Y-117026310D01*
X167235000Y-115435750D01*
X167076250Y-115277000D01*
X165727000Y-115277000D01*
X165473000Y-115277000D01*
X164123750Y-115277000D01*
X163965000Y-115435750D01*
X162847440Y-115435750D01*
X162847440Y-113400000D01*
X162798157Y-113152235D01*
X162657809Y-112942191D01*
X162447765Y-112801843D01*
X162200000Y-112752560D01*
X162006675Y-112752560D01*
X161989567Y-112666551D01*
X161838200Y-112440015D01*
X161838200Y-110577500D01*
X163322560Y-110577500D01*
X163322560Y-110922500D01*
X163383071Y-111226710D01*
X163482156Y-111375000D01*
X163383071Y-111523290D01*
X163322560Y-111827500D01*
X163322560Y-112172500D01*
X163383071Y-112476710D01*
X163555393Y-112734607D01*
X163813290Y-112906929D01*
X164117500Y-112967440D01*
X164134534Y-112967440D01*
X164061673Y-113040301D01*
X163965000Y-113273690D01*
X163965000Y-114864250D01*
X164123750Y-115023000D01*
X165473000Y-115023000D01*
X165473000Y-115003000D01*
X165727000Y-115003000D01*
X165727000Y-115023000D01*
X167076250Y-115023000D01*
X167235000Y-114864250D01*
X167235000Y-113273690D01*
X167138327Y-113040301D01*
X166959698Y-112861673D01*
X166883571Y-112830140D01*
X167127431Y-112586280D01*
X167285000Y-112205874D01*
X167285000Y-111794126D01*
X167127431Y-111413720D01*
X166836280Y-111122569D01*
X166455874Y-110965000D01*
X166094250Y-110965000D01*
X166006250Y-110877000D01*
X165362000Y-110877000D01*
X165362000Y-110897000D01*
X165207440Y-110897000D01*
X165207440Y-110577500D01*
X165146929Y-110273290D01*
X165108000Y-110215029D01*
X165108000Y-109953750D01*
X165362000Y-109953750D01*
X165362000Y-110623000D01*
X166006250Y-110623000D01*
X166165000Y-110464250D01*
X166165000Y-110303690D01*
X166068327Y-110070301D01*
X165889698Y-109891673D01*
X165656309Y-109795000D01*
X165520750Y-109795000D01*
X165362000Y-109953750D01*
X165108000Y-109953750D01*
X164949250Y-109795000D01*
X164813691Y-109795000D01*
X164703825Y-109840508D01*
X164412500Y-109782560D01*
X164117500Y-109782560D01*
X163813290Y-109843071D01*
X163555393Y-110015393D01*
X163383071Y-110273290D01*
X163322560Y-110577500D01*
X161838200Y-110577500D01*
X161838200Y-110535000D01*
X162205874Y-110535000D01*
X162586280Y-110377431D01*
X162877431Y-110086280D01*
X162999959Y-109790470D01*
X163035000Y-109797440D01*
X163138488Y-109797440D01*
X163250000Y-109819621D01*
X163361511Y-109797440D01*
X163465000Y-109797440D01*
X163712765Y-109748157D01*
X163922809Y-109607809D01*
X164009919Y-109477440D01*
X164910000Y-109477440D01*
X165157765Y-109428157D01*
X165367809Y-109287809D01*
X165508157Y-109077765D01*
X165557440Y-108830000D01*
X165557440Y-108486433D01*
X168761800Y-111690794D01*
G36*
X145034613Y-105601107D02*
X144834691Y-105734691D01*
X144694343Y-105944735D01*
X144645060Y-106192500D01*
X144645060Y-107167814D01*
X144582365Y-107180285D01*
X144582330Y-107172819D01*
X144160888Y-106155368D01*
X143769382Y-105910223D01*
X141929605Y-107750000D01*
X141943748Y-107764143D01*
X141764143Y-107943748D01*
X141750000Y-107929605D01*
X139910223Y-109769382D01*
X139926264Y-109795000D01*
X139813691Y-109795000D01*
X139703825Y-109840508D01*
X139412500Y-109782560D01*
X139210000Y-109782560D01*
X139210000Y-109032928D01*
X139339112Y-109344632D01*
X139730618Y-109589777D01*
X141570395Y-107750000D01*
X141556253Y-107735858D01*
X141735858Y-107556253D01*
X141750000Y-107570395D01*
X143589777Y-105730618D01*
X143344632Y-105339112D01*
X142300640Y-104912391D01*
X141172819Y-104917670D01*
X141165000Y-104920909D01*
X141165000Y-104872998D01*
X141006252Y-104872998D01*
X141165000Y-104714250D01*
X141165000Y-104553690D01*
X141068327Y-104320301D01*
X141059974Y-104311948D01*
X141116929Y-104226710D01*
X141117387Y-104224406D01*
X142387650Y-102954143D01*
X145034613Y-105601107D01*
X145034613Y-105601107D01*
G37*
X145034613Y-105601107D02*
X144834691Y-105734691D01*
X144694343Y-105944735D01*
X144645060Y-106192500D01*
X144645060Y-107167814D01*
X144582365Y-107180285D01*
X144582330Y-107172819D01*
X144160888Y-106155368D01*
X143769382Y-105910223D01*
X141929605Y-107750000D01*
X141943748Y-107764143D01*
X141764143Y-107943748D01*
X141750000Y-107929605D01*
X139910223Y-109769382D01*
X139926264Y-109795000D01*
X139813691Y-109795000D01*
X139703825Y-109840508D01*
X139412500Y-109782560D01*
X139210000Y-109782560D01*
X139210000Y-109032928D01*
X139339112Y-109344632D01*
X139730618Y-109589777D01*
X141570395Y-107750000D01*
X141556253Y-107735858D01*
X141735858Y-107556253D01*
X141750000Y-107570395D01*
X143589777Y-105730618D01*
X143344632Y-105339112D01*
X142300640Y-104912391D01*
X141172819Y-104917670D01*
X141165000Y-104920909D01*
X141165000Y-104872998D01*
X141006252Y-104872998D01*
X141165000Y-104714250D01*
X141165000Y-104553690D01*
X141068327Y-104320301D01*
X141059974Y-104311948D01*
X141116929Y-104226710D01*
X141117387Y-104224406D01*
X142387650Y-102954143D01*
X145034613Y-105601107D01*
G36*
X149102560Y-101500000D02*
X149151843Y-101747765D01*
X149292191Y-101957809D01*
X149502235Y-102098157D01*
X149750000Y-102147440D01*
X150661800Y-102147440D01*
X150661801Y-104460429D01*
X150593071Y-104563290D01*
X150532560Y-104867500D01*
X150532560Y-105162500D01*
X150590508Y-105453825D01*
X150545000Y-105563691D01*
X150545000Y-105699250D01*
X150703750Y-105858000D01*
X150965029Y-105858000D01*
X151023290Y-105896929D01*
X151327500Y-105957440D01*
X151465649Y-105957440D01*
X151622569Y-106336280D01*
X151627000Y-106340711D01*
X151627000Y-107138000D01*
X152296250Y-107138000D01*
X152410715Y-107023535D01*
X152415742Y-107031058D01*
X152515000Y-107097380D01*
X152515000Y-107127002D01*
X152559332Y-107127002D01*
X152593182Y-107149620D01*
X152539944Y-107196316D01*
X152547586Y-107250000D01*
X152539944Y-107303684D01*
X152597830Y-107354456D01*
X152609325Y-107372998D01*
X152515000Y-107372998D01*
X152515000Y-107488400D01*
X152392650Y-107488400D01*
X152296250Y-107392000D01*
X152034971Y-107392000D01*
X151976710Y-107353071D01*
X151672500Y-107292560D01*
X151327500Y-107292560D01*
X151023290Y-107353071D01*
X150965029Y-107392000D01*
X150703750Y-107392000D01*
X150617186Y-107478564D01*
X150604308Y-107459292D01*
X150534324Y-107412531D01*
X149659972Y-106538178D01*
X149613208Y-106468192D01*
X149335949Y-106282933D01*
X149274701Y-106270750D01*
X150545000Y-106270750D01*
X150545000Y-106406309D01*
X150635585Y-106625000D01*
X150545000Y-106843691D01*
X150545000Y-106979250D01*
X150703750Y-107138000D01*
X151373000Y-107138000D01*
X151373000Y-106112000D01*
X150703750Y-106112000D01*
X150545000Y-106270750D01*
X149274701Y-106270750D01*
X149249940Y-106265825D01*
X149249940Y-106222500D01*
X149248492Y-106215219D01*
X149377431Y-106086280D01*
X149535000Y-105705874D01*
X149535000Y-105294126D01*
X149377431Y-104913720D01*
X149086280Y-104622569D01*
X148705874Y-104465000D01*
X148294126Y-104465000D01*
X147913720Y-104622569D01*
X147622569Y-104913720D01*
X147465000Y-105294126D01*
X147465000Y-105307575D01*
X147415265Y-105274343D01*
X147167500Y-105225060D01*
X147064011Y-105225060D01*
X147034265Y-105219143D01*
X147009308Y-105181792D01*
X146939325Y-105135031D01*
X143951733Y-102147440D01*
X145250000Y-102147440D01*
X145497765Y-102098157D01*
X145707809Y-101957809D01*
X145848157Y-101747765D01*
X145897440Y-101500000D01*
X145897440Y-101338200D01*
X149102560Y-101338200D01*
X149102560Y-101500000D01*
X149102560Y-101500000D01*
G37*
X149102560Y-101500000D02*
X149151843Y-101747765D01*
X149292191Y-101957809D01*
X149502235Y-102098157D01*
X149750000Y-102147440D01*
X150661800Y-102147440D01*
X150661801Y-104460429D01*
X150593071Y-104563290D01*
X150532560Y-104867500D01*
X150532560Y-105162500D01*
X150590508Y-105453825D01*
X150545000Y-105563691D01*
X150545000Y-105699250D01*
X150703750Y-105858000D01*
X150965029Y-105858000D01*
X151023290Y-105896929D01*
X151327500Y-105957440D01*
X151465649Y-105957440D01*
X151622569Y-106336280D01*
X151627000Y-106340711D01*
X151627000Y-107138000D01*
X152296250Y-107138000D01*
X152410715Y-107023535D01*
X152415742Y-107031058D01*
X152515000Y-107097380D01*
X152515000Y-107127002D01*
X152559332Y-107127002D01*
X152593182Y-107149620D01*
X152539944Y-107196316D01*
X152547586Y-107250000D01*
X152539944Y-107303684D01*
X152597830Y-107354456D01*
X152609325Y-107372998D01*
X152515000Y-107372998D01*
X152515000Y-107488400D01*
X152392650Y-107488400D01*
X152296250Y-107392000D01*
X152034971Y-107392000D01*
X151976710Y-107353071D01*
X151672500Y-107292560D01*
X151327500Y-107292560D01*
X151023290Y-107353071D01*
X150965029Y-107392000D01*
X150703750Y-107392000D01*
X150617186Y-107478564D01*
X150604308Y-107459292D01*
X150534324Y-107412531D01*
X149659972Y-106538178D01*
X149613208Y-106468192D01*
X149335949Y-106282933D01*
X149274701Y-106270750D01*
X150545000Y-106270750D01*
X150545000Y-106406309D01*
X150635585Y-106625000D01*
X150545000Y-106843691D01*
X150545000Y-106979250D01*
X150703750Y-107138000D01*
X151373000Y-107138000D01*
X151373000Y-106112000D01*
X150703750Y-106112000D01*
X150545000Y-106270750D01*
X149274701Y-106270750D01*
X149249940Y-106265825D01*
X149249940Y-106222500D01*
X149248492Y-106215219D01*
X149377431Y-106086280D01*
X149535000Y-105705874D01*
X149535000Y-105294126D01*
X149377431Y-104913720D01*
X149086280Y-104622569D01*
X148705874Y-104465000D01*
X148294126Y-104465000D01*
X147913720Y-104622569D01*
X147622569Y-104913720D01*
X147465000Y-105294126D01*
X147465000Y-105307575D01*
X147415265Y-105274343D01*
X147167500Y-105225060D01*
X147064011Y-105225060D01*
X147034265Y-105219143D01*
X147009308Y-105181792D01*
X146939325Y-105135031D01*
X143951733Y-102147440D01*
X145250000Y-102147440D01*
X145497765Y-102098157D01*
X145707809Y-101957809D01*
X145848157Y-101747765D01*
X145897440Y-101500000D01*
X145897440Y-101338200D01*
X149102560Y-101338200D01*
X149102560Y-101500000D01*
G36*
X172692530Y-97034324D02*
X172739292Y-97104308D01*
X172809276Y-97151070D01*
X172809277Y-97151071D01*
X172815156Y-97154999D01*
X173016551Y-97289567D01*
X173102560Y-97306675D01*
X173102560Y-97500000D01*
X173151843Y-97747765D01*
X173292191Y-97957809D01*
X173502235Y-98098157D01*
X173750000Y-98147440D01*
X177250000Y-98147440D01*
X177497765Y-98098157D01*
X177707809Y-97957809D01*
X177848157Y-97747765D01*
X177897440Y-97500000D01*
X177897440Y-97338200D01*
X181102560Y-97338200D01*
X181102560Y-97500000D01*
X181151843Y-97747765D01*
X181292191Y-97957809D01*
X181502235Y-98098157D01*
X181750000Y-98147440D01*
X187750000Y-98147440D01*
X187790001Y-98139483D01*
X187790001Y-98865000D01*
X185035750Y-98865000D01*
X184877000Y-99023750D01*
X184877000Y-100373000D01*
X184897000Y-100373000D01*
X184897000Y-100627000D01*
X184877000Y-100627000D01*
X184877000Y-101976250D01*
X185035750Y-102135000D01*
X187790001Y-102135000D01*
X187790001Y-103205677D01*
X187702358Y-103118034D01*
X187589776Y-103230616D01*
X187344632Y-102839112D01*
X186300640Y-102412391D01*
X185172819Y-102417670D01*
X184155368Y-102839112D01*
X183910223Y-103230618D01*
X185750000Y-105070395D01*
X185764143Y-105056253D01*
X185943748Y-105235858D01*
X185929605Y-105250000D01*
X185943748Y-105264143D01*
X185764143Y-105443748D01*
X185750000Y-105429605D01*
X185735858Y-105443748D01*
X185556253Y-105264143D01*
X185570395Y-105250000D01*
X183730618Y-103410223D01*
X183339112Y-103655368D01*
X182912391Y-104699360D01*
X182917670Y-105827181D01*
X183249088Y-106627295D01*
X183159972Y-106538179D01*
X183113208Y-106468192D01*
X182835949Y-106282933D01*
X182749940Y-106265825D01*
X182749940Y-106222500D01*
X182700657Y-105974735D01*
X182683975Y-105949769D01*
X182785000Y-105705874D01*
X182785000Y-105294126D01*
X182627431Y-104913720D01*
X182336280Y-104622569D01*
X181955874Y-104465000D01*
X181544126Y-104465000D01*
X181163720Y-104622569D01*
X180872569Y-104913720D01*
X180737815Y-105239046D01*
X180667500Y-105225060D01*
X180564011Y-105225060D01*
X180452500Y-105202879D01*
X180340988Y-105225060D01*
X180237500Y-105225060D01*
X179989735Y-105274343D01*
X179779691Y-105414691D01*
X179692581Y-105545060D01*
X178792500Y-105545060D01*
X178544735Y-105594343D01*
X178440491Y-105663997D01*
X175694672Y-102918179D01*
X175647908Y-102848192D01*
X175370649Y-102662933D01*
X175126154Y-102614300D01*
X175126149Y-102614300D01*
X175043600Y-102597880D01*
X174961051Y-102614300D01*
X163049694Y-102614300D01*
X161221144Y-100785750D01*
X173115000Y-100785750D01*
X173115000Y-101626309D01*
X173211673Y-101859698D01*
X173390301Y-102038327D01*
X173623690Y-102135000D01*
X175214250Y-102135000D01*
X175373000Y-101976250D01*
X175373000Y-100627000D01*
X175627000Y-100627000D01*
X175627000Y-101976250D01*
X175785750Y-102135000D01*
X177376310Y-102135000D01*
X177609699Y-102038327D01*
X177788327Y-101859698D01*
X177885000Y-101626309D01*
X177885000Y-100785750D01*
X181115000Y-100785750D01*
X181115000Y-101626309D01*
X181211673Y-101859698D01*
X181390301Y-102038327D01*
X181623690Y-102135000D01*
X184464250Y-102135000D01*
X184623000Y-101976250D01*
X184623000Y-100627000D01*
X181273750Y-100627000D01*
X181115000Y-100785750D01*
X177885000Y-100785750D01*
X177726250Y-100627000D01*
X175627000Y-100627000D01*
X175373000Y-100627000D01*
X173273750Y-100627000D01*
X173115000Y-100785750D01*
X161221144Y-100785750D01*
X160401072Y-99965679D01*
X160354308Y-99895692D01*
X160077049Y-99710433D01*
X160024816Y-99700043D01*
X160093157Y-99597765D01*
X160142440Y-99350000D01*
X160142440Y-97806675D01*
X160228449Y-97789567D01*
X160505708Y-97604308D01*
X160552472Y-97534321D01*
X161252181Y-96834612D01*
X161214950Y-96924496D01*
X161214950Y-97475504D01*
X161425811Y-97984568D01*
X161815432Y-98374189D01*
X162324496Y-98585050D01*
X162452560Y-98585050D01*
X162452560Y-99900000D01*
X162501843Y-100147765D01*
X162642191Y-100357809D01*
X162852235Y-100498157D01*
X163100000Y-100547440D01*
X164900000Y-100547440D01*
X165147765Y-100498157D01*
X165357809Y-100357809D01*
X165498157Y-100147765D01*
X165501275Y-100132092D01*
X165670493Y-100301310D01*
X166234670Y-100535000D01*
X166845330Y-100535000D01*
X167409507Y-100301310D01*
X167810000Y-99900817D01*
X168210493Y-100301310D01*
X168774670Y-100535000D01*
X169385330Y-100535000D01*
X169949507Y-100301310D01*
X170381310Y-99869507D01*
X170586683Y-99373691D01*
X173115000Y-99373691D01*
X173115000Y-100214250D01*
X173273750Y-100373000D01*
X175373000Y-100373000D01*
X175373000Y-99023750D01*
X175627000Y-99023750D01*
X175627000Y-100373000D01*
X177726250Y-100373000D01*
X177885000Y-100214250D01*
X177885000Y-99373691D01*
X181115000Y-99373691D01*
X181115000Y-100214250D01*
X181273750Y-100373000D01*
X184623000Y-100373000D01*
X184623000Y-99023750D01*
X184464250Y-98865000D01*
X181623690Y-98865000D01*
X181390301Y-98961673D01*
X181211673Y-99140302D01*
X181115000Y-99373691D01*
X177885000Y-99373691D01*
X177788327Y-99140302D01*
X177609699Y-98961673D01*
X177376310Y-98865000D01*
X175785750Y-98865000D01*
X175627000Y-99023750D01*
X175373000Y-99023750D01*
X175214250Y-98865000D01*
X173623690Y-98865000D01*
X173390301Y-98961673D01*
X173211673Y-99140302D01*
X173115000Y-99373691D01*
X170586683Y-99373691D01*
X170615000Y-99305330D01*
X170615000Y-98694670D01*
X170381310Y-98130493D01*
X170245817Y-97995000D01*
X170655330Y-97995000D01*
X171219507Y-97761310D01*
X171651310Y-97329507D01*
X171885000Y-96765330D01*
X171885000Y-96226794D01*
X172692530Y-97034324D01*
X172692530Y-97034324D01*
G37*
X172692530Y-97034324D02*
X172739292Y-97104308D01*
X172809276Y-97151070D01*
X172809277Y-97151071D01*
X172815156Y-97154999D01*
X173016551Y-97289567D01*
X173102560Y-97306675D01*
X173102560Y-97500000D01*
X173151843Y-97747765D01*
X173292191Y-97957809D01*
X173502235Y-98098157D01*
X173750000Y-98147440D01*
X177250000Y-98147440D01*
X177497765Y-98098157D01*
X177707809Y-97957809D01*
X177848157Y-97747765D01*
X177897440Y-97500000D01*
X177897440Y-97338200D01*
X181102560Y-97338200D01*
X181102560Y-97500000D01*
X181151843Y-97747765D01*
X181292191Y-97957809D01*
X181502235Y-98098157D01*
X181750000Y-98147440D01*
X187750000Y-98147440D01*
X187790001Y-98139483D01*
X187790001Y-98865000D01*
X185035750Y-98865000D01*
X184877000Y-99023750D01*
X184877000Y-100373000D01*
X184897000Y-100373000D01*
X184897000Y-100627000D01*
X184877000Y-100627000D01*
X184877000Y-101976250D01*
X185035750Y-102135000D01*
X187790001Y-102135000D01*
X187790001Y-103205677D01*
X187702358Y-103118034D01*
X187589776Y-103230616D01*
X187344632Y-102839112D01*
X186300640Y-102412391D01*
X185172819Y-102417670D01*
X184155368Y-102839112D01*
X183910223Y-103230618D01*
X185750000Y-105070395D01*
X185764143Y-105056253D01*
X185943748Y-105235858D01*
X185929605Y-105250000D01*
X185943748Y-105264143D01*
X185764143Y-105443748D01*
X185750000Y-105429605D01*
X185735858Y-105443748D01*
X185556253Y-105264143D01*
X185570395Y-105250000D01*
X183730618Y-103410223D01*
X183339112Y-103655368D01*
X182912391Y-104699360D01*
X182917670Y-105827181D01*
X183249088Y-106627295D01*
X183159972Y-106538179D01*
X183113208Y-106468192D01*
X182835949Y-106282933D01*
X182749940Y-106265825D01*
X182749940Y-106222500D01*
X182700657Y-105974735D01*
X182683975Y-105949769D01*
X182785000Y-105705874D01*
X182785000Y-105294126D01*
X182627431Y-104913720D01*
X182336280Y-104622569D01*
X181955874Y-104465000D01*
X181544126Y-104465000D01*
X181163720Y-104622569D01*
X180872569Y-104913720D01*
X180737815Y-105239046D01*
X180667500Y-105225060D01*
X180564011Y-105225060D01*
X180452500Y-105202879D01*
X180340988Y-105225060D01*
X180237500Y-105225060D01*
X179989735Y-105274343D01*
X179779691Y-105414691D01*
X179692581Y-105545060D01*
X178792500Y-105545060D01*
X178544735Y-105594343D01*
X178440491Y-105663997D01*
X175694672Y-102918179D01*
X175647908Y-102848192D01*
X175370649Y-102662933D01*
X175126154Y-102614300D01*
X175126149Y-102614300D01*
X175043600Y-102597880D01*
X174961051Y-102614300D01*
X163049694Y-102614300D01*
X161221144Y-100785750D01*
X173115000Y-100785750D01*
X173115000Y-101626309D01*
X173211673Y-101859698D01*
X173390301Y-102038327D01*
X173623690Y-102135000D01*
X175214250Y-102135000D01*
X175373000Y-101976250D01*
X175373000Y-100627000D01*
X175627000Y-100627000D01*
X175627000Y-101976250D01*
X175785750Y-102135000D01*
X177376310Y-102135000D01*
X177609699Y-102038327D01*
X177788327Y-101859698D01*
X177885000Y-101626309D01*
X177885000Y-100785750D01*
X181115000Y-100785750D01*
X181115000Y-101626309D01*
X181211673Y-101859698D01*
X181390301Y-102038327D01*
X181623690Y-102135000D01*
X184464250Y-102135000D01*
X184623000Y-101976250D01*
X184623000Y-100627000D01*
X181273750Y-100627000D01*
X181115000Y-100785750D01*
X177885000Y-100785750D01*
X177726250Y-100627000D01*
X175627000Y-100627000D01*
X175373000Y-100627000D01*
X173273750Y-100627000D01*
X173115000Y-100785750D01*
X161221144Y-100785750D01*
X160401072Y-99965679D01*
X160354308Y-99895692D01*
X160077049Y-99710433D01*
X160024816Y-99700043D01*
X160093157Y-99597765D01*
X160142440Y-99350000D01*
X160142440Y-97806675D01*
X160228449Y-97789567D01*
X160505708Y-97604308D01*
X160552472Y-97534321D01*
X161252181Y-96834612D01*
X161214950Y-96924496D01*
X161214950Y-97475504D01*
X161425811Y-97984568D01*
X161815432Y-98374189D01*
X162324496Y-98585050D01*
X162452560Y-98585050D01*
X162452560Y-99900000D01*
X162501843Y-100147765D01*
X162642191Y-100357809D01*
X162852235Y-100498157D01*
X163100000Y-100547440D01*
X164900000Y-100547440D01*
X165147765Y-100498157D01*
X165357809Y-100357809D01*
X165498157Y-100147765D01*
X165501275Y-100132092D01*
X165670493Y-100301310D01*
X166234670Y-100535000D01*
X166845330Y-100535000D01*
X167409507Y-100301310D01*
X167810000Y-99900817D01*
X168210493Y-100301310D01*
X168774670Y-100535000D01*
X169385330Y-100535000D01*
X169949507Y-100301310D01*
X170381310Y-99869507D01*
X170586683Y-99373691D01*
X173115000Y-99373691D01*
X173115000Y-100214250D01*
X173273750Y-100373000D01*
X175373000Y-100373000D01*
X175373000Y-99023750D01*
X175627000Y-99023750D01*
X175627000Y-100373000D01*
X177726250Y-100373000D01*
X177885000Y-100214250D01*
X177885000Y-99373691D01*
X181115000Y-99373691D01*
X181115000Y-100214250D01*
X181273750Y-100373000D01*
X184623000Y-100373000D01*
X184623000Y-99023750D01*
X184464250Y-98865000D01*
X181623690Y-98865000D01*
X181390301Y-98961673D01*
X181211673Y-99140302D01*
X181115000Y-99373691D01*
X177885000Y-99373691D01*
X177788327Y-99140302D01*
X177609699Y-98961673D01*
X177376310Y-98865000D01*
X175785750Y-98865000D01*
X175627000Y-99023750D01*
X175373000Y-99023750D01*
X175214250Y-98865000D01*
X173623690Y-98865000D01*
X173390301Y-98961673D01*
X173211673Y-99140302D01*
X173115000Y-99373691D01*
X170586683Y-99373691D01*
X170615000Y-99305330D01*
X170615000Y-98694670D01*
X170381310Y-98130493D01*
X170245817Y-97995000D01*
X170655330Y-97995000D01*
X171219507Y-97761310D01*
X171651310Y-97329507D01*
X171885000Y-96765330D01*
X171885000Y-96226794D01*
X172692530Y-97034324D01*
G36*
X140362000Y-104873000D02*
X140382000Y-104873000D01*
X140382000Y-105127000D01*
X140362000Y-105127000D01*
X140362000Y-105147000D01*
X140207440Y-105147000D01*
X140207440Y-104853000D01*
X140362000Y-104853000D01*
X140362000Y-104873000D01*
X140362000Y-104873000D01*
G37*
X140362000Y-104873000D02*
X140382000Y-104873000D01*
X140382000Y-105127000D01*
X140362000Y-105127000D01*
X140362000Y-105147000D01*
X140207440Y-105147000D01*
X140207440Y-104853000D01*
X140362000Y-104853000D01*
X140362000Y-104873000D01*
G36*
X159504607Y-101440000D02*
X159035750Y-101440000D01*
X158877000Y-101598750D01*
X158877000Y-102435500D01*
X158897000Y-102435500D01*
X158897000Y-102689500D01*
X158877000Y-102689500D01*
X158877000Y-102709500D01*
X158623000Y-102709500D01*
X158623000Y-102689500D01*
X157573750Y-102689500D01*
X157415000Y-102848250D01*
X157415000Y-103176309D01*
X157511673Y-103409698D01*
X157664767Y-103562793D01*
X157663584Y-103563584D01*
X157470398Y-103852706D01*
X157432038Y-104045554D01*
X157377431Y-103913720D01*
X157086280Y-103622569D01*
X156705874Y-103465000D01*
X156294126Y-103465000D01*
X155913720Y-103622569D01*
X155622569Y-103913720D01*
X155465595Y-104292688D01*
X155446316Y-104289944D01*
X155395544Y-104347830D01*
X155248508Y-104438982D01*
X155104374Y-104342674D01*
X155165000Y-104196310D01*
X155165000Y-104035750D01*
X155006250Y-103877000D01*
X154362000Y-103877000D01*
X154362000Y-103897000D01*
X154207440Y-103897000D01*
X154207440Y-103577500D01*
X154146929Y-103273290D01*
X154108000Y-103215029D01*
X154108000Y-102953750D01*
X154362000Y-102953750D01*
X154362000Y-103623000D01*
X155006250Y-103623000D01*
X155165000Y-103464250D01*
X155165000Y-103303690D01*
X155068327Y-103070301D01*
X154889698Y-102891673D01*
X154656309Y-102795000D01*
X154520750Y-102795000D01*
X154362000Y-102953750D01*
X154108000Y-102953750D01*
X153949250Y-102795000D01*
X153813691Y-102795000D01*
X153703825Y-102840508D01*
X153412500Y-102782560D01*
X153117500Y-102782560D01*
X152949605Y-102815956D01*
X152705874Y-102715000D01*
X152338200Y-102715000D01*
X152338200Y-102147440D01*
X153250000Y-102147440D01*
X153497765Y-102098157D01*
X153707809Y-101957809D01*
X153713901Y-101948691D01*
X157415000Y-101948691D01*
X157415000Y-102276750D01*
X157573750Y-102435500D01*
X158623000Y-102435500D01*
X158623000Y-101598750D01*
X158464250Y-101440000D01*
X157923690Y-101440000D01*
X157690301Y-101536673D01*
X157511673Y-101715302D01*
X157415000Y-101948691D01*
X153713901Y-101948691D01*
X153848157Y-101747765D01*
X153897440Y-101500000D01*
X153897440Y-101338200D01*
X159402807Y-101338200D01*
X159504607Y-101440000D01*
X159504607Y-101440000D01*
G37*
X159504607Y-101440000D02*
X159035750Y-101440000D01*
X158877000Y-101598750D01*
X158877000Y-102435500D01*
X158897000Y-102435500D01*
X158897000Y-102689500D01*
X158877000Y-102689500D01*
X158877000Y-102709500D01*
X158623000Y-102709500D01*
X158623000Y-102689500D01*
X157573750Y-102689500D01*
X157415000Y-102848250D01*
X157415000Y-103176309D01*
X157511673Y-103409698D01*
X157664767Y-103562793D01*
X157663584Y-103563584D01*
X157470398Y-103852706D01*
X157432038Y-104045554D01*
X157377431Y-103913720D01*
X157086280Y-103622569D01*
X156705874Y-103465000D01*
X156294126Y-103465000D01*
X155913720Y-103622569D01*
X155622569Y-103913720D01*
X155465595Y-104292688D01*
X155446316Y-104289944D01*
X155395544Y-104347830D01*
X155248508Y-104438982D01*
X155104374Y-104342674D01*
X155165000Y-104196310D01*
X155165000Y-104035750D01*
X155006250Y-103877000D01*
X154362000Y-103877000D01*
X154362000Y-103897000D01*
X154207440Y-103897000D01*
X154207440Y-103577500D01*
X154146929Y-103273290D01*
X154108000Y-103215029D01*
X154108000Y-102953750D01*
X154362000Y-102953750D01*
X154362000Y-103623000D01*
X155006250Y-103623000D01*
X155165000Y-103464250D01*
X155165000Y-103303690D01*
X155068327Y-103070301D01*
X154889698Y-102891673D01*
X154656309Y-102795000D01*
X154520750Y-102795000D01*
X154362000Y-102953750D01*
X154108000Y-102953750D01*
X153949250Y-102795000D01*
X153813691Y-102795000D01*
X153703825Y-102840508D01*
X153412500Y-102782560D01*
X153117500Y-102782560D01*
X152949605Y-102815956D01*
X152705874Y-102715000D01*
X152338200Y-102715000D01*
X152338200Y-102147440D01*
X153250000Y-102147440D01*
X153497765Y-102098157D01*
X153707809Y-101957809D01*
X153713901Y-101948691D01*
X157415000Y-101948691D01*
X157415000Y-102276750D01*
X157573750Y-102435500D01*
X158623000Y-102435500D01*
X158623000Y-101598750D01*
X158464250Y-101440000D01*
X157923690Y-101440000D01*
X157690301Y-101536673D01*
X157511673Y-101715302D01*
X157415000Y-101948691D01*
X153713901Y-101948691D01*
X153848157Y-101747765D01*
X153897440Y-101500000D01*
X153897440Y-101338200D01*
X159402807Y-101338200D01*
X159504607Y-101440000D01*
G36*
X149390301Y-94961673D02*
X149211673Y-95140302D01*
X149115000Y-95373691D01*
X149115000Y-96214250D01*
X149273750Y-96373000D01*
X151373000Y-96373000D01*
X151373000Y-96353000D01*
X151627000Y-96353000D01*
X151627000Y-96373000D01*
X153726250Y-96373000D01*
X153885000Y-96214250D01*
X153885000Y-95373691D01*
X153788327Y-95140302D01*
X153609699Y-94961673D01*
X153605660Y-94960000D01*
X154357560Y-94960000D01*
X154357560Y-99350000D01*
X154406843Y-99597765D01*
X154449630Y-99661800D01*
X153897440Y-99661800D01*
X153897440Y-99500000D01*
X153848157Y-99252235D01*
X153707809Y-99042191D01*
X153497765Y-98901843D01*
X153250000Y-98852560D01*
X149750000Y-98852560D01*
X149502235Y-98901843D01*
X149292191Y-99042191D01*
X149151843Y-99252235D01*
X149102560Y-99500000D01*
X149102560Y-99661800D01*
X145897440Y-99661800D01*
X145897440Y-99500000D01*
X145848157Y-99252235D01*
X145707809Y-99042191D01*
X145497765Y-98901843D01*
X145250000Y-98852560D01*
X139250000Y-98852560D01*
X139210000Y-98860516D01*
X139210000Y-98135000D01*
X141964250Y-98135000D01*
X142123000Y-97976250D01*
X142123000Y-96627000D01*
X142377000Y-96627000D01*
X142377000Y-97976250D01*
X142535750Y-98135000D01*
X145376310Y-98135000D01*
X145609699Y-98038327D01*
X145788327Y-97859698D01*
X145885000Y-97626309D01*
X145885000Y-96785750D01*
X149115000Y-96785750D01*
X149115000Y-97626309D01*
X149211673Y-97859698D01*
X149390301Y-98038327D01*
X149623690Y-98135000D01*
X151214250Y-98135000D01*
X151373000Y-97976250D01*
X151373000Y-96627000D01*
X151627000Y-96627000D01*
X151627000Y-97976250D01*
X151785750Y-98135000D01*
X153376310Y-98135000D01*
X153609699Y-98038327D01*
X153788327Y-97859698D01*
X153885000Y-97626309D01*
X153885000Y-96785750D01*
X153726250Y-96627000D01*
X151627000Y-96627000D01*
X151373000Y-96627000D01*
X149273750Y-96627000D01*
X149115000Y-96785750D01*
X145885000Y-96785750D01*
X145726250Y-96627000D01*
X142377000Y-96627000D01*
X142123000Y-96627000D01*
X142103000Y-96627000D01*
X142103000Y-96373000D01*
X142123000Y-96373000D01*
X142123000Y-96353000D01*
X142377000Y-96353000D01*
X142377000Y-96373000D01*
X145726250Y-96373000D01*
X145885000Y-96214250D01*
X145885000Y-95373691D01*
X145788327Y-95140302D01*
X145609699Y-94961673D01*
X145605660Y-94960000D01*
X149394340Y-94960000D01*
X149390301Y-94961673D01*
X149390301Y-94961673D01*
G37*
X149390301Y-94961673D02*
X149211673Y-95140302D01*
X149115000Y-95373691D01*
X149115000Y-96214250D01*
X149273750Y-96373000D01*
X151373000Y-96373000D01*
X151373000Y-96353000D01*
X151627000Y-96353000D01*
X151627000Y-96373000D01*
X153726250Y-96373000D01*
X153885000Y-96214250D01*
X153885000Y-95373691D01*
X153788327Y-95140302D01*
X153609699Y-94961673D01*
X153605660Y-94960000D01*
X154357560Y-94960000D01*
X154357560Y-99350000D01*
X154406843Y-99597765D01*
X154449630Y-99661800D01*
X153897440Y-99661800D01*
X153897440Y-99500000D01*
X153848157Y-99252235D01*
X153707809Y-99042191D01*
X153497765Y-98901843D01*
X153250000Y-98852560D01*
X149750000Y-98852560D01*
X149502235Y-98901843D01*
X149292191Y-99042191D01*
X149151843Y-99252235D01*
X149102560Y-99500000D01*
X149102560Y-99661800D01*
X145897440Y-99661800D01*
X145897440Y-99500000D01*
X145848157Y-99252235D01*
X145707809Y-99042191D01*
X145497765Y-98901843D01*
X145250000Y-98852560D01*
X139250000Y-98852560D01*
X139210000Y-98860516D01*
X139210000Y-98135000D01*
X141964250Y-98135000D01*
X142123000Y-97976250D01*
X142123000Y-96627000D01*
X142377000Y-96627000D01*
X142377000Y-97976250D01*
X142535750Y-98135000D01*
X145376310Y-98135000D01*
X145609699Y-98038327D01*
X145788327Y-97859698D01*
X145885000Y-97626309D01*
X145885000Y-96785750D01*
X149115000Y-96785750D01*
X149115000Y-97626309D01*
X149211673Y-97859698D01*
X149390301Y-98038327D01*
X149623690Y-98135000D01*
X151214250Y-98135000D01*
X151373000Y-97976250D01*
X151373000Y-96627000D01*
X151627000Y-96627000D01*
X151627000Y-97976250D01*
X151785750Y-98135000D01*
X153376310Y-98135000D01*
X153609699Y-98038327D01*
X153788327Y-97859698D01*
X153885000Y-97626309D01*
X153885000Y-96785750D01*
X153726250Y-96627000D01*
X151627000Y-96627000D01*
X151373000Y-96627000D01*
X149273750Y-96627000D01*
X149115000Y-96785750D01*
X145885000Y-96785750D01*
X145726250Y-96627000D01*
X142377000Y-96627000D01*
X142123000Y-96627000D01*
X142103000Y-96627000D01*
X142103000Y-96373000D01*
X142123000Y-96373000D01*
X142123000Y-96353000D01*
X142377000Y-96353000D01*
X142377000Y-96373000D01*
X145726250Y-96373000D01*
X145885000Y-96214250D01*
X145885000Y-95373691D01*
X145788327Y-95140302D01*
X145609699Y-94961673D01*
X145605660Y-94960000D01*
X149394340Y-94960000D01*
X149390301Y-94961673D01*
G04 #@! TD*
M02*
