M48
;DRILL file {KiCad 5.0.2-bee76a0~70~ubuntu18.04.1} date Thu 05 Dec 2019 07:09:49 PM CET
;FORMAT={-:-/ absolute / inch / decimal}
FMAT,2
INCH,TZ
T1C0.0157
T2C0.0315
T3C0.0866
%
G90
G05
T1
X5.4921Y-4.6457
X5.4921Y-4.685
X5.4921Y-4.7244
X5.5315Y-4.6457
X5.5315Y-4.685
X5.5315Y-4.7244
X5.5709Y-4.4094
X5.5709Y-4.6457
X5.5709Y-4.685
X5.5709Y-4.7244
X5.7283Y-4.3209
X5.7677Y-3.75
X5.7677Y-3.7894
X5.7677Y-3.8287
X5.7677Y-4.0059
X5.7677Y-4.0059
X5.7677Y-4.0059
X5.7677Y-4.0453
X5.7677Y-4.0846
X5.8071Y-3.75
X5.8071Y-3.7894
X5.8071Y-3.8287
X5.8071Y-4.0059
X5.8071Y-4.0453
X5.8071Y-4.0846
X5.8169Y-4.6457
X5.8169Y-4.685
X5.8169Y-4.7244
X5.8465Y-3.75
X5.8465Y-3.7894
X5.8465Y-3.8287
X5.8465Y-4.0059
X5.8465Y-4.0453
X5.8465Y-4.0846
X5.8465Y-4.1535
X5.8563Y-4.6457
X5.8563Y-4.685
X5.8563Y-4.7244
X5.876Y-4.3602
X5.876Y-4.4094
X5.8957Y-4.6457
X5.8957Y-4.685
X5.8957Y-4.7244
X6.0039Y-4.0846
X6.0039Y-4.1634
X6.0335Y-4.0354
X6.0728Y-3.9961
X6.0728Y-4.0354
X6.1319Y-3.9249
X6.1516Y-4.6457
X6.1516Y-4.685
X6.1516Y-4.7244
X6.1614Y-4.1142
X6.1909Y-4.6457
X6.1909Y-4.685
X6.1909Y-4.7244
X6.2106Y-4.4094
X6.2303Y-4.6457
X6.2303Y-4.685
X6.2303Y-4.7244
X6.2561Y-3.8189
X6.3091Y-4.0354
X6.378Y-4.311
X6.4862Y-4.6457
X6.4862Y-4.685
X6.4862Y-4.7244
X6.5157Y-4.1831
X6.5256Y-4.6457
X6.5256Y-4.685
X6.5256Y-4.7244
X6.5453Y-4.4094
X6.565Y-4.6457
X6.565Y-4.685
X6.565Y-4.7244
X6.811Y-4.6457
X6.811Y-4.685
X6.811Y-4.7244
X6.8504Y-4.6457
X6.8504Y-4.685
X6.8504Y-4.7244
X6.8701Y-4.4094
X6.8898Y-4.6457
X6.8898Y-4.685
X6.8898Y-4.7244
X7.0374Y-3.8976
X7.0374Y-3.937
X7.0374Y-3.9764
X7.0472Y-4.311
X7.0768Y-3.8976
X7.0768Y-3.937
X7.0768Y-3.9764
X7.1161Y-3.8976
X7.1161Y-3.937
X7.1161Y-3.9764
X7.1457Y-4.6457
X7.1457Y-4.685
X7.1457Y-4.7244
X7.1555Y-4.1535
X7.185Y-4.6457
X7.185Y-4.685
X7.185Y-4.7244
X7.2047Y-4.3996
X7.2244Y-4.6457
X7.2244Y-4.685
X7.2244Y-4.7244
T2
X6.4567Y-3.8976
X6.5067Y-3.7976
X6.5567Y-3.8976
X6.6067Y-3.7976
X6.6567Y-3.8976
X6.7067Y-3.7976
T3
X5.5807Y-4.2421
X7.313Y-4.1437
T0
M30
