G04 #@! TF.GenerationSoftware,KiCad,Pcbnew,5.0.2-bee76a0~70~ubuntu18.04.1*
G04 #@! TF.CreationDate,2019-12-05T19:09:47+01:00*
G04 #@! TF.ProjectId,magneto_bot_shield,6d61676e-6574-46f5-9f62-6f745f736869,rev?*
G04 #@! TF.SameCoordinates,Original*
G04 #@! TF.FileFunction,Legend,Top*
G04 #@! TF.FilePolarity,Positive*
%FSLAX46Y46*%
G04 Gerber Fmt 4.6, Leading zero omitted, Abs format (unit mm)*
G04 Created by KiCad (PCBNEW 5.0.2-bee76a0~70~ubuntu18.04.1) date Thu 05 Dec 2019 07:09:47 PM CET*
%MOMM*%
%LPD*%
G01*
G04 APERTURE LIST*
%ADD10C,0.120000*%
%ADD11C,0.100000*%
%ADD12C,0.150000*%
%ADD13C,0.127000*%
%ADD14C,0.304800*%
%ADD15C,0.010000*%
%ADD16C,0.060000*%
G04 APERTURE END LIST*
D10*
G04 #@! TO.C,C5*
X159460000Y-103241422D02*
X159460000Y-103758578D01*
X158040000Y-103241422D02*
X158040000Y-103758578D01*
D11*
G04 #@! TO.C,D1*
X180460000Y-111950000D02*
G75*
G03X180460000Y-111950000I-50000J0D01*
G01*
G04 #@! TO.C,D2*
X171960000Y-112000000D02*
G75*
G03X171960000Y-112000000I-50000J0D01*
G01*
G04 #@! TO.C,D3*
X163710000Y-112000000D02*
G75*
G03X163710000Y-112000000I-50000J0D01*
G01*
G04 #@! TO.C,D4*
X155210000Y-112000000D02*
G75*
G03X155210000Y-112000000I-50000J0D01*
G01*
G04 #@! TO.C,D5*
X146710000Y-112000000D02*
G75*
G03X146710000Y-112000000I-50000J0D01*
G01*
G04 #@! TO.C,D6*
X138710000Y-112000000D02*
G75*
G03X138710000Y-112000000I-50000J0D01*
G01*
D12*
G04 #@! TO.C,J1*
X138500000Y-124900000D02*
X139100000Y-124900000D01*
X143100000Y-124900000D02*
X141900000Y-124900000D01*
X146500000Y-124900000D02*
X145900000Y-124900000D01*
X138500000Y-127900000D02*
X146500000Y-127900000D01*
X146500000Y-127900000D02*
X146500000Y-112900000D01*
X146500000Y-112900000D02*
X138500000Y-112900000D01*
X138500000Y-112900000D02*
X138500000Y-127900000D01*
G04 #@! TO.C,J2*
X146800000Y-112900000D02*
X146800000Y-127900000D01*
X154800000Y-112900000D02*
X146800000Y-112900000D01*
X154800000Y-127900000D02*
X154800000Y-112900000D01*
X146800000Y-127900000D02*
X154800000Y-127900000D01*
X154800000Y-124900000D02*
X154200000Y-124900000D01*
X151400000Y-124900000D02*
X150200000Y-124900000D01*
X146800000Y-124900000D02*
X147400000Y-124900000D01*
G04 #@! TO.C,J3*
X155200000Y-112900000D02*
X155200000Y-127900000D01*
X163200000Y-112900000D02*
X155200000Y-112900000D01*
X163200000Y-127900000D02*
X163200000Y-112900000D01*
X155200000Y-127900000D02*
X163200000Y-127900000D01*
X163200000Y-124900000D02*
X162600000Y-124900000D01*
X159800000Y-124900000D02*
X158600000Y-124900000D01*
X155200000Y-124900000D02*
X155800000Y-124900000D01*
G04 #@! TO.C,J4*
X163600000Y-124900000D02*
X164200000Y-124900000D01*
X168200000Y-124900000D02*
X167000000Y-124900000D01*
X171600000Y-124900000D02*
X171000000Y-124900000D01*
X163600000Y-127900000D02*
X171600000Y-127900000D01*
X171600000Y-127900000D02*
X171600000Y-112900000D01*
X171600000Y-112900000D02*
X163600000Y-112900000D01*
X163600000Y-112900000D02*
X163600000Y-127900000D01*
G04 #@! TO.C,J5*
X172000000Y-112900000D02*
X172000000Y-127900000D01*
X180000000Y-112900000D02*
X172000000Y-112900000D01*
X180000000Y-127900000D02*
X180000000Y-112900000D01*
X172000000Y-127900000D02*
X180000000Y-127900000D01*
X180000000Y-124900000D02*
X179400000Y-124900000D01*
X176600000Y-124900000D02*
X175400000Y-124900000D01*
X172000000Y-124900000D02*
X172600000Y-124900000D01*
G04 #@! TO.C,J6*
X141750000Y-94500000D02*
X141750000Y-95100000D01*
X141750000Y-99100000D02*
X141750000Y-97900000D01*
X141750000Y-102500000D02*
X141750000Y-101900000D01*
X138750000Y-94500000D02*
X138750000Y-102500000D01*
X138750000Y-102500000D02*
X153750000Y-102500000D01*
X153750000Y-102500000D02*
X153750000Y-94500000D01*
X153750000Y-94500000D02*
X138750000Y-94500000D01*
G04 #@! TO.C,J7*
X173250000Y-102500000D02*
X188250000Y-102500000D01*
X173250000Y-94500000D02*
X173250000Y-102500000D01*
X188250000Y-94500000D02*
X173250000Y-94500000D01*
X188250000Y-102500000D02*
X188250000Y-94500000D01*
X185250000Y-94500000D02*
X185250000Y-95100000D01*
X185250000Y-97900000D02*
X185250000Y-99100000D01*
X185250000Y-102500000D02*
X185250000Y-101900000D01*
G04 #@! TO.C,J8*
X180400000Y-124900000D02*
X181000000Y-124900000D01*
X185000000Y-124900000D02*
X183800000Y-124900000D01*
X188400000Y-124900000D02*
X187800000Y-124900000D01*
X180400000Y-127900000D02*
X188400000Y-127900000D01*
X188400000Y-127900000D02*
X188400000Y-112900000D01*
X188400000Y-112900000D02*
X180400000Y-112900000D01*
X180400000Y-112900000D02*
X180400000Y-127900000D01*
D10*
G04 #@! TO.C,J9*
X166540000Y-100530000D02*
X172225000Y-100530000D01*
X172225000Y-100530000D02*
X172225000Y-94930000D01*
X162125000Y-94930000D02*
X172225000Y-94930000D01*
X162125000Y-96460000D02*
X162125000Y-94930000D01*
X163400000Y-97730000D02*
X165270000Y-97730000D01*
X165270000Y-97730000D02*
X165270000Y-99600000D01*
X164000000Y-100530000D02*
X162125000Y-100530000D01*
X162125000Y-100530000D02*
X162125000Y-99000000D01*
D12*
G04 #@! TO.C,MAX1*
X156625000Y-105125000D02*
X156625000Y-105625000D01*
X153375000Y-108375000D02*
X153375000Y-107875000D01*
X156625000Y-108375000D02*
X156625000Y-107875000D01*
X153375000Y-105125000D02*
X153875000Y-105125000D01*
X153375000Y-108375000D02*
X153875000Y-108375000D01*
X156625000Y-108375000D02*
X156125000Y-108375000D01*
X156625000Y-105125000D02*
X156125000Y-105125000D01*
D13*
G04 #@! TO.C,Q1*
X148452500Y-109022500D02*
X148452500Y-106022500D01*
X145452500Y-109022500D02*
X148452500Y-109022500D01*
X145452500Y-106022500D02*
X145452500Y-109022500D01*
X148452500Y-106022500D02*
X145452500Y-106022500D01*
D14*
X149102500Y-109322500D02*
G75*
G03X149102500Y-109322500I-150000J0D01*
G01*
G04 #@! TO.C,Q2*
X165400000Y-109300000D02*
G75*
G03X165400000Y-109300000I-150000J0D01*
G01*
D13*
X164750000Y-106000000D02*
X161750000Y-106000000D01*
X161750000Y-106000000D02*
X161750000Y-109000000D01*
X161750000Y-109000000D02*
X164750000Y-109000000D01*
X164750000Y-109000000D02*
X164750000Y-106000000D01*
D14*
G04 #@! TO.C,Q3*
X182602500Y-109322500D02*
G75*
G03X182602500Y-109322500I-150000J0D01*
G01*
D13*
X181952500Y-106022500D02*
X178952500Y-106022500D01*
X178952500Y-106022500D02*
X178952500Y-109022500D01*
X178952500Y-109022500D02*
X181952500Y-109022500D01*
X181952500Y-109022500D02*
X181952500Y-106022500D01*
D11*
G04 #@! TO.C,D7*
X138710000Y-103750000D02*
G75*
G03X138710000Y-103750000I-50000J0D01*
G01*
D15*
G04 #@! TO.C,H3*
G36*
X172928201Y-106229738D02*
X172948348Y-106231965D01*
X172965863Y-106235564D01*
X172981188Y-106241308D01*
X172994766Y-106249971D01*
X173007039Y-106262324D01*
X173018450Y-106279140D01*
X173029440Y-106301193D01*
X173040453Y-106329255D01*
X173051931Y-106364099D01*
X173064316Y-106406498D01*
X173078050Y-106457225D01*
X173093577Y-106517052D01*
X173094299Y-106519867D01*
X173111506Y-106592474D01*
X173125540Y-106664276D01*
X173136689Y-106737443D01*
X173145238Y-106814150D01*
X173151474Y-106896569D01*
X173155609Y-106984760D01*
X173156717Y-107018405D01*
X173157222Y-107044525D01*
X173156933Y-107065749D01*
X173155658Y-107084703D01*
X173153208Y-107104014D01*
X173149391Y-107126309D01*
X173144016Y-107154217D01*
X173142872Y-107160020D01*
X173126391Y-107238711D01*
X173108865Y-107313406D01*
X173090546Y-107383339D01*
X173071687Y-107447741D01*
X173052541Y-107505845D01*
X173033359Y-107556882D01*
X173014394Y-107600085D01*
X172995900Y-107634686D01*
X172978657Y-107659293D01*
X172967953Y-107672749D01*
X172953677Y-107691717D01*
X172937975Y-107713311D01*
X172927487Y-107728152D01*
X172901986Y-107762275D01*
X172878222Y-107789201D01*
X172856922Y-107808184D01*
X172839823Y-107818106D01*
X172827848Y-107820698D01*
X172810149Y-107822358D01*
X172795639Y-107822712D01*
X172779049Y-107821866D01*
X172763769Y-107819024D01*
X172746746Y-107813303D01*
X172724929Y-107803818D01*
X172715960Y-107799618D01*
X172693192Y-107787894D01*
X172671706Y-107775181D01*
X172654652Y-107763418D01*
X172648199Y-107757955D01*
X172625298Y-107729710D01*
X172605228Y-107691883D01*
X172587972Y-107644420D01*
X172573507Y-107587269D01*
X172564959Y-107541020D01*
X172562442Y-107523764D01*
X172560422Y-107505587D01*
X172558848Y-107485174D01*
X172557672Y-107461208D01*
X172556843Y-107432375D01*
X172556312Y-107397359D01*
X172556029Y-107354844D01*
X172555945Y-107303516D01*
X172555945Y-107302260D01*
X172556068Y-107245778D01*
X172556514Y-107197431D01*
X172557403Y-107155192D01*
X172558857Y-107117037D01*
X172560997Y-107080942D01*
X172563942Y-107044882D01*
X172567814Y-107006833D01*
X172572734Y-106964769D01*
X172578823Y-106916667D01*
X172579068Y-106914778D01*
X172588126Y-106857754D01*
X172600976Y-106795299D01*
X172617031Y-106729301D01*
X172635706Y-106661648D01*
X172656413Y-106594227D01*
X172678565Y-106528927D01*
X172701577Y-106467635D01*
X172724862Y-106412239D01*
X172747832Y-106364626D01*
X172753030Y-106354937D01*
X172780897Y-106310835D01*
X172811983Y-106273517D01*
X172812588Y-106272896D01*
X172835380Y-106251619D01*
X172856068Y-106237902D01*
X172877763Y-106230583D01*
X172903575Y-106228502D01*
X172928201Y-106229738D01*
X172928201Y-106229738D01*
G37*
X172928201Y-106229738D02*
X172948348Y-106231965D01*
X172965863Y-106235564D01*
X172981188Y-106241308D01*
X172994766Y-106249971D01*
X173007039Y-106262324D01*
X173018450Y-106279140D01*
X173029440Y-106301193D01*
X173040453Y-106329255D01*
X173051931Y-106364099D01*
X173064316Y-106406498D01*
X173078050Y-106457225D01*
X173093577Y-106517052D01*
X173094299Y-106519867D01*
X173111506Y-106592474D01*
X173125540Y-106664276D01*
X173136689Y-106737443D01*
X173145238Y-106814150D01*
X173151474Y-106896569D01*
X173155609Y-106984760D01*
X173156717Y-107018405D01*
X173157222Y-107044525D01*
X173156933Y-107065749D01*
X173155658Y-107084703D01*
X173153208Y-107104014D01*
X173149391Y-107126309D01*
X173144016Y-107154217D01*
X173142872Y-107160020D01*
X173126391Y-107238711D01*
X173108865Y-107313406D01*
X173090546Y-107383339D01*
X173071687Y-107447741D01*
X173052541Y-107505845D01*
X173033359Y-107556882D01*
X173014394Y-107600085D01*
X172995900Y-107634686D01*
X172978657Y-107659293D01*
X172967953Y-107672749D01*
X172953677Y-107691717D01*
X172937975Y-107713311D01*
X172927487Y-107728152D01*
X172901986Y-107762275D01*
X172878222Y-107789201D01*
X172856922Y-107808184D01*
X172839823Y-107818106D01*
X172827848Y-107820698D01*
X172810149Y-107822358D01*
X172795639Y-107822712D01*
X172779049Y-107821866D01*
X172763769Y-107819024D01*
X172746746Y-107813303D01*
X172724929Y-107803818D01*
X172715960Y-107799618D01*
X172693192Y-107787894D01*
X172671706Y-107775181D01*
X172654652Y-107763418D01*
X172648199Y-107757955D01*
X172625298Y-107729710D01*
X172605228Y-107691883D01*
X172587972Y-107644420D01*
X172573507Y-107587269D01*
X172564959Y-107541020D01*
X172562442Y-107523764D01*
X172560422Y-107505587D01*
X172558848Y-107485174D01*
X172557672Y-107461208D01*
X172556843Y-107432375D01*
X172556312Y-107397359D01*
X172556029Y-107354844D01*
X172555945Y-107303516D01*
X172555945Y-107302260D01*
X172556068Y-107245778D01*
X172556514Y-107197431D01*
X172557403Y-107155192D01*
X172558857Y-107117037D01*
X172560997Y-107080942D01*
X172563942Y-107044882D01*
X172567814Y-107006833D01*
X172572734Y-106964769D01*
X172578823Y-106916667D01*
X172579068Y-106914778D01*
X172588126Y-106857754D01*
X172600976Y-106795299D01*
X172617031Y-106729301D01*
X172635706Y-106661648D01*
X172656413Y-106594227D01*
X172678565Y-106528927D01*
X172701577Y-106467635D01*
X172724862Y-106412239D01*
X172747832Y-106364626D01*
X172753030Y-106354937D01*
X172780897Y-106310835D01*
X172811983Y-106273517D01*
X172812588Y-106272896D01*
X172835380Y-106251619D01*
X172856068Y-106237902D01*
X172877763Y-106230583D01*
X172903575Y-106228502D01*
X172928201Y-106229738D01*
G04 #@! TO.C,H4*
G36*
X171668423Y-107401777D02*
X171706263Y-107405066D01*
X171726759Y-107408897D01*
X171778390Y-107425874D01*
X171823060Y-107449654D01*
X171860646Y-107479527D01*
X171891024Y-107514781D01*
X171914071Y-107554703D01*
X171929661Y-107598583D01*
X171937672Y-107645708D01*
X171937980Y-107695366D01*
X171930461Y-107746846D01*
X171914990Y-107799436D01*
X171891445Y-107852424D01*
X171859701Y-107905099D01*
X171821669Y-107954398D01*
X171772024Y-108005506D01*
X171717034Y-108050255D01*
X171657863Y-108088142D01*
X171595678Y-108118666D01*
X171531645Y-108141325D01*
X171466929Y-108155617D01*
X171402695Y-108161041D01*
X171348218Y-108158169D01*
X171293393Y-108147107D01*
X171244297Y-108128036D01*
X171201371Y-108101148D01*
X171182887Y-108085333D01*
X171151140Y-108051436D01*
X171128000Y-108016962D01*
X171112118Y-107979320D01*
X171102141Y-107935916D01*
X171100986Y-107928145D01*
X171098426Y-107873755D01*
X171105286Y-107818691D01*
X171120934Y-107763752D01*
X171134275Y-107733475D01*
X171499164Y-107733475D01*
X171501545Y-107755112D01*
X171514506Y-107799304D01*
X171535689Y-107838657D01*
X171564198Y-107872122D01*
X171599137Y-107898653D01*
X171639610Y-107917204D01*
X171640453Y-107917481D01*
X171660411Y-107921460D01*
X171687461Y-107923152D01*
X171705684Y-107922976D01*
X171729938Y-107921571D01*
X171748324Y-107918634D01*
X171765122Y-107913176D01*
X171782690Y-107905155D01*
X171819679Y-107881788D01*
X171850282Y-107851948D01*
X171873754Y-107817048D01*
X171889349Y-107778504D01*
X171896322Y-107737728D01*
X171893925Y-107696134D01*
X171893670Y-107694722D01*
X171880966Y-107652824D01*
X171859644Y-107614438D01*
X171830985Y-107581215D01*
X171796270Y-107554806D01*
X171777445Y-107544858D01*
X171747518Y-107535350D01*
X171712396Y-107530786D01*
X171675790Y-107531225D01*
X171641413Y-107536724D01*
X171623531Y-107542426D01*
X171588383Y-107561486D01*
X171557691Y-107587944D01*
X171532440Y-107620087D01*
X171513613Y-107656199D01*
X171502193Y-107694567D01*
X171499164Y-107733475D01*
X171134275Y-107733475D01*
X171144736Y-107709736D01*
X171176061Y-107657441D01*
X171214274Y-107607666D01*
X171258745Y-107561207D01*
X171308840Y-107518864D01*
X171363926Y-107481434D01*
X171423370Y-107449716D01*
X171486541Y-107424507D01*
X171504886Y-107418701D01*
X171541263Y-107410238D01*
X171582757Y-107404503D01*
X171626199Y-107401636D01*
X171668423Y-107401777D01*
X171668423Y-107401777D01*
G37*
X171668423Y-107401777D02*
X171706263Y-107405066D01*
X171726759Y-107408897D01*
X171778390Y-107425874D01*
X171823060Y-107449654D01*
X171860646Y-107479527D01*
X171891024Y-107514781D01*
X171914071Y-107554703D01*
X171929661Y-107598583D01*
X171937672Y-107645708D01*
X171937980Y-107695366D01*
X171930461Y-107746846D01*
X171914990Y-107799436D01*
X171891445Y-107852424D01*
X171859701Y-107905099D01*
X171821669Y-107954398D01*
X171772024Y-108005506D01*
X171717034Y-108050255D01*
X171657863Y-108088142D01*
X171595678Y-108118666D01*
X171531645Y-108141325D01*
X171466929Y-108155617D01*
X171402695Y-108161041D01*
X171348218Y-108158169D01*
X171293393Y-108147107D01*
X171244297Y-108128036D01*
X171201371Y-108101148D01*
X171182887Y-108085333D01*
X171151140Y-108051436D01*
X171128000Y-108016962D01*
X171112118Y-107979320D01*
X171102141Y-107935916D01*
X171100986Y-107928145D01*
X171098426Y-107873755D01*
X171105286Y-107818691D01*
X171120934Y-107763752D01*
X171134275Y-107733475D01*
X171499164Y-107733475D01*
X171501545Y-107755112D01*
X171514506Y-107799304D01*
X171535689Y-107838657D01*
X171564198Y-107872122D01*
X171599137Y-107898653D01*
X171639610Y-107917204D01*
X171640453Y-107917481D01*
X171660411Y-107921460D01*
X171687461Y-107923152D01*
X171705684Y-107922976D01*
X171729938Y-107921571D01*
X171748324Y-107918634D01*
X171765122Y-107913176D01*
X171782690Y-107905155D01*
X171819679Y-107881788D01*
X171850282Y-107851948D01*
X171873754Y-107817048D01*
X171889349Y-107778504D01*
X171896322Y-107737728D01*
X171893925Y-107696134D01*
X171893670Y-107694722D01*
X171880966Y-107652824D01*
X171859644Y-107614438D01*
X171830985Y-107581215D01*
X171796270Y-107554806D01*
X171777445Y-107544858D01*
X171747518Y-107535350D01*
X171712396Y-107530786D01*
X171675790Y-107531225D01*
X171641413Y-107536724D01*
X171623531Y-107542426D01*
X171588383Y-107561486D01*
X171557691Y-107587944D01*
X171532440Y-107620087D01*
X171513613Y-107656199D01*
X171502193Y-107694567D01*
X171499164Y-107733475D01*
X171134275Y-107733475D01*
X171144736Y-107709736D01*
X171176061Y-107657441D01*
X171214274Y-107607666D01*
X171258745Y-107561207D01*
X171308840Y-107518864D01*
X171363926Y-107481434D01*
X171423370Y-107449716D01*
X171486541Y-107424507D01*
X171504886Y-107418701D01*
X171541263Y-107410238D01*
X171582757Y-107404503D01*
X171626199Y-107401636D01*
X171668423Y-107401777D01*
G36*
X170043665Y-107592400D02*
X170061199Y-107594815D01*
X170077879Y-107600076D01*
X170096678Y-107608404D01*
X170146544Y-107636810D01*
X170196028Y-107674026D01*
X170244186Y-107718713D01*
X170290077Y-107769536D01*
X170332757Y-107825158D01*
X170371285Y-107884244D01*
X170404717Y-107945456D01*
X170432112Y-108007459D01*
X170452526Y-108068917D01*
X170465018Y-108128492D01*
X170465381Y-108131129D01*
X170468149Y-108174196D01*
X170464456Y-108212257D01*
X170454593Y-108244427D01*
X170438853Y-108269822D01*
X170417525Y-108287556D01*
X170413187Y-108289832D01*
X170385219Y-108298318D01*
X170353409Y-108299581D01*
X170321189Y-108293488D01*
X170320740Y-108293346D01*
X170277203Y-108275057D01*
X170232270Y-108247842D01*
X170186881Y-108212665D01*
X170141976Y-108170487D01*
X170098495Y-108122272D01*
X170057378Y-108068982D01*
X170019565Y-108011579D01*
X169985996Y-107951026D01*
X169985540Y-107950119D01*
X169960181Y-107895845D01*
X169951711Y-107873574D01*
X170105284Y-107873574D01*
X170105543Y-107901315D01*
X170108121Y-107929311D01*
X170112567Y-107952702D01*
X170122407Y-107982865D01*
X170136999Y-108017156D01*
X170154535Y-108051944D01*
X170173208Y-108083596D01*
X170188382Y-108105022D01*
X170219895Y-108140806D01*
X170251152Y-108168895D01*
X170281506Y-108189000D01*
X170310309Y-108200834D01*
X170336913Y-108204109D01*
X170360670Y-108198538D01*
X170376133Y-108188466D01*
X170390767Y-108171999D01*
X170400019Y-108152003D01*
X170404606Y-108126313D01*
X170405402Y-108100316D01*
X170401584Y-108061085D01*
X170391587Y-108020767D01*
X170376265Y-107980451D01*
X170356466Y-107941228D01*
X170333042Y-107904188D01*
X170306844Y-107870421D01*
X170278723Y-107841018D01*
X170249529Y-107817069D01*
X170220113Y-107799664D01*
X170191326Y-107789894D01*
X170164019Y-107788849D01*
X170162521Y-107789075D01*
X170140226Y-107797610D01*
X170121870Y-107814429D01*
X170111805Y-107831686D01*
X170107365Y-107849295D01*
X170105284Y-107873574D01*
X169951711Y-107873574D01*
X169941505Y-107846742D01*
X169928956Y-107800850D01*
X169921980Y-107756209D01*
X169920024Y-107718820D01*
X169920147Y-107693734D01*
X169921356Y-107675780D01*
X169924108Y-107661950D01*
X169928861Y-107649235D01*
X169931443Y-107643751D01*
X169942212Y-107626421D01*
X169955671Y-107610733D01*
X169961471Y-107605651D01*
X169971774Y-107598608D01*
X169981873Y-107594452D01*
X169994939Y-107592443D01*
X170014145Y-107591838D01*
X170020641Y-107591820D01*
X170043665Y-107592400D01*
X170043665Y-107592400D01*
G37*
X170043665Y-107592400D02*
X170061199Y-107594815D01*
X170077879Y-107600076D01*
X170096678Y-107608404D01*
X170146544Y-107636810D01*
X170196028Y-107674026D01*
X170244186Y-107718713D01*
X170290077Y-107769536D01*
X170332757Y-107825158D01*
X170371285Y-107884244D01*
X170404717Y-107945456D01*
X170432112Y-108007459D01*
X170452526Y-108068917D01*
X170465018Y-108128492D01*
X170465381Y-108131129D01*
X170468149Y-108174196D01*
X170464456Y-108212257D01*
X170454593Y-108244427D01*
X170438853Y-108269822D01*
X170417525Y-108287556D01*
X170413187Y-108289832D01*
X170385219Y-108298318D01*
X170353409Y-108299581D01*
X170321189Y-108293488D01*
X170320740Y-108293346D01*
X170277203Y-108275057D01*
X170232270Y-108247842D01*
X170186881Y-108212665D01*
X170141976Y-108170487D01*
X170098495Y-108122272D01*
X170057378Y-108068982D01*
X170019565Y-108011579D01*
X169985996Y-107951026D01*
X169985540Y-107950119D01*
X169960181Y-107895845D01*
X169951711Y-107873574D01*
X170105284Y-107873574D01*
X170105543Y-107901315D01*
X170108121Y-107929311D01*
X170112567Y-107952702D01*
X170122407Y-107982865D01*
X170136999Y-108017156D01*
X170154535Y-108051944D01*
X170173208Y-108083596D01*
X170188382Y-108105022D01*
X170219895Y-108140806D01*
X170251152Y-108168895D01*
X170281506Y-108189000D01*
X170310309Y-108200834D01*
X170336913Y-108204109D01*
X170360670Y-108198538D01*
X170376133Y-108188466D01*
X170390767Y-108171999D01*
X170400019Y-108152003D01*
X170404606Y-108126313D01*
X170405402Y-108100316D01*
X170401584Y-108061085D01*
X170391587Y-108020767D01*
X170376265Y-107980451D01*
X170356466Y-107941228D01*
X170333042Y-107904188D01*
X170306844Y-107870421D01*
X170278723Y-107841018D01*
X170249529Y-107817069D01*
X170220113Y-107799664D01*
X170191326Y-107789894D01*
X170164019Y-107788849D01*
X170162521Y-107789075D01*
X170140226Y-107797610D01*
X170121870Y-107814429D01*
X170111805Y-107831686D01*
X170107365Y-107849295D01*
X170105284Y-107873574D01*
X169951711Y-107873574D01*
X169941505Y-107846742D01*
X169928956Y-107800850D01*
X169921980Y-107756209D01*
X169920024Y-107718820D01*
X169920147Y-107693734D01*
X169921356Y-107675780D01*
X169924108Y-107661950D01*
X169928861Y-107649235D01*
X169931443Y-107643751D01*
X169942212Y-107626421D01*
X169955671Y-107610733D01*
X169961471Y-107605651D01*
X169971774Y-107598608D01*
X169981873Y-107594452D01*
X169994939Y-107592443D01*
X170014145Y-107591838D01*
X170020641Y-107591820D01*
X170043665Y-107592400D01*
D16*
G36*
X171374692Y-109031830D02*
X171378884Y-109037238D01*
X171379842Y-109045434D01*
X171375424Y-109050854D01*
X171363375Y-109058710D01*
X171345655Y-109068093D01*
X171324225Y-109078090D01*
X171301046Y-109087791D01*
X171278078Y-109096284D01*
X171257282Y-109102659D01*
X171255917Y-109103013D01*
X171212856Y-109110486D01*
X171164361Y-109112860D01*
X171113785Y-109110138D01*
X171067500Y-109102965D01*
X171040200Y-109097186D01*
X171021309Y-109092973D01*
X171009286Y-109089840D01*
X171002588Y-109087302D01*
X170999673Y-109084876D01*
X170998999Y-109082076D01*
X170998997Y-109081433D01*
X171000026Y-109073727D01*
X171003898Y-109069084D01*
X171012140Y-109067369D01*
X171026276Y-109068449D01*
X171047832Y-109072190D01*
X171064960Y-109075657D01*
X171123922Y-109085109D01*
X171177388Y-109087441D01*
X171227312Y-109082442D01*
X171275646Y-109069901D01*
X171324342Y-109049609D01*
X171329221Y-109047188D01*
X171351207Y-109036758D01*
X171365915Y-109031654D01*
X171374692Y-109031830D01*
X171374692Y-109031830D01*
G37*
X171374692Y-109031830D02*
X171378884Y-109037238D01*
X171379842Y-109045434D01*
X171375424Y-109050854D01*
X171363375Y-109058710D01*
X171345655Y-109068093D01*
X171324225Y-109078090D01*
X171301046Y-109087791D01*
X171278078Y-109096284D01*
X171257282Y-109102659D01*
X171255917Y-109103013D01*
X171212856Y-109110486D01*
X171164361Y-109112860D01*
X171113785Y-109110138D01*
X171067500Y-109102965D01*
X171040200Y-109097186D01*
X171021309Y-109092973D01*
X171009286Y-109089840D01*
X171002588Y-109087302D01*
X170999673Y-109084876D01*
X170998999Y-109082076D01*
X170998997Y-109081433D01*
X171000026Y-109073727D01*
X171003898Y-109069084D01*
X171012140Y-109067369D01*
X171026276Y-109068449D01*
X171047832Y-109072190D01*
X171064960Y-109075657D01*
X171123922Y-109085109D01*
X171177388Y-109087441D01*
X171227312Y-109082442D01*
X171275646Y-109069901D01*
X171324342Y-109049609D01*
X171329221Y-109047188D01*
X171351207Y-109036758D01*
X171365915Y-109031654D01*
X171374692Y-109031830D01*
G04 #@! TD*
M02*
