G04 #@! TF.GenerationSoftware,KiCad,Pcbnew,5.0.2-bee76a0~70~ubuntu18.04.1*
G04 #@! TF.CreationDate,2019-12-05T19:09:47+01:00*
G04 #@! TF.ProjectId,magneto_bot_shield,6d61676e-6574-46f5-9f62-6f745f736869,rev?*
G04 #@! TF.SameCoordinates,Original*
G04 #@! TF.FileFunction,Soldermask,Bot*
G04 #@! TF.FilePolarity,Negative*
%FSLAX46Y46*%
G04 Gerber Fmt 4.6, Leading zero omitted, Abs format (unit mm)*
G04 Created by KiCad (PCBNEW 5.0.2-bee76a0~70~ubuntu18.04.1) date Thu 05 Dec 2019 07:09:47 PM CET*
%MOMM*%
%LPD*%
G01*
G04 APERTURE LIST*
%ADD10C,0.100000*%
G04 APERTURE END LIST*
D10*
G36*
X142058445Y-105516254D02*
X142406593Y-105585504D01*
X142816249Y-105755189D01*
X143184929Y-106001534D01*
X143498466Y-106315071D01*
X143744811Y-106683751D01*
X143914496Y-107093407D01*
X144001000Y-107528296D01*
X144001000Y-107971704D01*
X143914496Y-108406593D01*
X143744811Y-108816249D01*
X143498466Y-109184929D01*
X143184929Y-109498466D01*
X142816249Y-109744811D01*
X142406593Y-109914496D01*
X142058445Y-109983746D01*
X141971706Y-110001000D01*
X141528294Y-110001000D01*
X141441555Y-109983746D01*
X141093407Y-109914496D01*
X140683751Y-109744811D01*
X140315071Y-109498466D01*
X140001534Y-109184929D01*
X139755189Y-108816249D01*
X139585504Y-108406593D01*
X139499000Y-107971704D01*
X139499000Y-107528296D01*
X139585504Y-107093407D01*
X139755189Y-106683751D01*
X140001534Y-106315071D01*
X140315071Y-106001534D01*
X140683751Y-105755189D01*
X141093407Y-105585504D01*
X141441555Y-105516254D01*
X141528294Y-105499000D01*
X141971706Y-105499000D01*
X142058445Y-105516254D01*
X142058445Y-105516254D01*
G37*
G36*
X186058445Y-103016254D02*
X186406593Y-103085504D01*
X186816249Y-103255189D01*
X187184929Y-103501534D01*
X187498466Y-103815071D01*
X187744811Y-104183751D01*
X187914496Y-104593407D01*
X188001000Y-105028296D01*
X188001000Y-105471704D01*
X187914496Y-105906593D01*
X187744811Y-106316249D01*
X187498466Y-106684929D01*
X187184929Y-106998466D01*
X186816249Y-107244811D01*
X186406593Y-107414496D01*
X186058445Y-107483746D01*
X185971706Y-107501000D01*
X185528294Y-107501000D01*
X185441555Y-107483746D01*
X185093407Y-107414496D01*
X184683751Y-107244811D01*
X184315071Y-106998466D01*
X184001534Y-106684929D01*
X183755189Y-106316249D01*
X183585504Y-105906593D01*
X183499000Y-105471704D01*
X183499000Y-105028296D01*
X183585504Y-104593407D01*
X183755189Y-104183751D01*
X184001534Y-103815071D01*
X184315071Y-103501534D01*
X184683751Y-103255189D01*
X185093407Y-103085504D01*
X185441555Y-103016254D01*
X185528294Y-102999000D01*
X185971706Y-102999000D01*
X186058445Y-103016254D01*
X186058445Y-103016254D01*
G37*
G36*
X162833655Y-96429733D02*
X162833657Y-96429734D01*
X162833658Y-96429734D01*
X162887509Y-96452040D01*
X162979440Y-96490119D01*
X163110643Y-96577786D01*
X163222214Y-96689357D01*
X163309881Y-96820560D01*
X163370267Y-96966345D01*
X163401050Y-97121102D01*
X163401050Y-97278898D01*
X163370267Y-97433655D01*
X163309881Y-97579440D01*
X163222214Y-97710643D01*
X163107907Y-97824950D01*
X163094915Y-97835612D01*
X163079370Y-97854554D01*
X163067819Y-97876165D01*
X163060706Y-97899614D01*
X163058304Y-97924001D01*
X163060706Y-97948387D01*
X163067819Y-97971836D01*
X163079371Y-97993447D01*
X163094916Y-98012389D01*
X163113858Y-98027934D01*
X163135469Y-98039485D01*
X163158918Y-98046598D01*
X163183304Y-98049000D01*
X164951000Y-98049000D01*
X164951000Y-99951000D01*
X163049000Y-99951000D01*
X163049000Y-98068145D01*
X163046598Y-98043759D01*
X163039485Y-98020310D01*
X163027934Y-97998699D01*
X163012388Y-97979757D01*
X162993446Y-97964211D01*
X162971835Y-97952660D01*
X162948386Y-97945547D01*
X162924000Y-97943145D01*
X162899614Y-97945547D01*
X162876165Y-97952660D01*
X162833658Y-97970267D01*
X162678898Y-98001050D01*
X162521102Y-98001050D01*
X162366345Y-97970267D01*
X162366343Y-97970266D01*
X162366342Y-97970266D01*
X162254649Y-97924001D01*
X162220560Y-97909881D01*
X162089357Y-97822214D01*
X161977786Y-97710643D01*
X161890119Y-97579440D01*
X161829733Y-97433655D01*
X161798950Y-97278898D01*
X161798950Y-97121102D01*
X161829733Y-96966345D01*
X161890119Y-96820560D01*
X161977786Y-96689357D01*
X162089357Y-96577786D01*
X162220560Y-96490119D01*
X162312491Y-96452040D01*
X162366342Y-96429734D01*
X162366343Y-96429734D01*
X162366345Y-96429733D01*
X162521102Y-96398950D01*
X162678898Y-96398950D01*
X162833655Y-96429733D01*
X162833655Y-96429733D01*
G37*
G36*
X169357396Y-98085546D02*
X169530466Y-98157234D01*
X169686230Y-98261312D01*
X169818688Y-98393770D01*
X169922766Y-98549534D01*
X169994454Y-98722604D01*
X170031000Y-98906333D01*
X170031000Y-99093667D01*
X169994454Y-99277396D01*
X169922766Y-99450466D01*
X169818688Y-99606230D01*
X169686230Y-99738688D01*
X169530466Y-99842766D01*
X169357396Y-99914454D01*
X169173667Y-99951000D01*
X168986333Y-99951000D01*
X168802604Y-99914454D01*
X168629534Y-99842766D01*
X168473770Y-99738688D01*
X168341312Y-99606230D01*
X168237234Y-99450466D01*
X168165546Y-99277396D01*
X168129000Y-99093667D01*
X168129000Y-98906333D01*
X168165546Y-98722604D01*
X168237234Y-98549534D01*
X168341312Y-98393770D01*
X168473770Y-98261312D01*
X168629534Y-98157234D01*
X168802604Y-98085546D01*
X168986333Y-98049000D01*
X169173667Y-98049000D01*
X169357396Y-98085546D01*
X169357396Y-98085546D01*
G37*
G36*
X166817396Y-98085546D02*
X166990466Y-98157234D01*
X167146230Y-98261312D01*
X167278688Y-98393770D01*
X167382766Y-98549534D01*
X167454454Y-98722604D01*
X167491000Y-98906333D01*
X167491000Y-99093667D01*
X167454454Y-99277396D01*
X167382766Y-99450466D01*
X167278688Y-99606230D01*
X167146230Y-99738688D01*
X166990466Y-99842766D01*
X166817396Y-99914454D01*
X166633667Y-99951000D01*
X166446333Y-99951000D01*
X166262604Y-99914454D01*
X166089534Y-99842766D01*
X165933770Y-99738688D01*
X165801312Y-99606230D01*
X165697234Y-99450466D01*
X165625546Y-99277396D01*
X165589000Y-99093667D01*
X165589000Y-98906333D01*
X165625546Y-98722604D01*
X165697234Y-98549534D01*
X165801312Y-98393770D01*
X165933770Y-98261312D01*
X166089534Y-98157234D01*
X166262604Y-98085546D01*
X166446333Y-98049000D01*
X166633667Y-98049000D01*
X166817396Y-98085546D01*
X166817396Y-98085546D01*
G37*
G36*
X170627396Y-95545546D02*
X170800466Y-95617234D01*
X170956230Y-95721312D01*
X171088688Y-95853770D01*
X171192766Y-96009534D01*
X171264454Y-96182604D01*
X171301000Y-96366333D01*
X171301000Y-96553667D01*
X171264454Y-96737396D01*
X171192766Y-96910466D01*
X171088688Y-97066230D01*
X170956230Y-97198688D01*
X170800466Y-97302766D01*
X170627396Y-97374454D01*
X170443667Y-97411000D01*
X170256333Y-97411000D01*
X170072604Y-97374454D01*
X169899534Y-97302766D01*
X169743770Y-97198688D01*
X169611312Y-97066230D01*
X169507234Y-96910466D01*
X169435546Y-96737396D01*
X169399000Y-96553667D01*
X169399000Y-96366333D01*
X169435546Y-96182604D01*
X169507234Y-96009534D01*
X169611312Y-95853770D01*
X169743770Y-95721312D01*
X169899534Y-95617234D01*
X170072604Y-95545546D01*
X170256333Y-95509000D01*
X170443667Y-95509000D01*
X170627396Y-95545546D01*
X170627396Y-95545546D01*
G37*
G36*
X168087396Y-95545546D02*
X168260466Y-95617234D01*
X168416230Y-95721312D01*
X168548688Y-95853770D01*
X168652766Y-96009534D01*
X168724454Y-96182604D01*
X168761000Y-96366333D01*
X168761000Y-96553667D01*
X168724454Y-96737396D01*
X168652766Y-96910466D01*
X168548688Y-97066230D01*
X168416230Y-97198688D01*
X168260466Y-97302766D01*
X168087396Y-97374454D01*
X167903667Y-97411000D01*
X167716333Y-97411000D01*
X167532604Y-97374454D01*
X167359534Y-97302766D01*
X167203770Y-97198688D01*
X167071312Y-97066230D01*
X166967234Y-96910466D01*
X166895546Y-96737396D01*
X166859000Y-96553667D01*
X166859000Y-96366333D01*
X166895546Y-96182604D01*
X166967234Y-96009534D01*
X167071312Y-95853770D01*
X167203770Y-95721312D01*
X167359534Y-95617234D01*
X167532604Y-95545546D01*
X167716333Y-95509000D01*
X167903667Y-95509000D01*
X168087396Y-95545546D01*
X168087396Y-95545546D01*
G37*
G36*
X165547396Y-95545546D02*
X165720466Y-95617234D01*
X165876230Y-95721312D01*
X166008688Y-95853770D01*
X166112766Y-96009534D01*
X166184454Y-96182604D01*
X166221000Y-96366333D01*
X166221000Y-96553667D01*
X166184454Y-96737396D01*
X166112766Y-96910466D01*
X166008688Y-97066230D01*
X165876230Y-97198688D01*
X165720466Y-97302766D01*
X165547396Y-97374454D01*
X165363667Y-97411000D01*
X165176333Y-97411000D01*
X164992604Y-97374454D01*
X164819534Y-97302766D01*
X164663770Y-97198688D01*
X164531312Y-97066230D01*
X164427234Y-96910466D01*
X164355546Y-96737396D01*
X164319000Y-96553667D01*
X164319000Y-96366333D01*
X164355546Y-96182604D01*
X164427234Y-96009534D01*
X164531312Y-95853770D01*
X164663770Y-95721312D01*
X164819534Y-95617234D01*
X164992604Y-95545546D01*
X165176333Y-95509000D01*
X165363667Y-95509000D01*
X165547396Y-95545546D01*
X165547396Y-95545546D01*
G37*
M02*
